        .include "MPlayDef.s"

        .equ    mus_pkmn_bw12_154_grp, voicegroup536
        .equ    mus_pkmn_bw12_154_pri, 0
        .equ    mus_pkmn_bw12_154_rev, 0
        .equ    mus_pkmn_bw12_154_key, 0

        .section .rodata
        .global mus_pkmn_bw12_154
        .align  2

@****************** Track 0 (Midi-Chn.0) ******************@

mus_pkmn_bw12_154_0:
        .byte   KEYSH , mus_pkmn_bw12_154_key+0
@ 000   ----------------------------------------
        .byte   TEMPO , 164/2
        .byte           VOICE , 127
        .byte           LFOS  , 44
        .byte           BENDR , 12
        .byte           VOL   , 30
        .byte           N07   , Cs5 , v112
        .byte   W16
        .byte                   Cs5
        .byte   W16
        .byte                   An5
        .byte   W08
        .byte                   Gs5
        .byte   W08
        .byte                   Cs3
        .byte   W16
        .byte                   Cs3
        .byte   W16
        .byte                   An3
        .byte   W08
        .byte                   Gs3
        .byte   W08
@ 001   ----------------------------------------
mus_pkmn_bw12_154_0_1:
        .byte           N07   , Cs4 , v112
        .byte   W16
        .byte                   Cs4
        .byte   W16
        .byte                   An4
        .byte   W08
        .byte                   Gs4
        .byte   W08
        .byte                   Cs5
        .byte   W16
        .byte                   Cs5
        .byte   W16
        .byte                   An5
        .byte   W08
        .byte                   Gs5
        .byte   W08
        .byte   PEND
@ 002   ----------------------------------------
        .byte   PATT
         .word  mus_pkmn_bw12_154_0_1
@ 003   ----------------------------------------
mus_pkmn_bw12_154_0_3:
        .byte           VOL   , 21
        .byte           N07   , Cs4 , v100
        .byte   W16
        .byte                   Cs4
        .byte   W16
        .byte                   An4
        .byte   W08
        .byte                   Gs4
        .byte   W08
        .byte                   Cs4
        .byte   W16
        .byte                   Cs4
        .byte   W16
        .byte                   An4
        .byte   W08
        .byte                   Gs4
        .byte   W08
        .byte   PEND
@ 004   ----------------------------------------
mus_pkmn_bw12_154_0_4:
        .byte           N07   , Cs4 , v100
        .byte   W16
        .byte                   Cs4
        .byte   W16
        .byte                   An4
        .byte   W08
        .byte                   Gs4
        .byte   W08
        .byte                   Cs4
        .byte   W16
        .byte                   Cs4
        .byte   W16
        .byte                   An4
        .byte   W08
        .byte                   Gs4
        .byte   W08
        .byte   PEND
@ 005   ----------------------------------------
        .byte   PATT
         .word  mus_pkmn_bw12_154_0_4
@ 006   ----------------------------------------
        .byte   PATT
         .word  mus_pkmn_bw12_154_0_4
@ 007   ----------------------------------------
        .byte   PATT
         .word  mus_pkmn_bw12_154_0_4
@ 008   ----------------------------------------
mus_pkmn_bw12_154_0_8:
        .byte           N07   , Dn4 , v100
        .byte   W16
        .byte                   Dn4
        .byte   W16
        .byte                   As4
        .byte   W08
        .byte                   An4
        .byte   W08
        .byte                   Dn4
        .byte   W16
        .byte                   Dn4
        .byte   W16
        .byte                   As4
        .byte   W08
        .byte                   An4
        .byte   W08
        .byte   PEND
@ 009   ----------------------------------------
        .byte   PATT
         .word  mus_pkmn_bw12_154_0_8
@ 010   ----------------------------------------
        .byte   PATT
         .word  mus_pkmn_bw12_154_0_8
@ 011   ----------------------------------------
        .byte   PATT
         .word  mus_pkmn_bw12_154_0_8
@ 012   ----------------------------------------
        .byte   PATT
         .word  mus_pkmn_bw12_154_0_8
@ 013   ----------------------------------------
        .byte   PATT
         .word  mus_pkmn_bw12_154_0_8
@ 014   ----------------------------------------
        .byte   PATT
         .word  mus_pkmn_bw12_154_0_4
@ 015   ----------------------------------------
        .byte   PATT
         .word  mus_pkmn_bw12_154_0_4
@ 016   ----------------------------------------
        .byte   PATT
         .word  mus_pkmn_bw12_154_0_4
@ 017   ----------------------------------------
        .byte   PATT
         .word  mus_pkmn_bw12_154_0_4
@ 018   ----------------------------------------
        .byte   PATT
         .word  mus_pkmn_bw12_154_0_4
@ 019   ----------------------------------------
        .byte   PATT
         .word  mus_pkmn_bw12_154_0_4
@ 020   ----------------------------------------
mus_pkmn_bw12_154_0_LOOP:
        .byte           N07   , Dn4 , v100
        .byte   W16
        .byte                   Dn4
        .byte   W16
        .byte                   As4
        .byte   W08
        .byte                   An4
        .byte   W08
        .byte                   Dn4
        .byte   W16
        .byte                   Dn4
        .byte   W16
        .byte                   As4
        .byte   W08
        .byte                   An4
        .byte   W08
@ 021   ----------------------------------------
        .byte   PATT
         .word  mus_pkmn_bw12_154_0_8
@ 022   ----------------------------------------
        .byte   PATT
         .word  mus_pkmn_bw12_154_0_8
@ 023   ----------------------------------------
        .byte   PATT
         .word  mus_pkmn_bw12_154_0_8
@ 024   ----------------------------------------
        .byte   PATT
         .word  mus_pkmn_bw12_154_0_8
@ 025   ----------------------------------------
        .byte   PATT
         .word  mus_pkmn_bw12_154_0_8
@ 026   ----------------------------------------
        .byte   PATT
         .word  mus_pkmn_bw12_154_0_8
@ 027   ----------------------------------------
        .byte   PATT
         .word  mus_pkmn_bw12_154_0_8
@ 028   ----------------------------------------
        .byte   PATT
         .word  mus_pkmn_bw12_154_0_8
@ 029   ----------------------------------------
        .byte   PATT
         .word  mus_pkmn_bw12_154_0_8
@ 030   ----------------------------------------
        .byte   PATT
         .word  mus_pkmn_bw12_154_0_8
@ 031   ----------------------------------------
        .byte           VOL   , 28
        .byte           N07   , Dn4 , v100
        .byte   W16
        .byte                   Dn4
        .byte   W16
        .byte                   As4
        .byte   W08
        .byte                   An4
        .byte   W08
        .byte                   Dn4
        .byte   W16
        .byte                   Dn4
        .byte   W16
        .byte                   As4
        .byte   W08
        .byte                   An4
        .byte   W08
@ 032   ----------------------------------------
        .byte           VOICE , 67
        .byte           VOL   , 41
        .byte           PAN   , c_v+37
        .byte           N07   , Dn3 , v068
        .byte   W05
        .byte           VOL   , 37
        .byte   W03
        .byte           N07   , Gn3
        .byte   W04
        .byte           PAN   , c_v+32
        .byte   W04
        .byte           N07   , Cs3
        .byte   W08
        .byte           VOL   , 35
        .byte           PAN   , c_v+25
        .byte           N07   , Fs3
        .byte   W08
        .byte                   Cn3
        .byte   W04
        .byte           VOL   , 33
        .byte           PAN   , c_v+24
        .byte   W04
        .byte           N07   , Fn3
        .byte   W08
        .byte           VOL   , 31
        .byte           PAN   , c_v+20
        .byte           N07   , Bn2
        .byte   W05
        .byte           VOL   , 30
        .byte   W03
        .byte           N07   , En3
        .byte   W04
        .byte           PAN   , c_v+18
        .byte   W04
        .byte           N07   , As2
        .byte   W01
        .byte           VOL   , 28
        .byte   W07
        .byte           PAN   , c_v+16
        .byte           N07   , Ds3
        .byte   W05
        .byte           VOL   , 24
        .byte   W03
        .byte           N07   , An2
        .byte   W08
        .byte                   Cs3
        .byte   W01
        .byte           VOL   , 23
        .byte   W07
@ 033   ----------------------------------------
        .byte                   21
        .byte           PAN   , c_v+13
        .byte           N07   , Gs2
        .byte   W08
        .byte                   Cn3
        .byte   W04
        .byte           VOL   , 20
        .byte           PAN   , c_v+9
        .byte   W04
        .byte           N07   , Gn2
        .byte   W08
        .byte           VOL   , 17
        .byte           PAN   , c_v+8
        .byte           N07   , Bn2
        .byte   W05
        .byte           VOL   , 14
        .byte   W03
        .byte           N07   , Fs2
        .byte   W04
        .byte           VOL   , 13
        .byte           PAN   , c_v+6
        .byte   W04
        .byte           N07   , As2
        .byte   W01
        .byte           VOL   , 11
        .byte   W07
        .byte           PAN   , c_v+4
        .byte           N07   , Fn2
        .byte   W05
        .byte           VOL   , 9
        .byte   W03
        .byte           N07   , An2
        .byte   W04
        .byte           VOL   , 7
        .byte           PAN   , c_v+2
        .byte   W04
        .byte           N07   , En2
        .byte   W01
        .byte           VOL   , 6
        .byte   W07
        .byte           PAN   , c_v+0
        .byte           N07   , Gs2
        .byte   W08
        .byte                   Ds2
        .byte   W08
        .byte                   Gn2
        .byte   W07
        .byte           VOICE , 127
        .byte   W01
@ 034   ----------------------------------------
        .byte   PATT
         .word  mus_pkmn_bw12_154_0_3
@ 035   ----------------------------------------
        .byte   PATT
         .word  mus_pkmn_bw12_154_0_4
@ 036   ----------------------------------------
        .byte   PATT
         .word  mus_pkmn_bw12_154_0_4
@ 037   ----------------------------------------
        .byte   PATT
         .word  mus_pkmn_bw12_154_0_4
@ 038   ----------------------------------------
        .byte   PATT
         .word  mus_pkmn_bw12_154_0_4
@ 039   ----------------------------------------
        .byte   PATT
         .word  mus_pkmn_bw12_154_0_4
@ 040   ----------------------------------------
        .byte   GOTO
         .word  mus_pkmn_bw12_154_0_LOOP
        .byte   FINE

@****************** Track 1 (Midi-Chn.1) ******************@

mus_pkmn_bw12_154_1:
        .byte   KEYSH , mus_pkmn_bw12_154_key+0
@ 000   ----------------------------------------
        .byte           VOICE , 127
        .byte           LFOS  , 44
        .byte           BENDR , 12
        .byte           PAN   , c_v-60
        .byte           VOL   , 10
        .byte   W08
        .byte           N07   , Cs5 , v112
        .byte   W16
        .byte                   Cs5
        .byte   W16
        .byte                   An5
        .byte   W08
        .byte                   Gs5
        .byte   W08
        .byte                   Cs3
        .byte   W16
        .byte                   Cs3
        .byte   W16
        .byte                   An3
        .byte   W08
@ 001   ----------------------------------------
        .byte                   Gs3
        .byte   W08
        .byte                   Cs4
        .byte   W16
        .byte                   Cs4
        .byte   W16
        .byte                   An4
        .byte   W08
        .byte                   Gs4
        .byte   W08
        .byte                   Cs5
        .byte   W16
        .byte                   Cs5
        .byte   W16
        .byte                   An5
        .byte   W08
@ 002   ----------------------------------------
        .byte                   Gs5
        .byte   W08
        .byte                   Cs4
        .byte   W16
        .byte                   Cs4
        .byte   W16
        .byte                   An4
        .byte   W08
        .byte                   Gs4
        .byte   W08
        .byte                   Cs5
        .byte   W16
        .byte                   Cs5
        .byte   W16
        .byte                   An5
        .byte   W08
@ 003   ----------------------------------------
        .byte           VOL   , 8
        .byte           N07   , Gs5 , v100
        .byte   W08
        .byte                   Cs4
        .byte   W16
        .byte                   Cs4
        .byte   W16
        .byte                   An4
        .byte   W08
        .byte                   Gs4
        .byte   W08
        .byte                   Cs4
        .byte   W16
        .byte                   Cs4
        .byte   W16
        .byte                   An4
        .byte   W08
@ 004   ----------------------------------------
mus_pkmn_bw12_154_1_4:
        .byte           N07   , Gs4 , v100
        .byte   W08
        .byte                   Cs4
        .byte   W16
        .byte                   Cs4
        .byte   W16
        .byte                   An4
        .byte   W08
        .byte                   Gs4
        .byte   W08
        .byte                   Cs4
        .byte   W16
        .byte                   Cs4
        .byte   W16
        .byte                   An4
        .byte   W08
        .byte   PEND
@ 005   ----------------------------------------
        .byte   PATT
         .word  mus_pkmn_bw12_154_1_4
@ 006   ----------------------------------------
        .byte   PATT
         .word  mus_pkmn_bw12_154_1_4
@ 007   ----------------------------------------
        .byte   PATT
         .word  mus_pkmn_bw12_154_1_4
@ 008   ----------------------------------------
        .byte           N07   , Gs4 , v100
        .byte   W08
        .byte                   Dn4
        .byte   W16
        .byte                   Dn4
        .byte   W16
        .byte                   As4
        .byte   W08
        .byte                   An4
        .byte   W08
        .byte                   Dn4
        .byte   W16
        .byte                   Dn4
        .byte   W16
        .byte                   As4
        .byte   W08
@ 009   ----------------------------------------
mus_pkmn_bw12_154_1_9:
        .byte           N07   , An4 , v100
        .byte   W08
        .byte                   Dn4
        .byte   W16
        .byte                   Dn4
        .byte   W16
        .byte                   As4
        .byte   W08
        .byte                   An4
        .byte   W08
        .byte                   Dn4
        .byte   W16
        .byte                   Dn4
        .byte   W16
        .byte                   As4
        .byte   W08
        .byte   PEND
@ 010   ----------------------------------------
        .byte   PATT
         .word  mus_pkmn_bw12_154_1_9
@ 011   ----------------------------------------
        .byte   PATT
         .word  mus_pkmn_bw12_154_1_9
@ 012   ----------------------------------------
        .byte   PATT
         .word  mus_pkmn_bw12_154_1_9
@ 013   ----------------------------------------
        .byte   PATT
         .word  mus_pkmn_bw12_154_1_9
@ 014   ----------------------------------------
        .byte           N07   , An4 , v100
        .byte   W08
        .byte                   Cs4
        .byte   W16
        .byte                   Cs4
        .byte   W16
        .byte                   An4
        .byte   W08
        .byte                   Gs4
        .byte   W08
        .byte                   Cs4
        .byte   W16
        .byte                   Cs4
        .byte   W16
        .byte                   An4
        .byte   W08
@ 015   ----------------------------------------
        .byte   PATT
         .word  mus_pkmn_bw12_154_1_4
@ 016   ----------------------------------------
        .byte   PATT
         .word  mus_pkmn_bw12_154_1_4
@ 017   ----------------------------------------
        .byte   PATT
         .word  mus_pkmn_bw12_154_1_4
@ 018   ----------------------------------------
        .byte   PATT
         .word  mus_pkmn_bw12_154_1_4
@ 019   ----------------------------------------
        .byte   PATT
         .word  mus_pkmn_bw12_154_1_4
@ 020   ----------------------------------------
mus_pkmn_bw12_154_1_LOOP:
        .byte           N07   , Gs4 , v100
        .byte   W08
        .byte                   Dn4
        .byte   W16
        .byte                   Dn4
        .byte   W16
        .byte                   As4
        .byte   W08
        .byte                   An4
        .byte   W08
        .byte                   Dn4
        .byte   W16
        .byte                   Dn4
        .byte   W16
        .byte                   As4
        .byte   W08
@ 021   ----------------------------------------
        .byte   PATT
         .word  mus_pkmn_bw12_154_1_9
@ 022   ----------------------------------------
        .byte   PATT
         .word  mus_pkmn_bw12_154_1_9
@ 023   ----------------------------------------
        .byte   PATT
         .word  mus_pkmn_bw12_154_1_9
@ 024   ----------------------------------------
        .byte   PATT
         .word  mus_pkmn_bw12_154_1_9
@ 025   ----------------------------------------
        .byte           N07   , An4 , v100
        .byte   W08
        .byte           N11   , Dn4
        .byte   W16
        .byte                   Dn4
        .byte   W16
        .byte           N07   , As4
        .byte   W08
        .byte                   An4
        .byte   W08
        .byte                   Dn4
        .byte   W16
        .byte                   Dn4
        .byte   W16
        .byte                   As4
        .byte   W08
@ 026   ----------------------------------------
        .byte   PATT
         .word  mus_pkmn_bw12_154_1_9
@ 027   ----------------------------------------
        .byte   PATT
         .word  mus_pkmn_bw12_154_1_9
@ 028   ----------------------------------------
        .byte   PATT
         .word  mus_pkmn_bw12_154_1_9
@ 029   ----------------------------------------
        .byte   PATT
         .word  mus_pkmn_bw12_154_1_9
@ 030   ----------------------------------------
        .byte           N07   , An4 , v100
        .byte   W08
        .byte                   Dn4
        .byte   W16
        .byte                   Dn4
        .byte   W16
        .byte                   As4
        .byte   W08
        .byte                   An4
        .byte   W08
        .byte                   Dn4
        .byte   W16
        .byte                   Dn4
        .byte   W16
        .byte                   As4
        .byte   W07
        .byte           VOICE , 23
        .byte   W01
@ 031   ----------------------------------------
        .byte           VOL   , 17
        .byte           N11   , As2
        .byte   W12
        .byte           VOL   , 21
        .byte           N11
        .byte   W12
        .byte           VOL   , 23
        .byte           N11
        .byte   W12
        .byte           VOL   , 25
        .byte           N11
        .byte   W12
        .byte           VOL   , 28
        .byte           N11
        .byte   W12
        .byte           VOL   , 32
        .byte           N11
        .byte   W12
        .byte           VOL   , 36
        .byte           N11
        .byte   W12
        .byte           VOL   , 42
        .byte           N11
        .byte   W05
        .byte           VOL   , 32
        .byte   W06
        .byte           VOICE , 67
        .byte   W01
@ 032   ----------------------------------------
        .byte           PAN   , c_v-48
        .byte           N07   , An4 , v092
        .byte   W08
        .byte                   Dn5
        .byte   W04
        .byte           VOL   , 31
        .byte           PAN   , c_v-35
        .byte   W04
        .byte           N07   , Gs4
        .byte   W01
        .byte           VOL   , 29
        .byte   W07
        .byte           PAN   , c_v-28
        .byte           N07   , Cs5
        .byte   W05
        .byte           VOL   , 28
        .byte   W03
        .byte           N07   , Gn4
        .byte   W04
        .byte           PAN   , c_v-23
        .byte   W04
        .byte           N07   , Cn5
        .byte   W01
        .byte           VOL   , 27
        .byte   W07
        .byte                   25
        .byte           PAN   , c_v-16
        .byte           N07   , Fs4
        .byte   W08
        .byte                   Bn4
        .byte   W04
        .byte           PAN   , c_v-11
        .byte   W04
        .byte           N07   , Fn4
        .byte   W01
        .byte           VOL   , 24
        .byte   W07
        .byte           PAN   , c_v-4
        .byte           N07   , As4
        .byte   W05
        .byte           VOL   , 23
        .byte   W03
        .byte           N07   , En4
        .byte   W04
        .byte           VOL   , 21
        .byte           PAN   , c_v+2
        .byte   W04
        .byte           N07   , Gs4
        .byte   W08
@ 033   ----------------------------------------
        .byte           VOL   , 19
        .byte           PAN   , c_v+8
        .byte           N07   , Ds4
        .byte   W05
        .byte           VOL   , 16
        .byte   W03
        .byte           N07   , Gn4
        .byte   W04
        .byte           VOL   , 15
        .byte           PAN   , c_v+13
        .byte   W04
        .byte           N07   , Dn4
        .byte   W01
        .byte           VOL   , 13
        .byte   W07
        .byte                   12
        .byte           PAN   , c_v+16
        .byte           N07   , Fs4
        .byte   W05
        .byte           VOL   , 9
        .byte   W03
        .byte           N07   , Cs4
        .byte   W04
        .byte           VOL   , 7
        .byte           PAN   , c_v+20
        .byte   W04
        .byte           N07   , Fn4
        .byte   W08
        .byte           VOL   , 5
        .byte           PAN   , c_v+25
        .byte           N07   , Cn4
        .byte   W08
        .byte                   En4
        .byte   W04
        .byte           VOL   , 4
        .byte           PAN   , c_v+32
        .byte   W04
        .byte           N07   , Bn3
        .byte   W01
        .byte           VOL   , 3
        .byte   W07
        .byte           PAN   , c_v+40
        .byte           N07   , Ds4
        .byte   W08
        .byte                   As3
        .byte   W08
        .byte                   Dn4
        .byte   W08
@ 034   ----------------------------------------
        .byte           PAN   , c_v+48
        .byte           VOL   , 7
        .byte   W07
        .byte           VOICE , 127
        .byte   W01
        .byte           N07   , Cs4 , v100
        .byte   W16
        .byte                   Cs4
        .byte   W16
        .byte                   An4
        .byte   W08
        .byte                   Gs4
        .byte   W08
        .byte                   Cs4
        .byte   W16
        .byte                   Cs4
        .byte   W16
        .byte                   An4
        .byte   W08
@ 035   ----------------------------------------
        .byte   PATT
         .word  mus_pkmn_bw12_154_1_4
@ 036   ----------------------------------------
        .byte   PATT
         .word  mus_pkmn_bw12_154_1_4
@ 037   ----------------------------------------
        .byte   PATT
         .word  mus_pkmn_bw12_154_1_4
@ 038   ----------------------------------------
        .byte   PATT
         .word  mus_pkmn_bw12_154_1_4
@ 039   ----------------------------------------
        .byte   PATT
         .word  mus_pkmn_bw12_154_1_4
@ 040   ----------------------------------------
        .byte           VOL   , 8
        .byte           PAN   , c_v-60
        .byte   GOTO
         .word  mus_pkmn_bw12_154_1_LOOP
        .byte   FINE

@****************** Track 2 (Midi-Chn.2) ******************@

mus_pkmn_bw12_154_2:
        .byte   KEYSH , mus_pkmn_bw12_154_key+0
@ 000   ----------------------------------------
        .byte           VOICE , 23
        .byte           LFOS  , 44
        .byte           BENDR , 12
        .byte           VOL   , 85
        .byte           N07   , Cs3 , v127
        .byte           N07   , Cs4
        .byte   W08
        .byte                   Gs2
        .byte           N07   , Gs3
        .byte   W08
        .byte                   Cs3
        .byte           N07   , Cs4
        .byte   W08
        .byte                   Cn3
        .byte           N07   , Cn4
        .byte   W08
        .byte                   Gn2
        .byte           N07   , Gn3
        .byte   W08
        .byte                   Cn3
        .byte           N07   , Cn4
        .byte   W08
        .byte                   Bn2
        .byte           N07   , Bn3
        .byte   W08
        .byte                   Fs2
        .byte           N07   , Fs3
        .byte   W08
        .byte                   Bn2
        .byte           N07   , Bn3
        .byte   W08
        .byte                   As2
        .byte           N07   , As3
        .byte   W08
        .byte                   Fn2
        .byte           N07   , Fn3
        .byte   W08
        .byte                   As2
        .byte           N07   , As3
        .byte   W08
@ 001   ----------------------------------------
        .byte                   An2
        .byte           N07   , An3
        .byte   W08
        .byte                   En2
        .byte           N07   , En3
        .byte   W08
        .byte                   An2
        .byte           N07   , An3
        .byte   W08
        .byte                   Gs2
        .byte           N07   , Gs3
        .byte   W08
        .byte                   Ds2
        .byte           N07   , Ds3
        .byte   W08
        .byte                   Gs2
        .byte           N07   , Gs3
        .byte   W08
        .byte                   Gn2
        .byte           N07   , Gn3
        .byte   W08
        .byte                   Dn2
        .byte           N07   , Dn3
        .byte   W08
        .byte                   Gn2
        .byte           N07   , Gn3
        .byte   W08
        .byte                   Fs2
        .byte           N07   , Fs3
        .byte   W08
        .byte                   Cs2
        .byte           N07   , Cs3
        .byte   W08
        .byte                   Fs2
        .byte           N07   , Fs3
        .byte   W08
@ 002   ----------------------------------------
        .byte                   Fn2
        .byte           N07   , Fn3
        .byte   W08
        .byte                   Cn2
        .byte           N07   , Cn3
        .byte   W08
        .byte                   Fn2
        .byte           N07   , Fn3
        .byte   W08
        .byte                   En2
        .byte           N07   , En3
        .byte   W08
        .byte                   Bn1
        .byte           N07   , Bn2
        .byte   W08
        .byte                   En2
        .byte           N07   , En3
        .byte   W08
        .byte                   Ds2
        .byte           N07   , Ds3
        .byte   W08
        .byte                   As1
        .byte           N07   , As2
        .byte   W08
        .byte                   Ds2
        .byte           N07   , Ds3
        .byte   W08
        .byte                   Dn2
        .byte           N07   , Dn3
        .byte   W08
        .byte                   An1
        .byte           N07   , An2
        .byte   W08
        .byte           N05   , Dn2
        .byte           N07   , Dn3
        .byte   W07
        .byte           VOICE , 61
        .byte   W01
@ 003   ----------------------------------------
        .byte           N90   , Cs1 , v108
        .byte           N90   , Cs2 , v127
        .byte   W06
        .byte           VOL   , 74
        .byte   W02
        .byte                   62
        .byte   W02
        .byte                   54
        .byte   W02
        .byte                   43
        .byte   W02
        .byte                   35
        .byte   W02
        .byte                   26
        .byte   W02
        .byte                   21
        .byte   W02
        .byte                   15
        .byte   W04
        .byte                   17
        .byte   W02
        .byte                   19
        .byte   W02
        .byte                   21
        .byte   W02
        .byte                   22
        .byte   W02
        .byte                   24
        .byte   W04
        .byte                   26
        .byte   W02
        .byte                   29
        .byte   W02
        .byte                   31
        .byte   W02
        .byte                   33
        .byte   W02
        .byte                   35
        .byte   W04
        .byte                   37
        .byte   W02
        .byte                   40
        .byte   W02
        .byte                   43
        .byte   W02
        .byte                   46
        .byte   W02
        .byte                   48
        .byte   W04
        .byte                   51
        .byte   W02
        .byte                   54
        .byte   W02
        .byte                   56
        .byte   W02
        .byte                   59
        .byte   W02
        .byte                   62
        .byte   W04
        .byte                   65
        .byte   W02
        .byte                   68
        .byte   W02
        .byte                   71
        .byte   W02
        .byte                   74
        .byte   W02
        .byte                   78
        .byte   W04
        .byte                   80
        .byte   W02
        .byte                   85
        .byte   W10
@ 004   ----------------------------------------
        .byte                   29
        .byte   W48
        .byte           PAN   , c_v-25
        .byte           BEND  , c_v-1
        .byte   W12
        .byte           N32   , Cs3
        .byte   W36
@ 005   ----------------------------------------
        .byte           N11   , Dn3
        .byte   W60
        .byte           N32   , Gs2
        .byte   W36
@ 006   ----------------------------------------
        .byte           N11   , An2
        .byte   W60
        .byte           N32   , Cs2
        .byte   W36
@ 007   ----------------------------------------
        .byte           N11   , Dn2
        .byte   W96
@ 008   ----------------------------------------
        .byte   W24
        .byte                   Fn3
        .byte   W12
        .byte                   Cs3
        .byte   W12
        .byte                   Ds3
        .byte   W24
        .byte                   An2
        .byte   W18
        .byte                   Cn3
        .byte   W06
@ 009   ----------------------------------------
        .byte   W12
        .byte                   Ds3
        .byte   W84
@ 010   ----------------------------------------
        .byte   W60
        .byte                   Cn3
        .byte   W12
        .byte                   As2
        .byte   W12
        .byte                   Gs2
        .byte   W12
@ 011   ----------------------------------------
        .byte   W12
        .byte                   En2
        .byte   W18
        .byte                   An2
        .byte   W18
        .byte                   En2
        .byte   W48
@ 012   ----------------------------------------
        .byte   W42
        .byte                   Fn3
        .byte   W12
        .byte                   Cn3
        .byte   W12
        .byte                   Ds3
        .byte   W24
        .byte                   An2
        .byte   W06
@ 013   ----------------------------------------
        .byte   W12
        .byte                   Cn3
        .byte   W18
        .byte                   An2
        .byte   W66
@ 014   ----------------------------------------
        .byte           VOICE , 23
        .byte           PAN   , c_v-24
        .byte           VOL   , 85
        .byte           BEND  , c_v+0
        .byte           TIE   , Cs3
        .byte   W96
@ 015   ----------------------------------------
mus_pkmn_bw12_154_2_15:
        .byte   W68
        .byte   W03
        .byte           EOT   , Cs3
        .byte   W01
        .byte           N15   , An3 , v127
        .byte   W16
        .byte           N07   , Gs3 , v116
        .byte   W08
        .byte   PEND
@ 016   ----------------------------------------
        .byte           N92   , Bn3 , v127
        .byte   W96
@ 017   ----------------------------------------
mus_pkmn_bw12_154_2_17:
        .byte           N60   , An3 , v127
        .byte   W64
        .byte           N07   , Gs3 , v120
        .byte   W08
        .byte           N15   , Fs3 , v127
        .byte   W16
        .byte           N07   , An3 , v120
        .byte   W08
        .byte   PEND
@ 018   ----------------------------------------
        .byte           N92   , Gs3 , v127
        .byte   W96
@ 019   ----------------------------------------
        .byte                   Cs3
        .byte   W96
@ 020   ----------------------------------------
mus_pkmn_bw12_154_2_LOOP:
        .byte           TIE   , Dn3 , v127
        .byte   W96
@ 021   ----------------------------------------
        .byte   W68
        .byte   W03
        .byte           EOT
        .byte   W01
        .byte           N15   , As3
        .byte   W16
        .byte           N07   , An3 , v116
        .byte   W08
@ 022   ----------------------------------------
        .byte           N92   , Cn4 , v127
        .byte   W96
@ 023   ----------------------------------------
        .byte           N60   , As3
        .byte   W64
        .byte           N07   , An3 , v120
        .byte   W08
        .byte           N15   , Gn3 , v127
        .byte   W16
        .byte           N07   , As3 , v116
        .byte   W08
@ 024   ----------------------------------------
        .byte           N92   , An3 , v127
        .byte   W96
@ 025   ----------------------------------------
        .byte                   Dn4
        .byte   W96
@ 026   ----------------------------------------
        .byte           VOL   , 46
        .byte           N92   , As2
        .byte   W08
        .byte           VOL   , 50
        .byte   W08
        .byte                   52
        .byte   W08
        .byte                   56
        .byte   W08
        .byte                   61
        .byte   W08
        .byte                   66
        .byte   W08
        .byte                   72
        .byte   W08
        .byte                   78
        .byte   W08
        .byte                   85
        .byte   W32
@ 027   ----------------------------------------
        .byte                   46
        .byte           N92   , Gn2
        .byte   W08
        .byte           VOL   , 50
        .byte   W08
        .byte                   52
        .byte   W08
        .byte                   56
        .byte   W08
        .byte                   61
        .byte   W08
        .byte                   66
        .byte   W08
        .byte                   72
        .byte   W08
        .byte                   78
        .byte   W08
        .byte                   85
        .byte   W32
@ 028   ----------------------------------------
        .byte           N11   , Fs2
        .byte   W16
        .byte                   Fs2 , v060
        .byte   W16
        .byte                   Fs2 , v028
        .byte   W16
        .byte                   Fs2 , v008
        .byte   W48
@ 029   ----------------------------------------
        .byte   W96
@ 030   ----------------------------------------
        .byte           VOL   , 46
        .byte           N92   , As2 , v127
        .byte           N92   , Ds4 , v088
        .byte   W08
        .byte           VOL   , 50
        .byte   W08
        .byte                   52
        .byte   W08
        .byte                   56
        .byte   W08
        .byte                   61
        .byte   W08
        .byte                   66
        .byte   W08
        .byte                   72
        .byte   W08
        .byte                   78
        .byte   W08
        .byte                   85
        .byte   W32
@ 031   ----------------------------------------
        .byte                   46
        .byte           N92   , Ds3 , v127
        .byte           N92   , Gn4 , v088
        .byte   W08
        .byte           VOL   , 50
        .byte   W08
        .byte                   52
        .byte   W08
        .byte                   56
        .byte   W08
        .byte                   61
        .byte   W08
        .byte                   66
        .byte   W08
        .byte                   72
        .byte   W08
        .byte                   78
        .byte   W08
        .byte                   85
        .byte   W32
@ 032   ----------------------------------------
        .byte           N11   , Dn3 , v127
        .byte           N11   , Fs4 , v088
        .byte           N07   , An4 , v056
        .byte   W08
        .byte                   Dn5
        .byte   W08
        .byte           N11   , Dn3 , v060
        .byte           N11   , Fs4
        .byte           N07   , Gs4 , v056
        .byte   W08
        .byte                   Cs5
        .byte   W08
        .byte           N11   , Dn3 , v028
        .byte           N11   , Fs4
        .byte           N07   , Gn4 , v056
        .byte   W08
        .byte                   Cn5
        .byte   W08
        .byte           N11   , Dn3 , v008
        .byte           N07   , Fs4 , v092
        .byte   W08
        .byte                   Bn4 , v056
        .byte   W08
        .byte                   Fn4
        .byte   W08
        .byte                   As4
        .byte   W08
        .byte                   En4
        .byte   W08
        .byte                   Gs4
        .byte   W08
@ 033   ----------------------------------------
        .byte                   Ds4 , v068
        .byte   W08
        .byte                   Gn4
        .byte   W08
        .byte                   Dn4 , v072
        .byte   W08
        .byte                   Fs4 , v080
        .byte   W08
        .byte                   Cs4 , v084
        .byte   W08
        .byte                   Fn4 , v088
        .byte   W08
        .byte                   Cn4 , v092
        .byte   W08
        .byte                   En4 , v096
        .byte   W08
        .byte                   Bn3 , v100
        .byte   W08
        .byte                   Ds4 , v104
        .byte   W08
        .byte                   As3 , v112
        .byte   W08
        .byte                   Dn4
        .byte   W08
@ 034   ----------------------------------------
        .byte           TIE   , Cs3 , v127
        .byte   W96
@ 035   ----------------------------------------
        .byte   PATT
         .word  mus_pkmn_bw12_154_2_15
@ 036   ----------------------------------------
        .byte           N92   , Bn3 , v127
        .byte   W96
@ 037   ----------------------------------------
        .byte   PATT
         .word  mus_pkmn_bw12_154_2_17
@ 038   ----------------------------------------
        .byte           N92   , Gs3 , v127
        .byte   W96
@ 039   ----------------------------------------
        .byte                   Cs3
        .byte   W96
@ 040   ----------------------------------------
        .byte   GOTO
         .word  mus_pkmn_bw12_154_2_LOOP
        .byte   FINE

@****************** Track 3 (Midi-Chn.3) ******************@

mus_pkmn_bw12_154_3:
        .byte   KEYSH , mus_pkmn_bw12_154_key+0
@ 000   ----------------------------------------
        .byte           VOICE , 105
        .byte           LFOS  , 44
        .byte           BENDR , 12
        .byte           VOL   , 76
        .byte           PAN   , c_v+46
        .byte           N07   , Cs0 , v100
        .byte           N07   , Cs1
        .byte   W48
        .byte           N05   , Cs0
        .byte           N05   , Cs1
        .byte   W08
        .byte                   Cs0
        .byte           N05   , Cs1
        .byte   W40
@ 001   ----------------------------------------
        .byte   W48
        .byte           PAN   , c_v-49
        .byte           N07   , Cs0
        .byte           N07   , Cs1
        .byte   W48
@ 002   ----------------------------------------
        .byte   W24
        .byte           PAN   , c_v+46
        .byte           N07   , Cs0
        .byte           N07   , Cs1
        .byte   W24
        .byte           PAN   , c_v-49
        .byte           N07   , Cs0
        .byte           N07   , Cs1
        .byte   W44
        .byte           VOICE , 29
        .byte   W04
@ 003   ----------------------------------------
        .byte           PAN   , c_v+46
        .byte           N92   , Cs2
        .byte   W01
        .byte                   Cs1
        .byte   W03
        .byte           VOL   , 74
        .byte   W02
        .byte                   65
        .byte   W02
        .byte                   54
        .byte   W02
        .byte                   46
        .byte   W02
        .byte                   35
        .byte   W02
        .byte                   29
        .byte   W02
        .byte                   9
        .byte   W04
        .byte                   11
        .byte   W02
        .byte                   12
        .byte   W02
        .byte                   13
        .byte   W02
        .byte                   15
        .byte   W02
        .byte                   17
        .byte   W02
        .byte                   19
        .byte   W02
        .byte                   21
        .byte   W02
        .byte                   22
        .byte   W02
        .byte                   24
        .byte   W02
        .byte                   26
        .byte   W02
        .byte                   29
        .byte   W02
        .byte                   31
        .byte   W02
        .byte                   33
        .byte   W02
        .byte                   35
        .byte   W02
        .byte                   37
        .byte   W02
        .byte                   40
        .byte   W02
        .byte                   43
        .byte   W04
        .byte                   46
        .byte   W02
        .byte                   48
        .byte   W02
        .byte                   51
        .byte   W02
        .byte                   54
        .byte   W02
        .byte                   56
        .byte   W02
        .byte                   59
        .byte   W02
        .byte                   62
        .byte   W02
        .byte                   65
        .byte   W02
        .byte                   68
        .byte   W02
        .byte                   71
        .byte   W02
        .byte                   74
        .byte   W02
        .byte                   78
        .byte   W02
        .byte                   80
        .byte   W02
        .byte                   85
        .byte   W13
        .byte           VOICE , 61
        .byte   W01
@ 004   ----------------------------------------
        .byte   W24
        .byte           PAN   , c_v+40
        .byte   W24
        .byte           N23   , Cs2 , v127
        .byte           N23   , Cs3 , v072
        .byte   W24
        .byte           N11   , Dn2 , v127
        .byte           N11   , Dn3 , v072
        .byte   W24
@ 005   ----------------------------------------
        .byte   W36
        .byte           N32   , Gs1 , v127
        .byte           N32   , Gs2 , v072
        .byte   W36
        .byte           N11   , An1 , v127
        .byte           N11   , An2 , v072
        .byte   W24
@ 006   ----------------------------------------
        .byte   W36
        .byte           N32   , Cs1 , v127
        .byte           N32   , Cs2 , v072
        .byte   W36
        .byte           N11   , Dn1 , v127
        .byte           N11   , Dn2 , v072
        .byte   W24
@ 007   ----------------------------------------
        .byte   W96
@ 008   ----------------------------------------
        .byte                   Fn2 , v127
        .byte           N11   , Fn3 , v072
        .byte   W12
        .byte                   Cs2 , v127
        .byte           N11   , Cs3 , v072
        .byte   W12
        .byte                   Ds2 , v127
        .byte           N11   , Ds3 , v072
        .byte   W24
        .byte                   An1 , v127
        .byte           N11   , An2 , v072
        .byte   W18
        .byte                   Cn2 , v127
        .byte           N11   , Cn3 , v072
        .byte   W18
        .byte                   Ds2 , v127
        .byte           N11   , Ds3 , v072
        .byte   W12
@ 009   ----------------------------------------
        .byte   W96
@ 010   ----------------------------------------
        .byte   W36
        .byte                   Cn2 , v127
        .byte           N11   , Cn3 , v072
        .byte   W12
        .byte                   As1 , v127
        .byte           N11   , As2 , v072
        .byte   W12
        .byte                   Gs1 , v127
        .byte           N11   , Gs2 , v072
        .byte   W24
        .byte                   En1 , v127
        .byte           N11   , En2 , v072
        .byte   W12
@ 011   ----------------------------------------
        .byte   W06
        .byte                   As1 , v127
        .byte           N11   , As2 , v072
        .byte   W18
        .byte                   En1 , v127
        .byte           N11   , En2 , v072
        .byte   W72
@ 012   ----------------------------------------
        .byte   W18
        .byte                   Fn2 , v127
        .byte           N11   , Fn3 , v072
        .byte   W12
        .byte                   Cs2 , v127
        .byte           N11   , Cs3 , v072
        .byte   W12
        .byte                   Ds2 , v127
        .byte           N11   , Ds3 , v072
        .byte   W24
        .byte                   An1 , v127
        .byte           N11   , An2 , v072
        .byte   W18
        .byte                   Cn2 , v127
        .byte           N11   , Cn3 , v072
        .byte   W12
@ 013   ----------------------------------------
        .byte   W06
        .byte                   An1 , v127
        .byte           N11   , An2 , v072
        .byte   W88
        .byte   W01
        .byte           VOICE , 32
        .byte   W01
@ 014   ----------------------------------------
        .byte           PAN   , c_v+6
        .byte           TIE   , Cs2 , v127
        .byte   W96
@ 015   ----------------------------------------
        .byte   W68
        .byte   W03
        .byte           EOT
        .byte   W01
        .byte           N15   , An2
        .byte   W16
        .byte           N07   , Gs2
        .byte   W08
@ 016   ----------------------------------------
        .byte           N92   , Bn2
        .byte   W96
@ 017   ----------------------------------------
        .byte           N60   , An2
        .byte   W64
        .byte           N07   , Gs2
        .byte   W08
        .byte           N15   , Fs2
        .byte   W16
        .byte           N07   , An2
        .byte   W08
@ 018   ----------------------------------------
        .byte           N92   , Gs2
        .byte   W96
@ 019   ----------------------------------------
        .byte                   Cs2
        .byte   W96
@ 020   ----------------------------------------
mus_pkmn_bw12_154_3_LOOP:
        .byte           PAN   , c_v+0
        .byte           TIE   , Dn2 , v127
        .byte           TIE   , An2
        .byte   W96
@ 021   ----------------------------------------
        .byte   W68
        .byte   W03
        .byte           EOT   , Dn2
        .byte                   An2
        .byte   W01
        .byte           N15   , As2
        .byte           N15   , Fn3
        .byte   W16
        .byte           N07   , An2
        .byte           N07   , En3
        .byte   W08
@ 022   ----------------------------------------
        .byte           N92   , Cn3
        .byte           N92   , Gn3
        .byte   W96
@ 023   ----------------------------------------
        .byte           N60   , As2
        .byte           N60   , Fn3
        .byte   W64
        .byte           N07   , An2
        .byte           N07   , En3
        .byte   W08
        .byte           N15   , Gn2
        .byte           N15   , Dn3
        .byte   W16
        .byte           N07   , As2
        .byte           N07   , Fn3
        .byte   W08
@ 024   ----------------------------------------
        .byte           N92   , An2
        .byte           N92   , En3
        .byte   W96
@ 025   ----------------------------------------
        .byte                   Cn3
        .byte           N92   , Fn3
        .byte   W96
@ 026   ----------------------------------------
        .byte           VOL   , 46
        .byte           N92   , Gn2
        .byte           N92   , Ds3
        .byte   W08
        .byte           VOL   , 50
        .byte   W08
        .byte                   52
        .byte   W08
        .byte                   56
        .byte   W08
        .byte                   61
        .byte   W08
        .byte                   66
        .byte   W08
        .byte                   72
        .byte   W08
        .byte                   78
        .byte   W08
        .byte                   85
        .byte   W32
@ 027   ----------------------------------------
        .byte                   46
        .byte           N92   , Ds2
        .byte           N92   , Cn3
        .byte   W08
        .byte           VOL   , 50
        .byte   W08
        .byte                   52
        .byte   W08
        .byte                   56
        .byte   W08
        .byte                   61
        .byte   W08
        .byte                   66
        .byte   W08
        .byte                   72
        .byte   W08
        .byte                   78
        .byte   W08
        .byte                   85
        .byte   W32
@ 028   ----------------------------------------
        .byte           N11   , Fs2
        .byte           N11   , Dn3
        .byte   W16
        .byte                   Fs2 , v060
        .byte           N11   , Dn3
        .byte   W16
        .byte                   Fs2 , v028
        .byte           N11   , Dn3
        .byte   W16
        .byte                   Fs2 , v008
        .byte           N11   , Dn3
        .byte   W48
@ 029   ----------------------------------------
        .byte   W96
@ 030   ----------------------------------------
        .byte           VOL   , 46
        .byte           N92   , Ds3 , v127
        .byte   W08
        .byte           VOL   , 50
        .byte   W08
        .byte                   52
        .byte   W08
        .byte                   56
        .byte   W08
        .byte                   61
        .byte   W08
        .byte                   66
        .byte   W08
        .byte                   72
        .byte   W08
        .byte                   78
        .byte   W08
        .byte                   85
        .byte   W32
@ 031   ----------------------------------------
        .byte                   46
        .byte           N92   , Gn3
        .byte   W08
        .byte           VOL   , 50
        .byte   W08
        .byte                   52
        .byte   W08
        .byte                   56
        .byte   W08
        .byte                   61
        .byte   W08
        .byte                   66
        .byte   W08
        .byte                   72
        .byte   W08
        .byte                   78
        .byte   W08
        .byte                   85
        .byte   W32
@ 032   ----------------------------------------
        .byte           N11   , Fs3
        .byte   W16
        .byte                   Fs3 , v060
        .byte   W16
        .byte                   Fs3 , v028
        .byte   W16
        .byte                   Fs3 , v008
        .byte   W48
@ 033   ----------------------------------------
        .byte   W96
@ 034   ----------------------------------------
        .byte           TIE   , Cs2 , v127
        .byte           TIE   , Gs2
        .byte   W96
@ 035   ----------------------------------------
        .byte   W68
        .byte   W03
        .byte           EOT   , Cs2
        .byte                   Gs2
        .byte   W01
        .byte           N15   , An2
        .byte           N15   , Dn3
        .byte   W16
        .byte           N07   , Gs2
        .byte           N07   , Cs3
        .byte   W08
@ 036   ----------------------------------------
        .byte           N92   , Bn2
        .byte           N92   , En3
        .byte   W96
@ 037   ----------------------------------------
        .byte           N60   , An2
        .byte           N60   , Dn3
        .byte   W64
        .byte           N07   , Gs2
        .byte           N07   , Cs3
        .byte   W08
        .byte           N15   , Fs2
        .byte           N15   , Bn2
        .byte   W16
        .byte           N07   , An2
        .byte           N07   , Dn3
        .byte   W08
@ 038   ----------------------------------------
        .byte           N92   , Gs2
        .byte           N92   , Cs3
        .byte   W96
@ 039   ----------------------------------------
        .byte                   Cs2
        .byte           N92   , Gs2
        .byte   W96
@ 040   ----------------------------------------
        .byte   GOTO
         .word  mus_pkmn_bw12_154_3_LOOP
        .byte   FINE

@****************** Track 4 (Midi-Chn.4) ******************@

mus_pkmn_bw12_154_4:
        .byte   KEYSH , mus_pkmn_bw12_154_key+0
@ 000   ----------------------------------------
        .byte           VOICE , 23
        .byte           LFOS  , 44
        .byte           BENDR , 12
        .byte           PAN   , c_v-64
        .byte           VOL   , 85
        .byte   W08
        .byte           N07   , Cs4 , v100
        .byte   W08
        .byte                   Gs3
        .byte   W08
        .byte                   Cs4
        .byte   W08
        .byte                   Cn4
        .byte   W08
        .byte                   Gn3
        .byte   W08
        .byte                   Cn4
        .byte   W08
        .byte                   Bn3
        .byte   W08
        .byte                   Fs3
        .byte   W08
        .byte                   Bn3
        .byte   W08
        .byte                   As3
        .byte   W08
        .byte                   Fn3
        .byte   W08
@ 001   ----------------------------------------
        .byte                   As3
        .byte   W08
        .byte                   An3
        .byte   W08
        .byte                   En3
        .byte   W08
        .byte                   An3
        .byte   W08
        .byte                   Gs3
        .byte   W08
        .byte                   Ds3
        .byte   W08
        .byte                   Gs3
        .byte   W08
        .byte                   Gn3
        .byte   W08
        .byte                   Dn3
        .byte   W08
        .byte                   Gn3
        .byte   W08
        .byte                   Fs3
        .byte   W08
        .byte                   Cs3
        .byte   W08
@ 002   ----------------------------------------
        .byte                   Fs3
        .byte   W08
        .byte                   Fn3
        .byte   W08
        .byte                   Cn3
        .byte   W08
        .byte                   Fn3
        .byte   W08
        .byte                   En3
        .byte   W08
        .byte                   Bn2
        .byte   W08
        .byte                   En3
        .byte   W08
        .byte                   Ds3
        .byte   W08
        .byte                   As2
        .byte   W08
        .byte                   Ds3
        .byte   W08
        .byte                   Dn3
        .byte   W08
        .byte                   An2
        .byte   W08
@ 003   ----------------------------------------
        .byte                   Dn3
        .byte   W96
@ 004   ----------------------------------------
        .byte   W07
        .byte           VOICE , 61
        .byte   W01
        .byte           VOL   , 42
        .byte   W32
        .byte           PAN   , c_v+60
        .byte   W08
        .byte           BEND  , c_v-1
        .byte   W20
        .byte           N32   , Cs3 , v127
        .byte   W28
@ 005   ----------------------------------------
        .byte   W08
        .byte           N11   , Dn3
        .byte   W60
        .byte           N32   , Gs2
        .byte   W28
@ 006   ----------------------------------------
        .byte   W08
        .byte           N11   , An2
        .byte   W60
        .byte           N32   , Cs2
        .byte   W28
@ 007   ----------------------------------------
        .byte   W08
        .byte           N11   , Dn2
        .byte   W88
@ 008   ----------------------------------------
        .byte   W32
        .byte                   Fn3
        .byte   W12
        .byte                   Cs3
        .byte   W12
        .byte                   Ds3
        .byte   W24
        .byte                   An2
        .byte   W16
@ 009   ----------------------------------------
        .byte   W02
        .byte                   Cn3
        .byte   W18
        .byte                   Ds3
        .byte   W76
@ 010   ----------------------------------------
        .byte   W68
        .byte                   Cn3
        .byte   W12
        .byte                   As2
        .byte   W12
        .byte                   Gs2
        .byte   W04
@ 011   ----------------------------------------
        .byte   W20
        .byte                   En2
        .byte   W18
        .byte                   An2
        .byte   W18
        .byte                   En2
        .byte   W40
@ 012   ----------------------------------------
        .byte   W48
        .byte   W02
        .byte                   Fn3
        .byte   W12
        .byte                   Cn3
        .byte   W12
        .byte                   Ds3
        .byte   W22
@ 013   ----------------------------------------
        .byte   W02
        .byte                   An2
        .byte   W18
        .byte                   Cn3
        .byte   W18
        .byte                   An2
        .byte   W56
        .byte   W02
@ 014   ----------------------------------------
        .byte           BEND  , c_v+0
        .byte   W05
        .byte           VOICE , 23
        .byte   W03
        .byte           TIE   , Cs3
        .byte   W88
@ 015   ----------------------------------------
mus_pkmn_bw12_154_4_15:
        .byte   W78
        .byte   W01
        .byte           EOT   , Cs3
        .byte   W01
        .byte           N15   , An3 , v127
        .byte   W16
        .byte   PEND
@ 016   ----------------------------------------
mus_pkmn_bw12_154_4_16:
        .byte           N07   , Gs3 , v116
        .byte   W08
        .byte           N92   , Bn3 , v127
        .byte   W88
        .byte   PEND
@ 017   ----------------------------------------
mus_pkmn_bw12_154_4_17:
        .byte   W08
        .byte           N60   , An3 , v127
        .byte   W64
        .byte           N07   , Gs3 , v120
        .byte   W08
        .byte           N15   , Fs3 , v127
        .byte   W16
        .byte   PEND
@ 018   ----------------------------------------
mus_pkmn_bw12_154_4_18:
        .byte           N07   , An3 , v120
        .byte   W08
        .byte           N92   , Gs3 , v127
        .byte   W88
        .byte   PEND
@ 019   ----------------------------------------
        .byte   W08
        .byte                   Cs3
        .byte   W88
@ 020   ----------------------------------------
mus_pkmn_bw12_154_4_LOOP:
        .byte   W08
        .byte           TIE   , Dn3 , v127
        .byte   W88
@ 021   ----------------------------------------
        .byte   W78
        .byte   W01
        .byte           EOT
        .byte   W01
        .byte           N15   , As3
        .byte   W16
@ 022   ----------------------------------------
        .byte           N07   , An3 , v116
        .byte   W08
        .byte           N92   , Cn4 , v127
        .byte   W88
@ 023   ----------------------------------------
        .byte   W08
        .byte           N60   , As3
        .byte   W64
        .byte           N07   , An3 , v120
        .byte   W08
        .byte           N15   , Gn3 , v127
        .byte   W16
@ 024   ----------------------------------------
        .byte           N07   , As3 , v116
        .byte   W08
        .byte           N92   , An3 , v127
        .byte   W88
@ 025   ----------------------------------------
        .byte   W08
        .byte                   Dn4
        .byte   W88
@ 026   ----------------------------------------
mus_pkmn_bw12_154_4_26:
        .byte   W08
        .byte           VOL   , 4
        .byte           N92   , Ds3 , v127
        .byte   W08
        .byte           VOL   , 6
        .byte   W08
        .byte                   7
        .byte   W08
        .byte                   9
        .byte   W08
        .byte                   11
        .byte   W08
        .byte                   14
        .byte   W08
        .byte                   17
        .byte   W08
        .byte                   21
        .byte   W08
        .byte                   25
        .byte   W24
        .byte   PEND
@ 027   ----------------------------------------
        .byte   W08
        .byte                   4
        .byte           N92   , Cn3
        .byte   W08
        .byte           VOL   , 6
        .byte   W08
        .byte                   7
        .byte   W08
        .byte                   9
        .byte   W08
        .byte                   11
        .byte   W08
        .byte                   14
        .byte   W08
        .byte                   17
        .byte   W08
        .byte                   21
        .byte   W08
        .byte                   25
        .byte   W24
@ 028   ----------------------------------------
        .byte   W08
        .byte           N11   , Dn3
        .byte   W16
        .byte                   Dn3 , v060
        .byte   W16
        .byte                   Dn3 , v028
        .byte   W16
        .byte                   Dn3 , v008
        .byte   W40
@ 029   ----------------------------------------
        .byte   W96
@ 030   ----------------------------------------
        .byte   PATT
         .word  mus_pkmn_bw12_154_4_26
@ 031   ----------------------------------------
        .byte   W08
        .byte           VOL   , 4
        .byte           N92   , Gn3 , v127
        .byte   W08
        .byte           VOL   , 6
        .byte   W08
        .byte                   7
        .byte   W08
        .byte                   9
        .byte   W08
        .byte                   11
        .byte   W08
        .byte                   14
        .byte   W08
        .byte                   17
        .byte   W08
        .byte                   21
        .byte   W08
        .byte                   25
        .byte   W24
@ 032   ----------------------------------------
        .byte   W08
        .byte           N11   , Fs3
        .byte   W16
        .byte                   Fs3 , v060
        .byte   W16
        .byte                   Fs3 , v028
        .byte   W16
        .byte                   Fs3 , v008
        .byte   W40
@ 033   ----------------------------------------
        .byte   W96
@ 034   ----------------------------------------
        .byte   W08
        .byte           TIE   , Cs3 , v127
        .byte   W88
@ 035   ----------------------------------------
        .byte   PATT
         .word  mus_pkmn_bw12_154_4_15
@ 036   ----------------------------------------
        .byte   PATT
         .word  mus_pkmn_bw12_154_4_16
@ 037   ----------------------------------------
        .byte   PATT
         .word  mus_pkmn_bw12_154_4_17
@ 038   ----------------------------------------
        .byte   PATT
         .word  mus_pkmn_bw12_154_4_18
@ 039   ----------------------------------------
        .byte   W08
        .byte           N84   , Cs3 , v127
        .byte   W88
@ 040   ----------------------------------------
        .byte           VOL   , 42
        .byte   GOTO
         .word  mus_pkmn_bw12_154_4_LOOP
        .byte   FINE

@****************** Track 5 (Midi-Chn.5) ******************@

mus_pkmn_bw12_154_5:
        .byte   KEYSH , mus_pkmn_bw12_154_key+0
@ 000   ----------------------------------------
        .byte           VOICE , 100
        .byte           LFOS  , 44
        .byte           BENDR , 12
        .byte           PAN   , c_v+15
        .byte           VOL   , 78
        .byte           N44   , Gn1 , v116
        .byte   W96
@ 001   ----------------------------------------
        .byte   W96
@ 002   ----------------------------------------
        .byte   W96
@ 003   ----------------------------------------
        .byte           N88   , Cs2
        .byte   W72
        .byte           PAN   , c_v+45
        .byte           VOL   , 72
        .byte   W24
@ 004   ----------------------------------------
        .byte           N01   , Cs2 , v048
        .byte   W04
        .byte                   Cs2
        .byte   W04
        .byte                   Cs2
        .byte   W04
        .byte                   Cs2 , v064
        .byte   W04
        .byte                   Cs2 , v076
        .byte   W04
        .byte                   Cs2 , v096
        .byte   W04
        .byte                   Gs2
        .byte   W04
        .byte                   Gs2 , v076
        .byte   W04
        .byte                   Gs2 , v112
        .byte   W04
        .byte                   Gs2
        .byte   W04
        .byte                   Gs2 , v088
        .byte   W04
        .byte                   Gs2 , v124
        .byte   W04
        .byte           N23   , Gs1 , v127
        .byte           N23   , Cs2
        .byte   W24
        .byte                   Cn2 , v088
        .byte   W24
@ 005   ----------------------------------------
        .byte                   Cs2 , v116
        .byte   W24
        .byte                   Cs2 , v080
        .byte   W24
        .byte                   Cs2
        .byte   W24
        .byte                   Dn2 , v084
        .byte   W24
@ 006   ----------------------------------------
        .byte                   Cs2 , v116
        .byte   W24
        .byte                   Cs2 , v084
        .byte   W24
        .byte                   Cs2 , v072
        .byte   W24
        .byte                   Cn2 , v076
        .byte   W24
@ 007   ----------------------------------------
        .byte                   Cs2 , v116
        .byte   W24
        .byte                   Cs2 , v076
        .byte   W24
        .byte                   Cs2 , v068
        .byte   W24
        .byte                   Dn2 , v084
        .byte   W24
@ 008   ----------------------------------------
        .byte           N44   , Cs2 , v116
        .byte   W48
        .byte                   Cs2 , v100
        .byte   W48
@ 009   ----------------------------------------
        .byte                   Cs2 , v116
        .byte   W48
        .byte                   Cs2 , v088
        .byte   W48
@ 010   ----------------------------------------
mus_pkmn_bw12_154_5_10:
        .byte           N44   , Cs2 , v116
        .byte   W48
        .byte                   Cs2
        .byte   W48
        .byte   PEND
@ 011   ----------------------------------------
        .byte                   Cs2 , v092
        .byte   W48
        .byte                   Cs2 , v116
        .byte   W48
@ 012   ----------------------------------------
        .byte                   Cs2
        .byte   W48
        .byte                   Cs2 , v076
        .byte   W48
@ 013   ----------------------------------------
        .byte                   Cs2 , v116
        .byte   W48
        .byte           N23   , Cs2 , v096
        .byte   W30
        .byte           N03   , Cs2 , v108
        .byte   W06
        .byte                   Cs2 , v080
        .byte   W06
        .byte                   Cs2 , v096
        .byte   W06
@ 014   ----------------------------------------
mus_pkmn_bw12_154_5_14:
        .byte           N23   , Cs2 , v116
        .byte   W24
        .byte                   Cs2
        .byte   W24
        .byte                   Cs2
        .byte   W24
        .byte                   Cn2
        .byte   W24
        .byte   PEND
@ 015   ----------------------------------------
        .byte   PATT
         .word  mus_pkmn_bw12_154_5_14
@ 016   ----------------------------------------
        .byte   PATT
         .word  mus_pkmn_bw12_154_5_14
@ 017   ----------------------------------------
        .byte   PATT
         .word  mus_pkmn_bw12_154_5_14
@ 018   ----------------------------------------
        .byte   PATT
         .word  mus_pkmn_bw12_154_5_14
@ 019   ----------------------------------------
        .byte           N23   , Cs2 , v116
        .byte   W24
        .byte                   Cs2
        .byte   W24
        .byte                   Cs2
        .byte   W48
@ 020   ----------------------------------------
mus_pkmn_bw12_154_5_LOOP:
        .byte           N23   , Cs2 , v116
        .byte   W48
        .byte                   Cs2
        .byte   W48
@ 021   ----------------------------------------
mus_pkmn_bw12_154_5_21:
        .byte           N23   , Cs2 , v116
        .byte   W48
        .byte                   Cs2
        .byte   W48
        .byte   PEND
@ 022   ----------------------------------------
        .byte   PATT
         .word  mus_pkmn_bw12_154_5_21
@ 023   ----------------------------------------
        .byte   PATT
         .word  mus_pkmn_bw12_154_5_21
@ 024   ----------------------------------------
        .byte   PATT
         .word  mus_pkmn_bw12_154_5_21
@ 025   ----------------------------------------
        .byte   PATT
         .word  mus_pkmn_bw12_154_5_21
@ 026   ----------------------------------------
        .byte   PATT
         .word  mus_pkmn_bw12_154_5_21
@ 027   ----------------------------------------
        .byte   PATT
         .word  mus_pkmn_bw12_154_5_21
@ 028   ----------------------------------------
        .byte   PATT
         .word  mus_pkmn_bw12_154_5_21
@ 029   ----------------------------------------
        .byte   PATT
         .word  mus_pkmn_bw12_154_5_21
@ 030   ----------------------------------------
        .byte   PATT
         .word  mus_pkmn_bw12_154_5_21
@ 031   ----------------------------------------
        .byte   PATT
         .word  mus_pkmn_bw12_154_5_21
@ 032   ----------------------------------------
        .byte   PATT
         .word  mus_pkmn_bw12_154_5_10
@ 033   ----------------------------------------
        .byte           N44   , Cs2 , v116
        .byte   W48
        .byte           N23
        .byte   W48
@ 034   ----------------------------------------
        .byte   PATT
         .word  mus_pkmn_bw12_154_5_21
@ 035   ----------------------------------------
        .byte   PATT
         .word  mus_pkmn_bw12_154_5_21
@ 036   ----------------------------------------
        .byte   PATT
         .word  mus_pkmn_bw12_154_5_21
@ 037   ----------------------------------------
        .byte   PATT
         .word  mus_pkmn_bw12_154_5_21
@ 038   ----------------------------------------
        .byte   PATT
         .word  mus_pkmn_bw12_154_5_21
@ 039   ----------------------------------------
        .byte   PATT
         .word  mus_pkmn_bw12_154_5_21
@ 040   ----------------------------------------
        .byte   GOTO
         .word  mus_pkmn_bw12_154_5_LOOP
        .byte   FINE

@****************** Track 6 (Midi-Chn.6) ******************@

mus_pkmn_bw12_154_6:
        .byte   KEYSH , mus_pkmn_bw12_154_key+0
@ 000   ----------------------------------------
        .byte           VOICE , 100
        .byte           LFOS  , 44
        .byte           BENDR , 12
        .byte           PAN   , c_v-18
        .byte           VOL   , 50
        .byte           BEND  , c_v-1
        .byte   W96
@ 001   ----------------------------------------
        .byte   W96
@ 002   ----------------------------------------
        .byte   W96
@ 003   ----------------------------------------
        .byte   W72
        .byte           VOL   , 56
        .byte           PAN   , c_v-52
        .byte   W24
@ 004   ----------------------------------------
        .byte           N01   , Gs1 , v048
        .byte   W04
        .byte                   Gs1
        .byte   W04
        .byte                   Gs1
        .byte   W04
        .byte                   Gs1
        .byte   W04
        .byte                   Gs1
        .byte   W04
        .byte                   Gs1 , v052
        .byte   W04
        .byte                   Cs2 , v064
        .byte   W04
        .byte                   Cs2 , v072
        .byte   W04
        .byte                   Cs2 , v088
        .byte   W04
        .byte                   Cs2 , v112
        .byte   W04
        .byte                   Cs2 , v124
        .byte   W04
        .byte                   Cs2 , v127
        .byte   W04
        .byte           N23   , Dn1
        .byte   W24
        .byte   W03
        .byte                   Gn1 , v108
        .byte   W21
@ 005   ----------------------------------------
        .byte   W03
        .byte                   Gs1 , v116
        .byte   W24
        .byte                   Gs1 , v088
        .byte   W24
        .byte                   Gs1 , v080
        .byte   W24
        .byte                   An1 , v116
        .byte   W21
@ 006   ----------------------------------------
        .byte   W03
        .byte                   Gs1 , v064
        .byte   W24
        .byte                   Gs1 , v072
        .byte   W24
        .byte                   Gs1 , v116
        .byte   W24
        .byte                   Gn1
        .byte   W21
@ 007   ----------------------------------------
        .byte   W03
        .byte                   Gs1 , v072
        .byte   W24
        .byte                   Gs1 , v080
        .byte   W24
        .byte                   Gs1
        .byte   W24
        .byte                   An1 , v116
        .byte   W21
@ 008   ----------------------------------------
        .byte   W03
        .byte           N44   , Gs1 , v068
        .byte   W48
        .byte                   Gs1 , v120
        .byte   W44
        .byte   W01
@ 009   ----------------------------------------
mus_pkmn_bw12_154_6_9:
        .byte   W03
        .byte           N44   , Gs1 , v116
        .byte   W48
        .byte                   Gs1
        .byte   W44
        .byte   W01
        .byte   PEND
@ 010   ----------------------------------------
        .byte   PATT
         .word  mus_pkmn_bw12_154_6_9
@ 011   ----------------------------------------
        .byte   PATT
         .word  mus_pkmn_bw12_154_6_9
@ 012   ----------------------------------------
        .byte   PATT
         .word  mus_pkmn_bw12_154_6_9
@ 013   ----------------------------------------
        .byte   W03
        .byte           N44   , Gs1 , v116
        .byte   W48
        .byte           N23
        .byte   W24
        .byte   W03
        .byte           N03   , Gn1 , v084
        .byte   W06
        .byte                   Gn1 , v048
        .byte   W06
        .byte                   Gn1 , v076
        .byte   W06
@ 014   ----------------------------------------
        .byte   W03
        .byte           N23   , Gs1 , v116
        .byte   W24
        .byte   W03
        .byte           N20   , Gs1 , v092
        .byte   W21
        .byte           N23   , Gs1 , v116
        .byte   W24
        .byte                   Gn1 , v088
        .byte   W21
@ 015   ----------------------------------------
        .byte   W03
        .byte                   Gs1 , v116
        .byte   W24
        .byte                   Gs1 , v084
        .byte   W24
        .byte                   Gs1 , v116
        .byte   W24
        .byte                   Gn1 , v100
        .byte   W21
@ 016   ----------------------------------------
        .byte   W03
        .byte                   Gs1 , v116
        .byte   W24
        .byte                   Gs1 , v076
        .byte   W24
        .byte                   Gs1 , v116
        .byte   W24
        .byte                   Gn1 , v100
        .byte   W21
@ 017   ----------------------------------------
        .byte   W03
        .byte                   Gs1 , v116
        .byte   W24
        .byte                   Gs1 , v100
        .byte   W24
        .byte                   Gs1 , v116
        .byte   W24
        .byte                   Gn1 , v080
        .byte   W21
@ 018   ----------------------------------------
        .byte   W03
        .byte                   Gs1 , v116
        .byte   W24
        .byte                   Gs1 , v076
        .byte   W24
        .byte                   Gs1 , v116
        .byte   W24
        .byte                   Gn1 , v076
        .byte   W21
@ 019   ----------------------------------------
        .byte   W03
        .byte                   Gs1 , v116
        .byte   W24
        .byte                   Gs1 , v068
        .byte   W24
        .byte                   Gs1 , v116
        .byte   W44
        .byte   W01
@ 020   ----------------------------------------
mus_pkmn_bw12_154_6_LOOP:
        .byte   W03
        .byte           N23   , Gs1 , v116
        .byte   W48
        .byte                   Gs1
        .byte   W44
        .byte   W01
@ 021   ----------------------------------------
mus_pkmn_bw12_154_6_21:
        .byte   W03
        .byte           N23   , Gs1 , v116
        .byte   W48
        .byte                   Gs1
        .byte   W44
        .byte   W01
        .byte   PEND
@ 022   ----------------------------------------
        .byte   PATT
         .word  mus_pkmn_bw12_154_6_21
@ 023   ----------------------------------------
        .byte   PATT
         .word  mus_pkmn_bw12_154_6_21
@ 024   ----------------------------------------
        .byte   PATT
         .word  mus_pkmn_bw12_154_6_21
@ 025   ----------------------------------------
        .byte   PATT
         .word  mus_pkmn_bw12_154_6_21
@ 026   ----------------------------------------
        .byte   PATT
         .word  mus_pkmn_bw12_154_6_21
@ 027   ----------------------------------------
        .byte   PATT
         .word  mus_pkmn_bw12_154_6_21
@ 028   ----------------------------------------
        .byte   PATT
         .word  mus_pkmn_bw12_154_6_21
@ 029   ----------------------------------------
        .byte   PATT
         .word  mus_pkmn_bw12_154_6_21
@ 030   ----------------------------------------
        .byte   PATT
         .word  mus_pkmn_bw12_154_6_21
@ 031   ----------------------------------------
        .byte   PATT
         .word  mus_pkmn_bw12_154_6_21
@ 032   ----------------------------------------
        .byte   PATT
         .word  mus_pkmn_bw12_154_6_9
@ 033   ----------------------------------------
        .byte   W03
        .byte           N44   , Gs1 , v116
        .byte   W48
        .byte           N23
        .byte   W44
        .byte   W01
@ 034   ----------------------------------------
        .byte   PATT
         .word  mus_pkmn_bw12_154_6_21
@ 035   ----------------------------------------
        .byte   PATT
         .word  mus_pkmn_bw12_154_6_21
@ 036   ----------------------------------------
        .byte   PATT
         .word  mus_pkmn_bw12_154_6_21
@ 037   ----------------------------------------
        .byte   PATT
         .word  mus_pkmn_bw12_154_6_21
@ 038   ----------------------------------------
        .byte   PATT
         .word  mus_pkmn_bw12_154_6_21
@ 039   ----------------------------------------
        .byte   PATT
         .word  mus_pkmn_bw12_154_6_21
@ 040   ----------------------------------------
        .byte   GOTO
         .word  mus_pkmn_bw12_154_6_LOOP
        .byte   FINE

@****************** Track 7 (Midi-Chn.7) ******************@

mus_pkmn_bw12_154_7:
        .byte   KEYSH , mus_pkmn_bw12_154_key+0
@ 000   ----------------------------------------
        .byte           VOICE , 124
        .byte           LFOS  , 44
        .byte           BENDR , 12
        .byte           PAN   , c_v+10
        .byte           VOL   , 85
        .byte           N07   , Cs0 , v127
        .byte   W16
        .byte                   Cs0
        .byte   W08
        .byte                   Cs0
        .byte   W08
        .byte                   An0
        .byte   W08
        .byte                   Gs0
        .byte   W08
        .byte                   Cs1
        .byte   W16
        .byte                   Cs1
        .byte   W08
        .byte                   Cs1
        .byte   W08
        .byte                   An1
        .byte   W08
        .byte                   Gs1
        .byte   W08
@ 001   ----------------------------------------
        .byte                   Cs2
        .byte   W16
        .byte                   Cs2
        .byte   W08
        .byte                   Cs2
        .byte   W08
        .byte                   An2
        .byte   W08
        .byte                   Gs2
        .byte   W08
        .byte                   Cs1
        .byte   W08
        .byte                   Gs0
        .byte   W08
        .byte                   Gs0
        .byte   W08
        .byte                   Gs0
        .byte   W08
        .byte                   Bn0
        .byte   W08
        .byte                   Cn1
        .byte   W08
@ 002   ----------------------------------------
mus_pkmn_bw12_154_7_2:
        .byte           N07   , Cs1 , v127
        .byte   W16
        .byte                   Cs1
        .byte   W08
        .byte                   Cs1
        .byte   W08
        .byte                   An1
        .byte   W08
        .byte                   Gs1
        .byte   W08
        .byte                   Cs1
        .byte   W16
        .byte                   Cs1
        .byte   W08
        .byte                   Cs1
        .byte   W08
        .byte                   An1
        .byte   W08
        .byte                   Gs1
        .byte   W08
        .byte   PEND
@ 003   ----------------------------------------
mus_pkmn_bw12_154_7_3:
        .byte           N07   , Cs1 , v127
        .byte   W16
        .byte                   Cs1
        .byte   W08
        .byte                   Cs1
        .byte   W08
        .byte                   An1
        .byte   W08
        .byte                   Gs1
        .byte   W08
        .byte                   Cs1
        .byte   W08
        .byte                   Gs0
        .byte   W08
        .byte                   Gs0
        .byte   W08
        .byte                   Gs0
        .byte   W08
        .byte                   Bn0
        .byte   W08
        .byte                   Cn1
        .byte   W08
        .byte   PEND
@ 004   ----------------------------------------
        .byte   PATT
         .word  mus_pkmn_bw12_154_7_2
@ 005   ----------------------------------------
        .byte   PATT
         .word  mus_pkmn_bw12_154_7_3
@ 006   ----------------------------------------
        .byte   PATT
         .word  mus_pkmn_bw12_154_7_2
@ 007   ----------------------------------------
        .byte   PATT
         .word  mus_pkmn_bw12_154_7_3
@ 008   ----------------------------------------
mus_pkmn_bw12_154_7_8:
        .byte           N07   , Dn1 , v127
        .byte   W16
        .byte                   Dn1
        .byte   W08
        .byte                   Dn1
        .byte   W08
        .byte                   As1
        .byte   W08
        .byte                   An1
        .byte   W08
        .byte                   Dn1
        .byte   W16
        .byte                   Dn1
        .byte   W08
        .byte                   Dn1
        .byte   W08
        .byte                   As1
        .byte   W08
        .byte                   An1
        .byte   W08
        .byte   PEND
@ 009   ----------------------------------------
mus_pkmn_bw12_154_7_9:
        .byte           N07   , Dn1 , v127
        .byte   W16
        .byte                   Dn1
        .byte   W08
        .byte                   Dn1
        .byte   W08
        .byte                   As1
        .byte   W08
        .byte                   An1
        .byte   W08
        .byte                   Dn1
        .byte   W08
        .byte                   An0
        .byte   W08
        .byte                   An0
        .byte   W08
        .byte                   An0
        .byte   W08
        .byte                   Cn1
        .byte   W08
        .byte                   Cs1
        .byte   W08
        .byte   PEND
@ 010   ----------------------------------------
        .byte   PATT
         .word  mus_pkmn_bw12_154_7_8
@ 011   ----------------------------------------
        .byte   PATT
         .word  mus_pkmn_bw12_154_7_9
@ 012   ----------------------------------------
        .byte   PATT
         .word  mus_pkmn_bw12_154_7_8
@ 013   ----------------------------------------
        .byte           N07   , Dn1 , v127
        .byte   W16
        .byte                   Dn1
        .byte   W08
        .byte                   Dn1
        .byte   W08
        .byte                   As1
        .byte   W08
        .byte                   An1
        .byte   W08
        .byte                   Dn1
        .byte   W08
        .byte                   Dn2
        .byte   W08
        .byte                   Ds2
        .byte   W08
        .byte                   As1
        .byte   W08
        .byte                   Ds2
        .byte   W08
        .byte                   Cs2
        .byte   W08
@ 014   ----------------------------------------
        .byte   PATT
         .word  mus_pkmn_bw12_154_7_2
@ 015   ----------------------------------------
        .byte   PATT
         .word  mus_pkmn_bw12_154_7_3
@ 016   ----------------------------------------
        .byte   PATT
         .word  mus_pkmn_bw12_154_7_2
@ 017   ----------------------------------------
        .byte   PATT
         .word  mus_pkmn_bw12_154_7_3
@ 018   ----------------------------------------
        .byte   PATT
         .word  mus_pkmn_bw12_154_7_2
@ 019   ----------------------------------------
        .byte   PATT
         .word  mus_pkmn_bw12_154_7_3
@ 020   ----------------------------------------
mus_pkmn_bw12_154_7_LOOP:
        .byte           N07   , Dn1 , v127
        .byte   W16
        .byte                   Dn1
        .byte   W08
        .byte                   Dn1
        .byte   W08
        .byte                   As1
        .byte   W08
        .byte                   An1
        .byte   W08
        .byte                   Dn1
        .byte   W16
        .byte                   Dn1
        .byte   W08
        .byte                   Dn1
        .byte   W08
        .byte                   As1
        .byte   W08
        .byte                   An1
        .byte   W08
@ 021   ----------------------------------------
        .byte   PATT
         .word  mus_pkmn_bw12_154_7_9
@ 022   ----------------------------------------
        .byte   PATT
         .word  mus_pkmn_bw12_154_7_8
@ 023   ----------------------------------------
        .byte   PATT
         .word  mus_pkmn_bw12_154_7_9
@ 024   ----------------------------------------
        .byte   PATT
         .word  mus_pkmn_bw12_154_7_8
@ 025   ----------------------------------------
        .byte   PATT
         .word  mus_pkmn_bw12_154_7_9
@ 026   ----------------------------------------
        .byte   PATT
         .word  mus_pkmn_bw12_154_7_8
@ 027   ----------------------------------------
        .byte   PATT
         .word  mus_pkmn_bw12_154_7_9
@ 028   ----------------------------------------
        .byte   PATT
         .word  mus_pkmn_bw12_154_7_8
@ 029   ----------------------------------------
        .byte   PATT
         .word  mus_pkmn_bw12_154_7_9
@ 030   ----------------------------------------
        .byte   PATT
         .word  mus_pkmn_bw12_154_7_8
@ 031   ----------------------------------------
        .byte   PATT
         .word  mus_pkmn_bw12_154_7_9
@ 032   ----------------------------------------
        .byte   PATT
         .word  mus_pkmn_bw12_154_7_8
@ 033   ----------------------------------------
        .byte   PATT
         .word  mus_pkmn_bw12_154_7_9
@ 034   ----------------------------------------
        .byte   PATT
         .word  mus_pkmn_bw12_154_7_2
@ 035   ----------------------------------------
        .byte   PATT
         .word  mus_pkmn_bw12_154_7_3
@ 036   ----------------------------------------
        .byte   PATT
         .word  mus_pkmn_bw12_154_7_2
@ 037   ----------------------------------------
        .byte   PATT
         .word  mus_pkmn_bw12_154_7_3
@ 038   ----------------------------------------
        .byte   PATT
         .word  mus_pkmn_bw12_154_7_2
@ 039   ----------------------------------------
        .byte   PATT
         .word  mus_pkmn_bw12_154_7_3
@ 040   ----------------------------------------
        .byte   GOTO
         .word  mus_pkmn_bw12_154_7_LOOP
        .byte   FINE

@****************** Track 8 (Midi-Chn.8) ******************@

mus_pkmn_bw12_154_8:
        .byte   KEYSH , mus_pkmn_bw12_154_key+0
@ 000   ----------------------------------------
        .byte           VOICE , 124
        .byte           LFOS  , 44
        .byte           BENDR , 12
        .byte           PAN   , c_v-8
        .byte           VOL   , 11
        .byte           N07   , Cs0 , v127
        .byte   W16
        .byte                   Cs0
        .byte   W08
        .byte                   Cs0
        .byte   W10
        .byte                   An0
        .byte   W08
        .byte                   Gs0
        .byte   W08
        .byte                   Cs1
        .byte   W16
        .byte                   Cs1
        .byte   W08
        .byte                   Cs1
        .byte   W08
        .byte                   An1
        .byte   W08
        .byte                   Gs1
        .byte   W06
@ 001   ----------------------------------------
        .byte   W02
        .byte                   Cs2
        .byte   W16
        .byte                   Cs2
        .byte   W08
        .byte                   Cs2
        .byte   W08
        .byte                   An2
        .byte   W08
        .byte                   Gs2
        .byte   W08
        .byte                   Cs1
        .byte   W08
        .byte                   Gs0
        .byte   W08
        .byte                   Gs0
        .byte   W06
        .byte           VOL   , 19
        .byte   W02
        .byte           N07
        .byte   W03
        .byte           VOL   , 25
        .byte   W05
        .byte           N07   , Bn0
        .byte   W02
        .byte           VOL   , 35
        .byte   W05
        .byte                   46
        .byte   W01
        .byte           N07   , Cn1
        .byte   W06
@ 002   ----------------------------------------
        .byte           VOL   , 54
        .byte   W02
        .byte           N07   , Cs1
        .byte   W03
        .byte           VOL   , 61
        .byte   W13
        .byte           N07
        .byte   W08
        .byte                   Cs1
        .byte   W08
        .byte                   An1
        .byte   W08
        .byte                   Gs1
        .byte   W08
        .byte                   Cs1
        .byte   W16
        .byte                   Cs1
        .byte   W08
        .byte                   Cs1
        .byte   W08
        .byte                   An1
        .byte   W08
        .byte                   Gs1
        .byte   W06
@ 003   ----------------------------------------
mus_pkmn_bw12_154_8_3:
        .byte   W02
        .byte           N07   , Cs1 , v127
        .byte   W16
        .byte                   Cs1
        .byte   W08
        .byte                   Cs1
        .byte   W08
        .byte                   An1
        .byte   W08
        .byte                   Gs1
        .byte   W08
        .byte                   Cs1
        .byte   W08
        .byte                   Gs0
        .byte   W08
        .byte                   Gs0
        .byte   W08
        .byte                   Gs0
        .byte   W08
        .byte                   Bn0
        .byte   W08
        .byte                   Cn1
        .byte   W06
        .byte   PEND
@ 004   ----------------------------------------
mus_pkmn_bw12_154_8_4:
        .byte   W02
        .byte           N07   , Cs1 , v127
        .byte   W16
        .byte                   Cs1
        .byte   W08
        .byte                   Cs1
        .byte   W08
        .byte                   An1
        .byte   W08
        .byte                   Gs1
        .byte   W08
        .byte                   Cs1
        .byte   W16
        .byte                   Cs1
        .byte   W08
        .byte                   Cs1
        .byte   W08
        .byte                   An1
        .byte   W08
        .byte                   Gs1
        .byte   W06
        .byte   PEND
@ 005   ----------------------------------------
        .byte   PATT
         .word  mus_pkmn_bw12_154_8_3
@ 006   ----------------------------------------
        .byte   PATT
         .word  mus_pkmn_bw12_154_8_4
@ 007   ----------------------------------------
        .byte   PATT
         .word  mus_pkmn_bw12_154_8_3
@ 008   ----------------------------------------
mus_pkmn_bw12_154_8_8:
        .byte   W02
        .byte           N07   , Dn1 , v127
        .byte   W16
        .byte                   Dn1
        .byte   W08
        .byte                   Dn1
        .byte   W08
        .byte                   As1
        .byte   W08
        .byte                   An1
        .byte   W08
        .byte                   Dn1
        .byte   W16
        .byte                   Dn1
        .byte   W08
        .byte                   Dn1
        .byte   W08
        .byte                   As1
        .byte   W08
        .byte                   An1
        .byte   W06
        .byte   PEND
@ 009   ----------------------------------------
mus_pkmn_bw12_154_8_9:
        .byte   W02
        .byte           N07   , Dn1 , v127
        .byte   W16
        .byte                   Dn1
        .byte   W08
        .byte                   Dn1
        .byte   W08
        .byte                   As1
        .byte   W08
        .byte                   An1
        .byte   W08
        .byte                   Dn1
        .byte   W08
        .byte                   An0
        .byte   W08
        .byte                   An0
        .byte   W08
        .byte                   An0
        .byte   W08
        .byte                   Cn1
        .byte   W08
        .byte                   Cs1
        .byte   W06
        .byte   PEND
@ 010   ----------------------------------------
        .byte   PATT
         .word  mus_pkmn_bw12_154_8_8
@ 011   ----------------------------------------
        .byte   PATT
         .word  mus_pkmn_bw12_154_8_9
@ 012   ----------------------------------------
        .byte   PATT
         .word  mus_pkmn_bw12_154_8_8
@ 013   ----------------------------------------
        .byte   W02
        .byte           N07   , Dn1 , v127
        .byte   W16
        .byte                   Dn1
        .byte   W08
        .byte                   Dn1
        .byte   W08
        .byte                   As1
        .byte   W08
        .byte                   An1
        .byte   W08
        .byte                   Dn1
        .byte   W08
        .byte                   Dn2
        .byte   W08
        .byte                   Ds2
        .byte   W08
        .byte                   As1
        .byte   W08
        .byte                   Ds2
        .byte   W08
        .byte                   Cs2
        .byte   W06
@ 014   ----------------------------------------
        .byte   PATT
         .word  mus_pkmn_bw12_154_8_4
@ 015   ----------------------------------------
        .byte   PATT
         .word  mus_pkmn_bw12_154_8_3
@ 016   ----------------------------------------
        .byte   PATT
         .word  mus_pkmn_bw12_154_8_4
@ 017   ----------------------------------------
        .byte   PATT
         .word  mus_pkmn_bw12_154_8_3
@ 018   ----------------------------------------
        .byte   PATT
         .word  mus_pkmn_bw12_154_8_4
@ 019   ----------------------------------------
        .byte   PATT
         .word  mus_pkmn_bw12_154_8_3
@ 020   ----------------------------------------
mus_pkmn_bw12_154_8_LOOP:
        .byte   W02
        .byte           N07   , Dn1 , v127
        .byte   W16
        .byte                   Dn1
        .byte   W08
        .byte                   Dn1
        .byte   W08
        .byte                   As1
        .byte   W08
        .byte                   An1
        .byte   W08
        .byte                   Dn1
        .byte   W16
        .byte                   Dn1
        .byte   W08
        .byte                   Dn1
        .byte   W08
        .byte                   As1
        .byte   W08
        .byte                   An1
        .byte   W06
@ 021   ----------------------------------------
        .byte   PATT
         .word  mus_pkmn_bw12_154_8_9
@ 022   ----------------------------------------
        .byte   PATT
         .word  mus_pkmn_bw12_154_8_8
@ 023   ----------------------------------------
        .byte   PATT
         .word  mus_pkmn_bw12_154_8_9
@ 024   ----------------------------------------
        .byte   PATT
         .word  mus_pkmn_bw12_154_8_8
@ 025   ----------------------------------------
        .byte   PATT
         .word  mus_pkmn_bw12_154_8_9
@ 026   ----------------------------------------
        .byte   PATT
         .word  mus_pkmn_bw12_154_8_8
@ 027   ----------------------------------------
        .byte   PATT
         .word  mus_pkmn_bw12_154_8_9
@ 028   ----------------------------------------
        .byte   PATT
         .word  mus_pkmn_bw12_154_8_8
@ 029   ----------------------------------------
        .byte   PATT
         .word  mus_pkmn_bw12_154_8_9
@ 030   ----------------------------------------
        .byte   PATT
         .word  mus_pkmn_bw12_154_8_8
@ 031   ----------------------------------------
        .byte   PATT
         .word  mus_pkmn_bw12_154_8_9
@ 032   ----------------------------------------
        .byte   PATT
         .word  mus_pkmn_bw12_154_8_8
@ 033   ----------------------------------------
        .byte   PATT
         .word  mus_pkmn_bw12_154_8_9
@ 034   ----------------------------------------
        .byte   PATT
         .word  mus_pkmn_bw12_154_8_4
@ 035   ----------------------------------------
        .byte   PATT
         .word  mus_pkmn_bw12_154_8_3
@ 036   ----------------------------------------
        .byte   PATT
         .word  mus_pkmn_bw12_154_8_4
@ 037   ----------------------------------------
        .byte   PATT
         .word  mus_pkmn_bw12_154_8_3
@ 038   ----------------------------------------
        .byte   PATT
         .word  mus_pkmn_bw12_154_8_4
@ 039   ----------------------------------------
        .byte   W02
        .byte           N07   , Cs1 , v127
        .byte   W16
        .byte                   Cs1
        .byte   W08
        .byte                   Cs1
        .byte   W08
        .byte                   An1
        .byte   W08
        .byte                   Gs1
        .byte   W08
        .byte                   Cs1
        .byte   W08
        .byte                   Gs0
        .byte   W08
        .byte                   Gs0
        .byte   W08
        .byte                   Gs0
        .byte   W08
        .byte                   Bn0
        .byte   W08
        .byte           N05   , Cn1
        .byte   W06
@ 040   ----------------------------------------
        .byte   GOTO
         .word  mus_pkmn_bw12_154_8_LOOP
        .byte   FINE

@****************** Track 9 (Midi-Chn.9) ******************@

mus_pkmn_bw12_154_9:
        .byte   KEYSH , mus_pkmn_bw12_154_key+0
@ 000   ----------------------------------------
        .byte           VOICE , 39
        .byte           LFOS  , 44
        .byte           BENDR , 12
        .byte           VOL   , 85
        .byte           N03   , En2 , v092
        .byte   W24
        .byte           N01   , As2 , v028
        .byte   W08
        .byte                   As2 , v032
        .byte   W08
        .byte                   As2 , v044
        .byte   W08
        .byte           N03   , En2 , v080
        .byte   W08
        .byte           N01   , Gn2 , v024
        .byte   W08
        .byte                   Gn2 , v028
        .byte   W08
        .byte                   Gn2 , v036
        .byte   W08
        .byte           N14   , En2 , v080
        .byte   W16
@ 001   ----------------------------------------
        .byte           N03   , As2 , v056
        .byte   W16
        .byte                   As2 , v068
        .byte   W48
        .byte                   En1 , v072
        .byte   W08
        .byte           N24   , En1 , v080
        .byte           N44   , As2 , v100
        .byte   W16
        .byte           N07   , As1 , v040
        .byte   W08
@ 002   ----------------------------------------
        .byte   W96
@ 003   ----------------------------------------
        .byte   W48
        .byte           N04   , En2 , v076
        .byte   W04
        .byte           N32   , En2 , v052
        .byte   W44
@ 004   ----------------------------------------
        .byte   W48
        .byte           N01   , As2 , v120
        .byte   W02
        .byte           N80   , En2
        .byte   W44
        .byte   W02
@ 005   ----------------------------------------
        .byte   W96
@ 006   ----------------------------------------
        .byte   W96
@ 007   ----------------------------------------
        .byte   W96
@ 008   ----------------------------------------
        .byte   W96
@ 009   ----------------------------------------
        .byte   W96
@ 010   ----------------------------------------
        .byte   W96
@ 011   ----------------------------------------
        .byte   W96
@ 012   ----------------------------------------
        .byte   W96
@ 013   ----------------------------------------
        .byte   W96
@ 014   ----------------------------------------
        .byte   W96
@ 015   ----------------------------------------
        .byte   W96
@ 016   ----------------------------------------
        .byte   W96
@ 017   ----------------------------------------
        .byte   W96
@ 018   ----------------------------------------
        .byte   W96
@ 019   ----------------------------------------
        .byte   W72
        .byte           N14   , En1 , v088
        .byte   W16
        .byte           N06
        .byte   W08
@ 020   ----------------------------------------
mus_pkmn_bw12_154_9_LOOP:
        .byte   W24
        .byte           N22   , En1 , v088
        .byte   W48
        .byte                   En1
        .byte   W24
@ 021   ----------------------------------------
mus_pkmn_bw12_154_9_21:
        .byte   W24
        .byte           N22   , En1 , v088
        .byte   W48
        .byte                   En1
        .byte   W24
        .byte   PEND
@ 022   ----------------------------------------
        .byte   PATT
         .word  mus_pkmn_bw12_154_9_21
@ 023   ----------------------------------------
mus_pkmn_bw12_154_9_23:
        .byte   W24
        .byte           N22   , En1 , v088
        .byte   W48
        .byte           N14
        .byte   W16
        .byte           N06
        .byte   W08
        .byte   PEND
@ 024   ----------------------------------------
        .byte   PATT
         .word  mus_pkmn_bw12_154_9_21
@ 025   ----------------------------------------
        .byte   PATT
         .word  mus_pkmn_bw12_154_9_21
@ 026   ----------------------------------------
        .byte   W24
        .byte           N22   , En1 , v080
        .byte   W48
        .byte                   En1 , v088
        .byte   W24
@ 027   ----------------------------------------
        .byte   PATT
         .word  mus_pkmn_bw12_154_9_21
@ 028   ----------------------------------------
        .byte   PATT
         .word  mus_pkmn_bw12_154_9_21
@ 029   ----------------------------------------
        .byte   W24
        .byte           N22   , En1 , v088
        .byte   W40
        .byte           N14
        .byte   W16
        .byte                   En1
        .byte   W16
@ 030   ----------------------------------------
        .byte   PATT
         .word  mus_pkmn_bw12_154_9_21
@ 031   ----------------------------------------
        .byte   PATT
         .word  mus_pkmn_bw12_154_9_21
@ 032   ----------------------------------------
        .byte   W96
@ 033   ----------------------------------------
        .byte   W72
        .byte           N13   , En1 , v088
        .byte           N22   , As2 , v068
        .byte   W16
        .byte           N03   , En1 , v088
        .byte   W08
@ 034   ----------------------------------------
        .byte           N22   , As2 , v092
        .byte   W24
        .byte                   En1 , v088
        .byte   W48
        .byte                   En1
        .byte   W24
@ 035   ----------------------------------------
        .byte   W24
        .byte                   En1 , v084
        .byte   W48
        .byte                   En1 , v088
        .byte   W24
@ 036   ----------------------------------------
        .byte   PATT
         .word  mus_pkmn_bw12_154_9_21
@ 037   ----------------------------------------
        .byte   PATT
         .word  mus_pkmn_bw12_154_9_23
@ 038   ----------------------------------------
        .byte   PATT
         .word  mus_pkmn_bw12_154_9_21
@ 039   ----------------------------------------
        .byte   PATT
         .word  mus_pkmn_bw12_154_9_21
@ 040   ----------------------------------------
        .byte   GOTO
         .word  mus_pkmn_bw12_154_9_LOOP
        .byte   FINE

@***************** Track 10 (Midi-Chn.10) *****************@

mus_pkmn_bw12_154_10:
        .byte   KEYSH , mus_pkmn_bw12_154_key+0
@ 000   ----------------------------------------
        .byte           VOICE , 89
        .byte           LFOS  , 44
        .byte           BENDR , 12
        .byte           VOL   , 85
        .byte           N07   , Fn2 , v048
        .byte   W08
        .byte                   Bn1 , v036
        .byte   W08
        .byte                   Fn1 , v040
        .byte   W08
        .byte                   Cs2 , v056
        .byte   W16
        .byte                   Cn1 , v024
        .byte   W08
        .byte                   Ds2 , v048
        .byte   W08
        .byte                   An1 , v032
        .byte   W08
        .byte                   Ds1 , v052
        .byte   W08
        .byte                   Bn1 , v044
        .byte   W16
        .byte                   As0 , v040
        .byte   W08
@ 001   ----------------------------------------
        .byte                   En2 , v048
        .byte   W08
        .byte                   As1 , v036
        .byte   W08
        .byte                   En1 , v040
        .byte   W08
        .byte                   Cn2 , v056
        .byte   W16
        .byte                   Bn0 , v024
        .byte   W08
        .byte                   Dn2 , v048
        .byte   W08
        .byte                   Gs1 , v032
        .byte   W08
        .byte                   Dn1 , v052
        .byte   W08
        .byte                   As1 , v044
        .byte   W24
@ 002   ----------------------------------------
mus_pkmn_bw12_154_10_2:
        .byte           N07   , Dn2 , v052
        .byte   W08
        .byte                   Bn1
        .byte   W08
        .byte                   As1
        .byte   W08
        .byte                   En1
        .byte   W08
        .byte                   Cs2
        .byte   W08
        .byte                   Bn1
        .byte   W08
        .byte                   Dn2
        .byte   W08
        .byte                   Bn1
        .byte   W08
        .byte                   As1
        .byte   W08
        .byte                   En1
        .byte   W08
        .byte                   Cs2
        .byte   W08
        .byte                   Bn1
        .byte   W08
        .byte   PEND
@ 003   ----------------------------------------
        .byte   PATT
         .word  mus_pkmn_bw12_154_10_2
@ 004   ----------------------------------------
        .byte   W96
@ 005   ----------------------------------------
        .byte   W96
@ 006   ----------------------------------------
        .byte   W96
@ 007   ----------------------------------------
        .byte   W96
@ 008   ----------------------------------------
        .byte   W96
@ 009   ----------------------------------------
        .byte   W96
@ 010   ----------------------------------------
        .byte   W96
@ 011   ----------------------------------------
        .byte   W96
@ 012   ----------------------------------------
        .byte   W96
@ 013   ----------------------------------------
        .byte   W96
@ 014   ----------------------------------------
        .byte   W96
@ 015   ----------------------------------------
        .byte   W96
@ 016   ----------------------------------------
        .byte   W96
@ 017   ----------------------------------------
        .byte   W96
@ 018   ----------------------------------------
        .byte   W96
@ 019   ----------------------------------------
        .byte   W48
        .byte           N01   , An2 , v084
        .byte   W04
        .byte                   En2 , v056
        .byte   W04
        .byte           N07   , As1 , v092
        .byte   W08
        .byte           N21   , Dn1 , v064
        .byte   W32
@ 020   ----------------------------------------
mus_pkmn_bw12_154_10_LOOP:
        .byte   W96
@ 021   ----------------------------------------
        .byte   W96
@ 022   ----------------------------------------
        .byte   W96
@ 023   ----------------------------------------
        .byte   W96
@ 024   ----------------------------------------
        .byte   W96
@ 025   ----------------------------------------
        .byte   W96
@ 026   ----------------------------------------
        .byte   W96
@ 027   ----------------------------------------
        .byte   W96
@ 028   ----------------------------------------
        .byte   W96
@ 029   ----------------------------------------
        .byte   W96
@ 030   ----------------------------------------
        .byte   W96
@ 031   ----------------------------------------
        .byte   W96
@ 032   ----------------------------------------
        .byte   W96
@ 033   ----------------------------------------
        .byte   W96
@ 034   ----------------------------------------
        .byte   W96
@ 035   ----------------------------------------
        .byte   W96
@ 036   ----------------------------------------
        .byte   W96
@ 037   ----------------------------------------
        .byte   W96
@ 038   ----------------------------------------
        .byte   W96
@ 039   ----------------------------------------
        .byte   W96
@ 040   ----------------------------------------
        .byte   GOTO
         .word  mus_pkmn_bw12_154_10_LOOP
        .byte   FINE

@***************** Track 11 (Midi-Chn.11) *****************@

mus_pkmn_bw12_154_11:
        .byte   KEYSH , mus_pkmn_bw12_154_key+0
@ 000   ----------------------------------------
        .byte           VOICE , 60
        .byte           LFOS  , 44
        .byte           BENDR , 12
        .byte           VOL   , 85
        .byte           N11   , Cs1 , v084
        .byte   W16
        .byte           N01   , Cs1 , v064
        .byte   W08
        .byte           N11   , Cs1 , v084
        .byte   W16
        .byte           N01   , Cs1 , v064
        .byte   W08
        .byte           N11   , Cs1 , v084
        .byte   W16
        .byte           N01   , Cs1 , v064
        .byte   W08
        .byte           N11   , Cs1 , v084
        .byte   W16
        .byte           N01   , Cs1 , v064
        .byte   W08
@ 001   ----------------------------------------
        .byte           N11   , Cs1 , v084
        .byte   W16
        .byte           N01   , Cs1 , v064
        .byte   W08
        .byte           N11   , Cs1 , v084
        .byte   W16
        .byte           N01   , Cs1 , v064
        .byte   W08
        .byte           N05   , Cs1 , v084
        .byte   W08
        .byte                   Cs1 , v056
        .byte   W08
        .byte           N03   , Cs1 , v076
        .byte   W08
        .byte           N11   , Cs1 , v084
        .byte   W16
        .byte           N03   , Cs1 , v112
        .byte   W08
@ 002   ----------------------------------------
        .byte           N11   , Cs1 , v084
        .byte   W16
        .byte           N01   , Cs1 , v064
        .byte   W08
        .byte           N11   , Cs1 , v084
        .byte   W16
        .byte           N01   , Cs1 , v064
        .byte   W08
        .byte           N11   , Cs1 , v084
        .byte   W16
        .byte           N01   , Cs1 , v064
        .byte   W08
        .byte           N11   , Cs1 , v084
        .byte   W16
        .byte           N01   , Cs1 , v064
        .byte   W08
@ 003   ----------------------------------------
        .byte           N11   , Cs1 , v084
        .byte   W16
        .byte           N01   , Cs1 , v064
        .byte   W08
        .byte           N11   , Cs1 , v084
        .byte   W16
        .byte           N01   , Cs1 , v064
        .byte   W08
        .byte           N11   , Cs1 , v084
        .byte   W16
        .byte           N01   , Cs1 , v064
        .byte   W08
        .byte           N05   , Cs1 , v100
        .byte   W08
        .byte                   Cs1 , v068
        .byte   W08
        .byte                   Cs1 , v092
        .byte   W08
@ 004   ----------------------------------------
        .byte           N21   , Cs1 , v100
        .byte   W40
        .byte           N01   , Cs1 , v064
        .byte   W04
        .byte                   Cs1 , v088
        .byte   W04
        .byte           N23   , Cs1 , v127
        .byte   W48
@ 005   ----------------------------------------
        .byte   W96
@ 006   ----------------------------------------
        .byte   W96
@ 007   ----------------------------------------
        .byte   W96
@ 008   ----------------------------------------
        .byte   W96
@ 009   ----------------------------------------
        .byte   W96
@ 010   ----------------------------------------
        .byte   W96
@ 011   ----------------------------------------
        .byte   W96
@ 012   ----------------------------------------
        .byte   W96
@ 013   ----------------------------------------
        .byte   W96
@ 014   ----------------------------------------
        .byte   W96
@ 015   ----------------------------------------
        .byte   W96
@ 016   ----------------------------------------
        .byte   W96
@ 017   ----------------------------------------
        .byte   W96
@ 018   ----------------------------------------
        .byte   W96
@ 019   ----------------------------------------
        .byte   W96
@ 020   ----------------------------------------
mus_pkmn_bw12_154_11_LOOP:
        .byte           N22   , Cn1 , v127
        .byte   W48
        .byte                   Cn1
        .byte   W48
@ 021   ----------------------------------------
mus_pkmn_bw12_154_11_21:
        .byte           N22   , Cn1 , v127
        .byte   W48
        .byte           N14
        .byte   W16
        .byte           N06
        .byte   W32
        .byte   PEND
@ 022   ----------------------------------------
mus_pkmn_bw12_154_11_22:
        .byte           N22   , Cn1 , v127
        .byte   W48
        .byte                   Cn1
        .byte   W48
        .byte   PEND
@ 023   ----------------------------------------
        .byte   PATT
         .word  mus_pkmn_bw12_154_11_22
@ 024   ----------------------------------------
        .byte   PATT
         .word  mus_pkmn_bw12_154_11_22
@ 025   ----------------------------------------
        .byte   PATT
         .word  mus_pkmn_bw12_154_11_21
@ 026   ----------------------------------------
        .byte   PATT
         .word  mus_pkmn_bw12_154_11_22
@ 027   ----------------------------------------
        .byte   PATT
         .word  mus_pkmn_bw12_154_11_21
@ 028   ----------------------------------------
        .byte   PATT
         .word  mus_pkmn_bw12_154_11_22
@ 029   ----------------------------------------
        .byte           N22   , Cn1 , v127
        .byte   W48
        .byte           N14
        .byte   W48
@ 030   ----------------------------------------
        .byte   PATT
         .word  mus_pkmn_bw12_154_11_22
@ 031   ----------------------------------------
        .byte   PATT
         .word  mus_pkmn_bw12_154_11_21
@ 032   ----------------------------------------
        .byte   W96
@ 033   ----------------------------------------
        .byte   W48
        .byte           N05   , Cn1 , v120
        .byte   W08
        .byte                   Cn1 , v076
        .byte   W08
        .byte                   Cn1 , v080
        .byte   W32
@ 034   ----------------------------------------
        .byte   PATT
         .word  mus_pkmn_bw12_154_11_22
@ 035   ----------------------------------------
        .byte   PATT
         .word  mus_pkmn_bw12_154_11_21
@ 036   ----------------------------------------
        .byte   PATT
         .word  mus_pkmn_bw12_154_11_22
@ 037   ----------------------------------------
        .byte   PATT
         .word  mus_pkmn_bw12_154_11_22
@ 038   ----------------------------------------
        .byte   PATT
         .word  mus_pkmn_bw12_154_11_22
@ 039   ----------------------------------------
        .byte           N22   , Cn1 , v127
        .byte   W48
        .byte           N14
        .byte   W16
        .byte           N07
        .byte   W32
@ 040   ----------------------------------------
        .byte   GOTO
         .word  mus_pkmn_bw12_154_11_LOOP
        .byte   FINE


@********************** End of Song ***********************@

        .align  2
mus_pkmn_bw12_154:
        .byte   12                      @ Num Tracks
        .byte   0                       @ Unknown
        .byte   mus_pkmn_bw12_154_pri   @ Priority
        .byte   mus_pkmn_bw12_154_rev   @ Reverb

        .word   mus_pkmn_bw12_154_grp  

        .word   mus_pkmn_bw12_154_0
        .word   mus_pkmn_bw12_154_1
        .word   mus_pkmn_bw12_154_2
        .word   mus_pkmn_bw12_154_3
        .word   mus_pkmn_bw12_154_4
        .word   mus_pkmn_bw12_154_5
        .word   mus_pkmn_bw12_154_6
        .word   mus_pkmn_bw12_154_7
        .word   mus_pkmn_bw12_154_8
        .word   mus_pkmn_bw12_154_9
        .word   mus_pkmn_bw12_154_10
        .word   mus_pkmn_bw12_154_11

        .end
