        .include "MPlayDef.s"

        .equ    mus_pkmn_bw12_076_grp, voicegroup538
        .equ    mus_pkmn_bw12_076_pri, 0
        .equ    mus_pkmn_bw12_076_rev, 0
        .equ    mus_pkmn_bw12_076_key, 0

        .section .rodata
        .global mus_pkmn_bw12_076
        .align  2

@****************** Track 0 (Midi-Chn.0) ******************@

mus_pkmn_bw12_076_0:
        .byte   KEYSH , mus_pkmn_bw12_076_key+0
@ 000   ----------------------------------------
        .byte   TEMPO , 172/2
        .byte           VOICE , 39
        .byte           LFOS  , 44
        .byte           BENDR , 12
        .byte           VOL   , 57
        .byte   W96
@ 001   ----------------------------------------
        .byte   W48
        .byte           N02   , GnM2 , v100
        .byte   W06
        .byte                   GnM2
        .byte   W06
        .byte           N11   , GnM2 , v060
        .byte   W13
        .byte           N92   , Ds2 , v100
        .byte   W11
        .byte           N11   , CnM2
        .byte   W12
@ 002   ----------------------------------------
        .byte   W96
@ 003   ----------------------------------------
        .byte           N02   , Cs2 , v076
        .byte   W09
        .byte                   Cs2 , v060
        .byte   W09
        .byte                   Cs2 , v072
        .byte   W06
        .byte           N44   , As2 , v116
        .byte   W72
@ 004   ----------------------------------------
        .byte   W96
@ 005   ----------------------------------------
        .byte   W48
        .byte                   Ds2 , v100
        .byte   W48
@ 006   ----------------------------------------
mus_pkmn_bw12_076_0_LOOP:
        .byte           N92   , An2 , v100
        .byte   W12
        .byte           N80   , Cs2 , v076
        .byte   W84
@ 007   ----------------------------------------
        .byte   W84
        .byte           N02   , Cs2 , v080
        .byte   W06
        .byte                   Cs2 , v068
        .byte   W06
@ 008   ----------------------------------------
        .byte                   CsM1 , v100
        .byte           N44   , As2 , v076
        .byte   W12
        .byte           N02   , CsM1 , v100
        .byte   W06
        .byte                   CsM1
        .byte   W06
        .byte                   CsM1
        .byte   W12
        .byte                   CsM1
        .byte   W06
        .byte                   CsM1
        .byte   W06
        .byte                   CsM1
        .byte   W06
        .byte                   CsM1
        .byte   W06
        .byte                   CsM1
        .byte   W06
        .byte                   CsM1
        .byte   W06
        .byte                   CsM1
        .byte   W12
        .byte                   CsM1
        .byte   W06
        .byte                   CsM1
        .byte   W06
@ 009   ----------------------------------------
        .byte           N20   , CsM2 , v124
        .byte           N02   , CsM1 , v100
        .byte   W06
        .byte                   CsM1
        .byte   W06
        .byte                   CsM1
        .byte   W06
        .byte                   CsM1
        .byte   W06
        .byte                   CsM1
        .byte   W12
        .byte           N11   , CsM2 , v124
        .byte           N02   , CsM1 , v100
        .byte   W06
        .byte                   CsM1
        .byte   W06
        .byte                   CsM1
        .byte   W06
        .byte                   CsM1
        .byte   W06
        .byte           N23   , En1 , v127
        .byte           N23   , As2 , v088
        .byte   W06
        .byte           N02   , CsM1 , v100
        .byte   W06
        .byte                   CsM1
        .byte   W06
        .byte                   CsM1
        .byte   W06
        .byte                   CsM1
        .byte           N23   , En1 , v127
        .byte   W06
        .byte           N02   , CsM1 , v100
        .byte   W06
@ 010   ----------------------------------------
        .byte                   CsM1
        .byte           N44   , An2 , v112
        .byte   W12
        .byte           N02   , CsM1 , v100
        .byte   W06
        .byte           N01
        .byte   W06
        .byte           N02
        .byte   W12
        .byte                   CsM1
        .byte   W06
        .byte                   CsM1
        .byte   W06
        .byte                   CsM1
        .byte   W06
        .byte                   CsM1
        .byte   W06
        .byte                   CsM1
        .byte   W06
        .byte                   CsM1
        .byte   W06
        .byte                   CsM1
        .byte   W12
        .byte                   CsM1
        .byte   W06
        .byte                   CsM1
        .byte   W06
@ 011   ----------------------------------------
mus_pkmn_bw12_076_0_11:
        .byte           N02   , CsM1 , v100
        .byte   W06
        .byte                   CsM1
        .byte   W06
        .byte                   CsM1
        .byte   W06
        .byte                   CsM1
        .byte   W06
        .byte                   CsM1
        .byte   W12
        .byte                   CsM1
        .byte   W06
        .byte                   CsM1
        .byte   W06
        .byte                   CsM1
        .byte   W12
        .byte                   CsM1
        .byte   W06
        .byte                   CsM1
        .byte   W06
        .byte                   CsM1
        .byte   W06
        .byte                   CsM1
        .byte   W06
        .byte                   CsM1
        .byte   W06
        .byte                   CsM1
        .byte   W06
        .byte   PEND
@ 012   ----------------------------------------
mus_pkmn_bw12_076_0_12:
        .byte           N02   , CsM1 , v100
        .byte   W12
        .byte                   CsM1
        .byte   W06
        .byte                   CsM1
        .byte   W06
        .byte                   CsM1
        .byte   W12
        .byte                   CsM1
        .byte   W06
        .byte                   CsM1
        .byte   W06
        .byte                   CsM1
        .byte   W06
        .byte                   CsM1
        .byte   W06
        .byte                   CsM1
        .byte   W06
        .byte                   CsM1
        .byte   W06
        .byte                   CsM1
        .byte   W12
        .byte                   CsM1
        .byte   W06
        .byte                   CsM1
        .byte   W06
        .byte   PEND
@ 013   ----------------------------------------
        .byte   PATT
         .word  mus_pkmn_bw12_076_0_11
@ 014   ----------------------------------------
        .byte   PATT
         .word  mus_pkmn_bw12_076_0_12
@ 015   ----------------------------------------
        .byte   PATT
         .word  mus_pkmn_bw12_076_0_11
@ 016   ----------------------------------------
        .byte   PATT
         .word  mus_pkmn_bw12_076_0_12
@ 017   ----------------------------------------
        .byte           N02   , CsM1 , v100
        .byte   W06
        .byte                   CsM1
        .byte   W06
        .byte                   CsM1
        .byte   W06
        .byte                   CsM1
        .byte   W06
        .byte                   CsM1
        .byte   W12
        .byte                   CsM1
        .byte   W06
        .byte                   CsM1
        .byte   W06
        .byte           N01   , GnM2 , v116
        .byte           N02   , CsM1 , v100
        .byte   W09
        .byte           N01   , GnM2 , v120
        .byte   W03
        .byte                   GnM2 , v100
        .byte           N02   , CsM1
        .byte   W03
        .byte           N01   , GnM2 , v108
        .byte   W03
        .byte                   GnM2 , v127
        .byte           N02   , CsM1
        .byte   W06
        .byte                   CsM1 , v100
        .byte           N02   , As2 , v108
        .byte   W06
        .byte                   CsM1 , v100
        .byte           N02   , As2 , v072
        .byte   W06
        .byte                   CsM1 , v100
        .byte           N02   , As2 , v080
        .byte   W06
        .byte                   CsM1 , v100
        .byte           N02   , As2 , v060
        .byte   W06
@ 018   ----------------------------------------
        .byte                   CsM1 , v100
        .byte           N44   , As2
        .byte   W12
        .byte           N02   , CsM1
        .byte   W06
        .byte                   CsM1
        .byte   W06
        .byte                   CsM1
        .byte   W12
        .byte           N11   , GnM2
        .byte           N02   , CsM1
        .byte   W06
        .byte                   CsM1
        .byte   W06
        .byte                   CsM1
        .byte   W06
        .byte                   CsM1
        .byte   W06
        .byte                   CsM1
        .byte   W06
        .byte                   CsM1
        .byte   W06
        .byte                   CsM1
        .byte   W12
        .byte                   CsM1
        .byte           N24   , En1 , v112
        .byte   W06
        .byte           N02   , CsM1 , v100
        .byte   W06
@ 019   ----------------------------------------
mus_pkmn_bw12_076_0_19:
        .byte           N02   , CsM1 , v100
        .byte   W06
        .byte                   CsM1
        .byte   W06
        .byte                   CsM1
        .byte   W06
        .byte                   CsM1
        .byte   W06
        .byte           N23   , GsM2 , v096
        .byte           N02   , CsM1 , v100
        .byte   W12
        .byte                   CsM1
        .byte   W06
        .byte                   CsM1
        .byte   W06
        .byte                   CsM1
        .byte           N02   , Ds2 , v116
        .byte   W06
        .byte                   Ds2
        .byte   W06
        .byte                   CsM1 , v100
        .byte           N02   , Ds2 , v116
        .byte   W06
        .byte                   CsM1 , v100
        .byte           N02   , Ds2 , v116
        .byte   W06
        .byte           N11   , GnM2 , v127
        .byte           N02   , CsM1 , v100
        .byte   W06
        .byte                   CsM1
        .byte   W06
        .byte                   CsM1
        .byte           N11   , Dn2 , v127
        .byte   W06
        .byte           N02   , CsM1 , v100
        .byte   W06
        .byte   PEND
@ 020   ----------------------------------------
mus_pkmn_bw12_076_0_20:
        .byte           N02   , CsM1 , v100
        .byte   W12
        .byte                   CsM1
        .byte   W06
        .byte                   CsM1
        .byte   W06
        .byte                   CsM1
        .byte   W12
        .byte           N11   , GnM2
        .byte           N02   , CsM1
        .byte   W06
        .byte                   CsM1
        .byte   W06
        .byte                   CsM1
        .byte   W06
        .byte                   CsM1
        .byte   W06
        .byte                   CsM1
        .byte   W06
        .byte                   CsM1
        .byte   W06
        .byte                   CsM1
        .byte   W12
        .byte                   CsM1
        .byte           N24   , En1 , v112
        .byte   W06
        .byte           N02   , CsM1 , v100
        .byte   W06
        .byte   PEND
@ 021   ----------------------------------------
        .byte   PATT
         .word  mus_pkmn_bw12_076_0_19
@ 022   ----------------------------------------
        .byte   PATT
         .word  mus_pkmn_bw12_076_0_20
@ 023   ----------------------------------------
        .byte   PATT
         .word  mus_pkmn_bw12_076_0_19
@ 024   ----------------------------------------
        .byte   PATT
         .word  mus_pkmn_bw12_076_0_20
@ 025   ----------------------------------------
        .byte   PATT
         .word  mus_pkmn_bw12_076_0_19
@ 026   ----------------------------------------
        .byte           N02   , CsM1 , v100
        .byte           N92   , Ds2
        .byte   W12
        .byte           N02   , CsM1
        .byte   W06
        .byte                   CsM1
        .byte   W06
        .byte                   CsM1
        .byte   W12
        .byte                   CsM1
        .byte   W06
        .byte                   CsM1
        .byte   W06
        .byte                   CsM1
        .byte   W06
        .byte                   CsM1
        .byte   W06
        .byte                   CsM1
        .byte   W06
        .byte                   CsM1
        .byte   W06
        .byte                   CsM1
        .byte   W12
        .byte                   CsM1
        .byte   W06
        .byte                   CsM1
        .byte   W06
@ 027   ----------------------------------------
        .byte   PATT
         .word  mus_pkmn_bw12_076_0_11
@ 028   ----------------------------------------
        .byte   PATT
         .word  mus_pkmn_bw12_076_0_12
@ 029   ----------------------------------------
        .byte           N02   , CsM1 , v100
        .byte   W06
        .byte                   CsM1
        .byte   W06
        .byte                   CsM1
        .byte   W06
        .byte                   CsM1
        .byte   W06
        .byte                   CsM1
        .byte   W12
        .byte                   CsM1
        .byte   W06
        .byte                   CsM1
        .byte   W06
        .byte                   CsM1
        .byte   W12
        .byte                   GnM2 , v112
        .byte           N02   , CsM1 , v100
        .byte   W06
        .byte           N05   , GnM2 , v120
        .byte           N02   , CsM1 , v100
        .byte   W06
        .byte                   CsM1
        .byte   W06
        .byte                   CsM1
        .byte   W06
        .byte                   GnM2 , v127
        .byte           N02   , CsM1 , v100
        .byte   W06
        .byte           N05   , GnM2 , v127
        .byte           N02   , CsM1 , v100
        .byte   W06
@ 030   ----------------------------------------
        .byte                   CsM1
        .byte           N92   , An2 , v108
        .byte   W12
        .byte           N02   , CsM1 , v100
        .byte   W06
        .byte                   CsM1
        .byte   W06
        .byte                   CsM1
        .byte   W12
        .byte                   CsM1
        .byte   W06
        .byte                   CsM1
        .byte   W06
        .byte                   CsM1
        .byte   W06
        .byte                   CsM1
        .byte   W06
        .byte                   CsM1
        .byte   W06
        .byte                   CsM1
        .byte   W06
        .byte                   CsM1
        .byte   W12
        .byte                   CsM1
        .byte   W06
        .byte                   CsM1
        .byte   W06
@ 031   ----------------------------------------
        .byte   PATT
         .word  mus_pkmn_bw12_076_0_11
@ 032   ----------------------------------------
        .byte   PATT
         .word  mus_pkmn_bw12_076_0_12
@ 033   ----------------------------------------
        .byte   PATT
         .word  mus_pkmn_bw12_076_0_11
@ 034   ----------------------------------------
        .byte   TEMPO , 164/2
        .byte   W96
@ 035   ----------------------------------------
        .byte   TEMPO , 160/2
        .byte   W96
@ 036   ----------------------------------------
        .byte   TEMPO , 150/2
        .byte   W96
@ 037   ----------------------------------------
        .byte   TEMPO , 144/2
        .byte   W96
@ 038   ----------------------------------------
        .byte   W96
@ 039   ----------------------------------------
        .byte   TEMPO , 152/2
        .byte   W96
@ 040   ----------------------------------------
        .byte   TEMPO , 162/2
        .byte   W96
@ 041   ----------------------------------------
        .byte   TEMPO , 172/2
        .byte   W96
@ 042   ----------------------------------------
        .byte   TEMPO , 184/2
        .byte   W96
@ 043   ----------------------------------------
        .byte   W96
@ 044   ----------------------------------------
        .byte   TEMPO , 198/2
        .byte   W96
@ 045   ----------------------------------------
        .byte   W60
        .byte           N02   , CsM1 , v100
        .byte   W06
        .byte                   CsM1
        .byte   W06
        .byte                   CsM1
        .byte   W06
        .byte                   CsM1
        .byte   W06
        .byte                   CsM1
        .byte   W06
        .byte                   CsM1
        .byte   W06
@ 046   ----------------------------------------
        .byte   PATT
         .word  mus_pkmn_bw12_076_0_12
@ 047   ----------------------------------------
        .byte   PATT
         .word  mus_pkmn_bw12_076_0_11
@ 048   ----------------------------------------
        .byte   PATT
         .word  mus_pkmn_bw12_076_0_12
@ 049   ----------------------------------------
        .byte   TEMPO , 176/2
        .byte           N02   , CsM1 , v100
        .byte   W06
        .byte                   CsM1
        .byte   W06
        .byte                   CsM1
        .byte   W06
        .byte                   CsM1
        .byte   W06
        .byte   TEMPO , 168/2
        .byte                   CsM1
        .byte   W12
        .byte                   CsM1
        .byte   W06
        .byte                   CsM1
        .byte   W06
        .byte   TEMPO , 156/2
        .byte                   CsM1
        .byte   W12
        .byte                   CsM1
        .byte   W06
        .byte                   CsM1
        .byte   W06
        .byte   TEMPO , 150/2
        .byte                   CsM1
        .byte   W06
        .byte                   CsM1
        .byte   W06
        .byte                   CsM1
        .byte   W06
        .byte                   CsM1
        .byte   W06
@ 050   ----------------------------------------
        .byte   TEMPO , 172/2
        .byte                   CsM1
        .byte           N92   , An2
        .byte   W12
        .byte           N02   , CsM1
        .byte   W06
        .byte                   CsM1
        .byte   W06
        .byte                   CsM1
        .byte   W12
        .byte                   CsM1
        .byte   W06
        .byte                   CsM1
        .byte   W06
        .byte                   CsM1
        .byte   W06
        .byte                   CsM1
        .byte   W06
        .byte                   CsM1
        .byte   W06
        .byte                   CsM1
        .byte   W06
        .byte                   CsM1
        .byte   W12
        .byte                   CsM1
        .byte   W06
        .byte                   CsM1
        .byte   W06
@ 051   ----------------------------------------
        .byte   PATT
         .word  mus_pkmn_bw12_076_0_11
@ 052   ----------------------------------------
        .byte   PATT
         .word  mus_pkmn_bw12_076_0_12
@ 053   ----------------------------------------
        .byte   PATT
         .word  mus_pkmn_bw12_076_0_11
@ 054   ----------------------------------------
        .byte   PATT
         .word  mus_pkmn_bw12_076_0_12
@ 055   ----------------------------------------
        .byte   PATT
         .word  mus_pkmn_bw12_076_0_11
@ 056   ----------------------------------------
        .byte   PATT
         .word  mus_pkmn_bw12_076_0_12
@ 057   ----------------------------------------
        .byte   PATT
         .word  mus_pkmn_bw12_076_0_11
@ 058   ----------------------------------------
        .byte   PATT
         .word  mus_pkmn_bw12_076_0_12
@ 059   ----------------------------------------
        .byte   PATT
         .word  mus_pkmn_bw12_076_0_11
@ 060   ----------------------------------------
        .byte   PATT
         .word  mus_pkmn_bw12_076_0_12
@ 061   ----------------------------------------
        .byte   PATT
         .word  mus_pkmn_bw12_076_0_11
@ 062   ----------------------------------------
        .byte   W96
@ 063   ----------------------------------------
        .byte   W96
@ 064   ----------------------------------------
        .byte   W96
@ 065   ----------------------------------------
        .byte   W96
@ 066   ----------------------------------------
        .byte   W96
@ 067   ----------------------------------------
        .byte   W96
@ 068   ----------------------------------------
        .byte   W96
@ 069   ----------------------------------------
        .byte   W96
@ 070   ----------------------------------------
        .byte   GOTO
         .word  mus_pkmn_bw12_076_0_LOOP
        .byte   FINE

@****************** Track 1 (Midi-Chn.1) ******************@

mus_pkmn_bw12_076_1:
        .byte   KEYSH , mus_pkmn_bw12_076_key+0
@ 000   ----------------------------------------
        .byte           VOICE , 115
        .byte           LFOS  , 44
        .byte           BENDR , 12
        .byte           VOL   , 37
        .byte   W96
@ 001   ----------------------------------------
        .byte   W96
@ 002   ----------------------------------------
mus_pkmn_bw12_076_1_2:
        .byte           N20   , Cn3 , v100
        .byte   W24
        .byte                   Cn3
        .byte   W24
        .byte                   Cn3
        .byte   W24
        .byte                   Cn3
        .byte   W24
        .byte   PEND
@ 003   ----------------------------------------
        .byte   PATT
         .word  mus_pkmn_bw12_076_1_2
@ 004   ----------------------------------------
        .byte   PATT
         .word  mus_pkmn_bw12_076_1_2
@ 005   ----------------------------------------
        .byte   PATT
         .word  mus_pkmn_bw12_076_1_2
@ 006   ----------------------------------------
mus_pkmn_bw12_076_1_LOOP:
        .byte           N20   , Cn3 , v100
        .byte   W24
        .byte                   Cn3
        .byte   W24
        .byte                   Cn3
        .byte   W24
        .byte                   Cn3
        .byte   W24
@ 007   ----------------------------------------
        .byte   PATT
         .word  mus_pkmn_bw12_076_1_2
@ 008   ----------------------------------------
        .byte   PATT
         .word  mus_pkmn_bw12_076_1_2
@ 009   ----------------------------------------
        .byte   PATT
         .word  mus_pkmn_bw12_076_1_2
@ 010   ----------------------------------------
        .byte   PATT
         .word  mus_pkmn_bw12_076_1_2
@ 011   ----------------------------------------
        .byte   PATT
         .word  mus_pkmn_bw12_076_1_2
@ 012   ----------------------------------------
        .byte   PATT
         .word  mus_pkmn_bw12_076_1_2
@ 013   ----------------------------------------
        .byte   PATT
         .word  mus_pkmn_bw12_076_1_2
@ 014   ----------------------------------------
        .byte   PATT
         .word  mus_pkmn_bw12_076_1_2
@ 015   ----------------------------------------
        .byte   PATT
         .word  mus_pkmn_bw12_076_1_2
@ 016   ----------------------------------------
        .byte   PATT
         .word  mus_pkmn_bw12_076_1_2
@ 017   ----------------------------------------
        .byte   PATT
         .word  mus_pkmn_bw12_076_1_2
@ 018   ----------------------------------------
        .byte   PATT
         .word  mus_pkmn_bw12_076_1_2
@ 019   ----------------------------------------
        .byte   PATT
         .word  mus_pkmn_bw12_076_1_2
@ 020   ----------------------------------------
        .byte   PATT
         .word  mus_pkmn_bw12_076_1_2
@ 021   ----------------------------------------
        .byte   PATT
         .word  mus_pkmn_bw12_076_1_2
@ 022   ----------------------------------------
        .byte   PATT
         .word  mus_pkmn_bw12_076_1_2
@ 023   ----------------------------------------
        .byte   PATT
         .word  mus_pkmn_bw12_076_1_2
@ 024   ----------------------------------------
        .byte   PATT
         .word  mus_pkmn_bw12_076_1_2
@ 025   ----------------------------------------
        .byte   PATT
         .word  mus_pkmn_bw12_076_1_2
@ 026   ----------------------------------------
        .byte   PATT
         .word  mus_pkmn_bw12_076_1_2
@ 027   ----------------------------------------
        .byte   PATT
         .word  mus_pkmn_bw12_076_1_2
@ 028   ----------------------------------------
        .byte   PATT
         .word  mus_pkmn_bw12_076_1_2
@ 029   ----------------------------------------
        .byte   PATT
         .word  mus_pkmn_bw12_076_1_2
@ 030   ----------------------------------------
        .byte   PATT
         .word  mus_pkmn_bw12_076_1_2
@ 031   ----------------------------------------
        .byte   PATT
         .word  mus_pkmn_bw12_076_1_2
@ 032   ----------------------------------------
        .byte   PATT
         .word  mus_pkmn_bw12_076_1_2
@ 033   ----------------------------------------
        .byte   PATT
         .word  mus_pkmn_bw12_076_1_2
@ 034   ----------------------------------------
        .byte   PATT
         .word  mus_pkmn_bw12_076_1_2
@ 035   ----------------------------------------
        .byte   PATT
         .word  mus_pkmn_bw12_076_1_2
@ 036   ----------------------------------------
        .byte   PATT
         .word  mus_pkmn_bw12_076_1_2
@ 037   ----------------------------------------
        .byte   PATT
         .word  mus_pkmn_bw12_076_1_2
@ 038   ----------------------------------------
        .byte   PATT
         .word  mus_pkmn_bw12_076_1_2
@ 039   ----------------------------------------
        .byte   PATT
         .word  mus_pkmn_bw12_076_1_2
@ 040   ----------------------------------------
        .byte   PATT
         .word  mus_pkmn_bw12_076_1_2
@ 041   ----------------------------------------
        .byte   PATT
         .word  mus_pkmn_bw12_076_1_2
@ 042   ----------------------------------------
        .byte   PATT
         .word  mus_pkmn_bw12_076_1_2
@ 043   ----------------------------------------
        .byte   PATT
         .word  mus_pkmn_bw12_076_1_2
@ 044   ----------------------------------------
        .byte   PATT
         .word  mus_pkmn_bw12_076_1_2
@ 045   ----------------------------------------
        .byte   PATT
         .word  mus_pkmn_bw12_076_1_2
@ 046   ----------------------------------------
        .byte   PATT
         .word  mus_pkmn_bw12_076_1_2
@ 047   ----------------------------------------
        .byte   PATT
         .word  mus_pkmn_bw12_076_1_2
@ 048   ----------------------------------------
        .byte   PATT
         .word  mus_pkmn_bw12_076_1_2
@ 049   ----------------------------------------
        .byte   PATT
         .word  mus_pkmn_bw12_076_1_2
@ 050   ----------------------------------------
        .byte   PATT
         .word  mus_pkmn_bw12_076_1_2
@ 051   ----------------------------------------
        .byte   PATT
         .word  mus_pkmn_bw12_076_1_2
@ 052   ----------------------------------------
        .byte   PATT
         .word  mus_pkmn_bw12_076_1_2
@ 053   ----------------------------------------
        .byte   PATT
         .word  mus_pkmn_bw12_076_1_2
@ 054   ----------------------------------------
        .byte   PATT
         .word  mus_pkmn_bw12_076_1_2
@ 055   ----------------------------------------
        .byte   PATT
         .word  mus_pkmn_bw12_076_1_2
@ 056   ----------------------------------------
        .byte   PATT
         .word  mus_pkmn_bw12_076_1_2
@ 057   ----------------------------------------
        .byte   PATT
         .word  mus_pkmn_bw12_076_1_2
@ 058   ----------------------------------------
        .byte   PATT
         .word  mus_pkmn_bw12_076_1_2
@ 059   ----------------------------------------
        .byte   PATT
         .word  mus_pkmn_bw12_076_1_2
@ 060   ----------------------------------------
        .byte   PATT
         .word  mus_pkmn_bw12_076_1_2
@ 061   ----------------------------------------
        .byte   PATT
         .word  mus_pkmn_bw12_076_1_2
@ 062   ----------------------------------------
        .byte   PATT
         .word  mus_pkmn_bw12_076_1_2
@ 063   ----------------------------------------
        .byte   PATT
         .word  mus_pkmn_bw12_076_1_2
@ 064   ----------------------------------------
        .byte   PATT
         .word  mus_pkmn_bw12_076_1_2
@ 065   ----------------------------------------
        .byte   PATT
         .word  mus_pkmn_bw12_076_1_2
@ 066   ----------------------------------------
        .byte   PATT
         .word  mus_pkmn_bw12_076_1_2
@ 067   ----------------------------------------
        .byte   PATT
         .word  mus_pkmn_bw12_076_1_2
@ 068   ----------------------------------------
        .byte   PATT
         .word  mus_pkmn_bw12_076_1_2
@ 069   ----------------------------------------
        .byte   PATT
         .word  mus_pkmn_bw12_076_1_2
@ 070   ----------------------------------------
        .byte   GOTO
         .word  mus_pkmn_bw12_076_1_LOOP
        .byte   FINE

@****************** Track 2 (Midi-Chn.2) ******************@

mus_pkmn_bw12_076_2:
        .byte   KEYSH , mus_pkmn_bw12_076_key+0
@ 000   ----------------------------------------
        .byte           VOICE , 116
        .byte           LFOS  , 44
        .byte           BENDR , 12
        .byte           VOL   , 44
        .byte   W96
@ 001   ----------------------------------------
        .byte   W72
        .byte           N23   , Cn3 , v068
        .byte   W24
@ 002   ----------------------------------------
        .byte   W96
@ 003   ----------------------------------------
        .byte   W96
@ 004   ----------------------------------------
        .byte   W96
@ 005   ----------------------------------------
        .byte   W96
@ 006   ----------------------------------------
mus_pkmn_bw12_076_2_LOOP:
        .byte   W96
@ 007   ----------------------------------------
        .byte   W96
@ 008   ----------------------------------------
        .byte   W96
@ 009   ----------------------------------------
        .byte   W96
@ 010   ----------------------------------------
        .byte   W96
@ 011   ----------------------------------------
        .byte   W96
@ 012   ----------------------------------------
        .byte   W96
@ 013   ----------------------------------------
        .byte   W96
@ 014   ----------------------------------------
        .byte   W96
@ 015   ----------------------------------------
        .byte   W96
@ 016   ----------------------------------------
        .byte   W96
@ 017   ----------------------------------------
        .byte   W96
@ 018   ----------------------------------------
        .byte   W96
@ 019   ----------------------------------------
        .byte   W96
@ 020   ----------------------------------------
        .byte   W96
@ 021   ----------------------------------------
        .byte   W96
@ 022   ----------------------------------------
        .byte   W96
@ 023   ----------------------------------------
        .byte   W96
@ 024   ----------------------------------------
        .byte   W96
@ 025   ----------------------------------------
        .byte   W96
@ 026   ----------------------------------------
        .byte   W96
@ 027   ----------------------------------------
        .byte   W96
@ 028   ----------------------------------------
        .byte   W96
@ 029   ----------------------------------------
        .byte   W12
        .byte           N11   , Cn3 , v076
        .byte   W18
        .byte           N17
        .byte   W18
        .byte           N11   , Cn3 , v092
        .byte   W24
        .byte                   Cn3 , v080
        .byte   W24
@ 030   ----------------------------------------
        .byte   W96
@ 031   ----------------------------------------
        .byte   W96
@ 032   ----------------------------------------
        .byte   W96
@ 033   ----------------------------------------
        .byte   W96
@ 034   ----------------------------------------
        .byte   W96
@ 035   ----------------------------------------
        .byte   W96
@ 036   ----------------------------------------
        .byte   W96
@ 037   ----------------------------------------
        .byte   W96
@ 038   ----------------------------------------
        .byte           N20   , Cn3 , v076
        .byte   W96
@ 039   ----------------------------------------
        .byte   W96
@ 040   ----------------------------------------
        .byte                   Cn3
        .byte   W96
@ 041   ----------------------------------------
        .byte   W96
@ 042   ----------------------------------------
        .byte                   Cn3
        .byte   W96
@ 043   ----------------------------------------
        .byte   W96
@ 044   ----------------------------------------
        .byte                   Cn3
        .byte   W96
@ 045   ----------------------------------------
        .byte   W96
@ 046   ----------------------------------------
        .byte   W96
@ 047   ----------------------------------------
        .byte   W96
@ 048   ----------------------------------------
        .byte   W96
@ 049   ----------------------------------------
        .byte   W96
@ 050   ----------------------------------------
        .byte   W96
@ 051   ----------------------------------------
        .byte   W96
@ 052   ----------------------------------------
        .byte   W96
@ 053   ----------------------------------------
        .byte   W96
@ 054   ----------------------------------------
        .byte   W96
@ 055   ----------------------------------------
        .byte   W96
@ 056   ----------------------------------------
        .byte   W96
@ 057   ----------------------------------------
        .byte   W96
@ 058   ----------------------------------------
        .byte   W96
@ 059   ----------------------------------------
        .byte   W96
@ 060   ----------------------------------------
        .byte   W96
@ 061   ----------------------------------------
        .byte   W96
@ 062   ----------------------------------------
        .byte   W96
@ 063   ----------------------------------------
        .byte   W96
@ 064   ----------------------------------------
        .byte   W96
@ 065   ----------------------------------------
        .byte   W96
@ 066   ----------------------------------------
        .byte   W96
@ 067   ----------------------------------------
        .byte   W96
@ 068   ----------------------------------------
        .byte   W96
@ 069   ----------------------------------------
        .byte   W96
@ 070   ----------------------------------------
        .byte   GOTO
         .word  mus_pkmn_bw12_076_2_LOOP
        .byte   FINE

@****************** Track 3 (Midi-Chn.3) ******************@

mus_pkmn_bw12_076_3:
        .byte   KEYSH , mus_pkmn_bw12_076_key+0
@ 000   ----------------------------------------
        .byte           VOICE , 117
        .byte           LFOS  , 44
        .byte           BENDR , 12
        .byte           VOL   , 65
        .byte   W96
@ 001   ----------------------------------------
        .byte   W96
@ 002   ----------------------------------------
        .byte   W96
@ 003   ----------------------------------------
        .byte   W96
@ 004   ----------------------------------------
        .byte   W96
@ 005   ----------------------------------------
        .byte   W96
@ 006   ----------------------------------------
mus_pkmn_bw12_076_3_LOOP:
        .byte   W96
@ 007   ----------------------------------------
        .byte   W96
@ 008   ----------------------------------------
        .byte   W96
@ 009   ----------------------------------------
        .byte   W96
@ 010   ----------------------------------------
        .byte   W96
@ 011   ----------------------------------------
        .byte   W96
@ 012   ----------------------------------------
        .byte   W96
@ 013   ----------------------------------------
        .byte   W96
@ 014   ----------------------------------------
        .byte   W96
@ 015   ----------------------------------------
        .byte   W96
@ 016   ----------------------------------------
        .byte   W96
@ 017   ----------------------------------------
        .byte   W96
@ 018   ----------------------------------------
mus_pkmn_bw12_076_3_18:
        .byte   W24
        .byte           N02   , Ds2 , v100
        .byte   W72
        .byte   PEND
@ 019   ----------------------------------------
        .byte   W96
@ 020   ----------------------------------------
        .byte   PATT
         .word  mus_pkmn_bw12_076_3_18
@ 021   ----------------------------------------
        .byte   W96
@ 022   ----------------------------------------
        .byte   PATT
         .word  mus_pkmn_bw12_076_3_18
@ 023   ----------------------------------------
        .byte   W96
@ 024   ----------------------------------------
        .byte   PATT
         .word  mus_pkmn_bw12_076_3_18
@ 025   ----------------------------------------
        .byte   W96
@ 026   ----------------------------------------
        .byte   W96
@ 027   ----------------------------------------
        .byte   W96
@ 028   ----------------------------------------
        .byte   W96
@ 029   ----------------------------------------
        .byte   W96
@ 030   ----------------------------------------
        .byte   W96
@ 031   ----------------------------------------
        .byte   W96
@ 032   ----------------------------------------
        .byte   W96
@ 033   ----------------------------------------
        .byte   W96
@ 034   ----------------------------------------
        .byte   W96
@ 035   ----------------------------------------
        .byte   W96
@ 036   ----------------------------------------
        .byte   W96
@ 037   ----------------------------------------
        .byte   W96
@ 038   ----------------------------------------
mus_pkmn_bw12_076_3_38:
        .byte           N17   , Ds2 , v100
        .byte   W24
        .byte                   Ds2
        .byte   W18
        .byte           N05
        .byte   W06
        .byte                   Ds2
        .byte   W24
        .byte                   Ds2
        .byte   W24
        .byte   PEND
@ 039   ----------------------------------------
mus_pkmn_bw12_076_3_39:
        .byte           N05   , Ds2 , v100
        .byte   W12
        .byte                   Ds2
        .byte   W12
        .byte                   Ds2
        .byte   W12
        .byte                   Ds2
        .byte   W12
        .byte                   Ds2
        .byte   W24
        .byte                   Ds2
        .byte   W24
        .byte   PEND
@ 040   ----------------------------------------
        .byte   PATT
         .word  mus_pkmn_bw12_076_3_38
@ 041   ----------------------------------------
        .byte   PATT
         .word  mus_pkmn_bw12_076_3_39
@ 042   ----------------------------------------
        .byte   PATT
         .word  mus_pkmn_bw12_076_3_38
@ 043   ----------------------------------------
        .byte   PATT
         .word  mus_pkmn_bw12_076_3_39
@ 044   ----------------------------------------
        .byte   PATT
         .word  mus_pkmn_bw12_076_3_38
@ 045   ----------------------------------------
        .byte           N05   , Ds2 , v100
        .byte   W12
        .byte                   Ds2
        .byte   W12
        .byte                   Ds2
        .byte   W12
        .byte                   Ds2
        .byte   W12
        .byte                   Ds2
        .byte   W48
@ 046   ----------------------------------------
        .byte   W96
@ 047   ----------------------------------------
        .byte   W96
@ 048   ----------------------------------------
        .byte   W96
@ 049   ----------------------------------------
        .byte   W96
@ 050   ----------------------------------------
        .byte   W96
@ 051   ----------------------------------------
        .byte   W96
@ 052   ----------------------------------------
        .byte   W96
@ 053   ----------------------------------------
        .byte   W96
@ 054   ----------------------------------------
        .byte   W96
@ 055   ----------------------------------------
        .byte   W96
@ 056   ----------------------------------------
        .byte   W96
@ 057   ----------------------------------------
        .byte   W96
@ 058   ----------------------------------------
        .byte   W96
@ 059   ----------------------------------------
        .byte   W96
@ 060   ----------------------------------------
        .byte   W96
@ 061   ----------------------------------------
        .byte   W96
@ 062   ----------------------------------------
        .byte   W96
@ 063   ----------------------------------------
        .byte   W96
@ 064   ----------------------------------------
        .byte   W96
@ 065   ----------------------------------------
        .byte   W96
@ 066   ----------------------------------------
        .byte   W96
@ 067   ----------------------------------------
        .byte   W96
@ 068   ----------------------------------------
        .byte   W96
@ 069   ----------------------------------------
        .byte   W96
@ 070   ----------------------------------------
        .byte   GOTO
         .word  mus_pkmn_bw12_076_3_LOOP
        .byte   FINE

@****************** Track 4 (Midi-Chn.4) ******************@

mus_pkmn_bw12_076_4:
        .byte   KEYSH , mus_pkmn_bw12_076_key+0
@ 000   ----------------------------------------
        .byte           VOICE , 61
        .byte           LFOS  , 44
        .byte           BENDR , 12
        .byte           VOL   , 48
        .byte           N08   , Ds4 , v012
        .byte           N08   , Ds5
        .byte   W24
        .byte                   Ds4 , v016
        .byte           N08   , Ds5
        .byte   W24
        .byte                   Ds4 , v020
        .byte           N08   , Ds5
        .byte   W24
        .byte                   Ds4 , v032
        .byte           N08   , Ds5
        .byte   W24
@ 001   ----------------------------------------
        .byte           N14   , Ds4 , v044
        .byte           N14   , Ds5
        .byte   W24
        .byte           N17   , Ds4 , v068
        .byte           N17   , Ds5
        .byte   W24
        .byte           N23   , Ds4 , v084
        .byte           N23   , Ds5
        .byte   W24
        .byte           N92   , Ds4 , v108
        .byte           N92   , Ds5
        .byte   W12
        .byte           VOL   , 49
        .byte   W06
        .byte                   46
        .byte   W06
@ 002   ----------------------------------------
        .byte                   41
        .byte   W06
        .byte                   37
        .byte   W06
        .byte                   32
        .byte   W06
        .byte                   29
        .byte   W06
        .byte                   24
        .byte   W06
        .byte                   21
        .byte   W06
        .byte                   17
        .byte   W06
        .byte                   15
        .byte   W06
        .byte                   11
        .byte   W06
        .byte                   9
        .byte   W06
        .byte                   7
        .byte   W06
        .byte                   5
        .byte   W06
        .byte                   3
        .byte   W06
        .byte                   1
        .byte   W12
        .byte                   0
        .byte   W06
@ 003   ----------------------------------------
        .byte                   48
        .byte   W96
@ 004   ----------------------------------------
        .byte   W96
@ 005   ----------------------------------------
        .byte   W96
@ 006   ----------------------------------------
mus_pkmn_bw12_076_4_LOOP:
        .byte           VOICE , 0
        .byte           VOL   , 35
        .byte   W48
        .byte           PAN   , c_v+23
        .byte           N44   , Cn5 , v076
        .byte   W48
@ 007   ----------------------------------------
        .byte   W96
@ 008   ----------------------------------------
        .byte   W48
        .byte                   Cn5 , v060
        .byte   W48
@ 009   ----------------------------------------
        .byte   W48
        .byte           PAN   , c_v+35
        .byte           VOL   , 46
        .byte           N02   , Cn5 , v096
        .byte           N02   , Cn6
        .byte   W09
        .byte           N14   , Cn5 , v032
        .byte           N14   , Cn6
        .byte   W15
        .byte           PAN   , c_v+40
        .byte           N23   , Cn5 , v112
        .byte           N23   , Cn6 , v056
        .byte   W24
@ 010   ----------------------------------------
        .byte   W96
@ 011   ----------------------------------------
        .byte           VOL   , 48
        .byte   W96
@ 012   ----------------------------------------
        .byte   W96
@ 013   ----------------------------------------
        .byte   W96
@ 014   ----------------------------------------
        .byte   W96
@ 015   ----------------------------------------
        .byte   W96
@ 016   ----------------------------------------
        .byte   W96
@ 017   ----------------------------------------
        .byte   W96
@ 018   ----------------------------------------
        .byte   W96
@ 019   ----------------------------------------
        .byte   W96
@ 020   ----------------------------------------
        .byte   W96
@ 021   ----------------------------------------
        .byte   W96
@ 022   ----------------------------------------
        .byte   W96
@ 023   ----------------------------------------
        .byte   W96
@ 024   ----------------------------------------
        .byte   W96
@ 025   ----------------------------------------
        .byte   W96
@ 026   ----------------------------------------
        .byte           TIE   , Cn1 , v100
        .byte   W96
@ 027   ----------------------------------------
        .byte   W96
@ 028   ----------------------------------------
        .byte   W96
@ 029   ----------------------------------------
        .byte   W92
        .byte   W03
        .byte           EOT
        .byte   W01
@ 030   ----------------------------------------
        .byte           TIE   , Ds1
        .byte   W96
@ 031   ----------------------------------------
        .byte   W92
        .byte   W03
        .byte           EOT
        .byte   W01
@ 032   ----------------------------------------
        .byte           TIE   , Ds2
        .byte   W96
@ 033   ----------------------------------------
        .byte   W92
        .byte   W03
        .byte           EOT
        .byte   W01
@ 034   ----------------------------------------
        .byte   W96
@ 035   ----------------------------------------
        .byte   W96
@ 036   ----------------------------------------
        .byte   W96
@ 037   ----------------------------------------
        .byte   W96
@ 038   ----------------------------------------
        .byte   W96
@ 039   ----------------------------------------
        .byte   W96
@ 040   ----------------------------------------
        .byte   W96
@ 041   ----------------------------------------
        .byte   W96
@ 042   ----------------------------------------
        .byte   W96
@ 043   ----------------------------------------
        .byte   W96
@ 044   ----------------------------------------
        .byte   W96
@ 045   ----------------------------------------
        .byte           VOL   , 25
        .byte           PAN   , c_v+34
        .byte   W06
        .byte           N02   , Cn5
        .byte   W12
        .byte                   Gn4
        .byte   W12
        .byte                   Fn4
        .byte   W12
        .byte                   Gn4
        .byte   W12
        .byte                   Cn5
        .byte   W12
        .byte           N14   , Ds5
        .byte   W24
        .byte           N02   , Cs5
        .byte   W06
@ 046   ----------------------------------------
mus_pkmn_bw12_076_4_46:
        .byte   W06
        .byte           N02   , Cn5 , v100
        .byte   W12
        .byte                   Gn4
        .byte   W12
        .byte                   Cn5
        .byte   W12
        .byte                   Gn5
        .byte   W12
        .byte           N14   , Fn5
        .byte   W24
        .byte                   En5
        .byte   W18
        .byte   PEND
@ 047   ----------------------------------------
        .byte   W06
        .byte           N02   , Cn5
        .byte   W12
        .byte                   Fn5
        .byte   W12
        .byte                   Cn6
        .byte   W12
        .byte                   Gn5
        .byte   W12
        .byte                   Cn6
        .byte   W12
        .byte                   Gn5
        .byte   W12
        .byte                   Fn5
        .byte   W12
        .byte                   En5
        .byte   W06
@ 048   ----------------------------------------
        .byte   PATT
         .word  mus_pkmn_bw12_076_4_46
@ 049   ----------------------------------------
        .byte   W06
        .byte           N02   , Cn5 , v100
        .byte   W12
        .byte                   Fn5
        .byte   W12
        .byte                   Cn6
        .byte   W24
        .byte                   Cn6
        .byte   W12
        .byte                   Gn5
        .byte   W12
        .byte                   Fn5
        .byte   W12
        .byte                   En5
        .byte   W06
@ 050   ----------------------------------------
mus_pkmn_bw12_076_4_50:
        .byte   W06
        .byte           N02   , Cn4 , v100
        .byte   W12
        .byte                   Gn3
        .byte   W12
        .byte                   Cn4
        .byte   W12
        .byte                   Gn4
        .byte   W12
        .byte           N14   , Fn4
        .byte   W24
        .byte                   En4
        .byte   W18
        .byte   PEND
@ 051   ----------------------------------------
mus_pkmn_bw12_076_4_51:
        .byte   W06
        .byte           N02   , Cn4 , v100
        .byte   W12
        .byte                   Fn4
        .byte   W12
        .byte                   Cn5
        .byte   W12
        .byte                   Gn4
        .byte   W12
        .byte                   Cn5
        .byte   W12
        .byte                   Gn4
        .byte   W12
        .byte                   Fn4
        .byte   W12
        .byte                   En4
        .byte   W06
        .byte   PEND
@ 052   ----------------------------------------
        .byte   PATT
         .word  mus_pkmn_bw12_076_4_50
@ 053   ----------------------------------------
        .byte   PATT
         .word  mus_pkmn_bw12_076_4_51
@ 054   ----------------------------------------
        .byte           VOICE , 88
        .byte           VOL   , 35
        .byte           PAN   , c_v+21
        .byte           N02   , Cn3 , v100
        .byte   W06
        .byte                   Cn4
        .byte   W06
        .byte                   Gn3
        .byte   W12
        .byte                   Cn3
        .byte   W06
        .byte                   Cn4
        .byte   W06
        .byte                   Gn3
        .byte   W12
        .byte                   Cn3
        .byte   W12
        .byte                   Gn3
        .byte   W12
        .byte                   Cn3
        .byte   W12
        .byte                   Gn3
        .byte   W12
@ 055   ----------------------------------------
mus_pkmn_bw12_076_4_55:
        .byte           N02   , Cn3 , v100
        .byte   W06
        .byte                   Cn4
        .byte   W06
        .byte                   Gn3
        .byte   W12
        .byte                   Cn3
        .byte   W06
        .byte                   Cn4
        .byte   W06
        .byte                   Gn3
        .byte   W12
        .byte                   Cn3
        .byte   W12
        .byte                   Gn3
        .byte   W12
        .byte                   Cn3
        .byte   W12
        .byte                   Gn3
        .byte   W12
        .byte   PEND
@ 056   ----------------------------------------
        .byte   PATT
         .word  mus_pkmn_bw12_076_4_55
@ 057   ----------------------------------------
        .byte   PATT
         .word  mus_pkmn_bw12_076_4_55
@ 058   ----------------------------------------
mus_pkmn_bw12_076_4_58:
        .byte           N05   , Ds3 , v100
        .byte   W06
        .byte                   Ds4
        .byte   W06
        .byte                   As3
        .byte   W12
        .byte                   Ds3
        .byte   W06
        .byte                   Ds4
        .byte   W06
        .byte                   As3
        .byte   W12
        .byte                   Ds3
        .byte   W12
        .byte                   As3
        .byte   W12
        .byte                   Ds3
        .byte   W12
        .byte                   As3
        .byte   W12
        .byte   PEND
@ 059   ----------------------------------------
        .byte   PATT
         .word  mus_pkmn_bw12_076_4_58
@ 060   ----------------------------------------
        .byte   PATT
         .word  mus_pkmn_bw12_076_4_58
@ 061   ----------------------------------------
        .byte           N05   , Ds3 , v100
        .byte   W06
        .byte                   Ds4
        .byte   W06
        .byte                   As3
        .byte   W12
        .byte                   Ds3
        .byte   W06
        .byte                   Ds4
        .byte   W18
        .byte           N44   , Ds6 , v072
        .byte   W09
        .byte           PAN   , c_v+3
        .byte   W03
        .byte                   c_v+46
        .byte   W03
        .byte                   c_v+58
        .byte   W03
        .byte                   c_v+63
        .byte   W03
        .byte                   c_v+49
        .byte   W03
        .byte                   c_v+41
        .byte   W03
        .byte                   c_v+24
        .byte   W03
        .byte                   c_v-4
        .byte   W03
        .byte                   c_v-64
        .byte   W03
        .byte                   c_v-63
        .byte   W03
        .byte                   c_v+47
        .byte   W06
        .byte                   c_v+41
        .byte   W03
@ 062   ----------------------------------------
        .byte                   c_v+0
        .byte   W96
@ 063   ----------------------------------------
        .byte   W96
@ 064   ----------------------------------------
        .byte   W96
@ 065   ----------------------------------------
        .byte   W96
@ 066   ----------------------------------------
        .byte           VOICE , 0
        .byte           VOL   , 41
        .byte           PAN   , c_v+13
        .byte   W01
        .byte           N32   , Cn5 , v040
        .byte   W36
        .byte                   Gn4 , v092
        .byte   W36
        .byte                   As4 , v076
        .byte   W23
@ 067   ----------------------------------------
        .byte   W13
        .byte                   As4 , v044
        .byte   W36
        .byte           N23   , Cs5 , v076
        .byte   W24
        .byte                   As4 , v044
        .byte   W23
@ 068   ----------------------------------------
        .byte   W01
        .byte           N32   , Cn5 , v060
        .byte   W36
        .byte                   Gn4 , v076
        .byte   W36
        .byte                   As4
        .byte   W23
@ 069   ----------------------------------------
        .byte   W13
        .byte                   Fn4 , v088
        .byte   W36
        .byte           N23   , Dn5 , v060
        .byte   W24
        .byte                   As4 , v048
        .byte   W23
@ 070   ----------------------------------------
        .byte           VOL   , 35
        .byte           PAN   , c_v+0
        .byte   GOTO
         .word  mus_pkmn_bw12_076_4_LOOP
        .byte   FINE

@****************** Track 5 (Midi-Chn.5) ******************@

mus_pkmn_bw12_076_5:
        .byte   KEYSH , mus_pkmn_bw12_076_key+0
@ 000   ----------------------------------------
        .byte           VOICE , 29
        .byte           LFOS  , 44
        .byte           BENDR , 12
        .byte           PAN   , c_v+40
        .byte           VOL   , 48
        .byte           N08   , As3 , v012
        .byte   W24
        .byte                   As3 , v028
        .byte   W24
        .byte                   As3 , v036
        .byte   W24
        .byte                   As3 , v044
        .byte   W24
@ 001   ----------------------------------------
        .byte           N14   , As3 , v052
        .byte   W24
        .byte           N17   , As3 , v072
        .byte   W24
        .byte           N23   , As3 , v088
        .byte   W24
        .byte           N92   , As3 , v108
        .byte   W12
        .byte           VOL   , 44
        .byte   W06
        .byte                   41
        .byte   W06
@ 002   ----------------------------------------
        .byte                   37
        .byte   W06
        .byte                   32
        .byte   W06
        .byte                   29
        .byte   W06
        .byte                   24
        .byte   W06
        .byte                   21
        .byte   W06
        .byte                   19
        .byte   W06
        .byte                   15
        .byte   W06
        .byte                   13
        .byte   W06
        .byte                   10
        .byte   W06
        .byte                   7
        .byte   W06
        .byte                   5
        .byte   W12
        .byte                   3
        .byte   W06
        .byte                   1
        .byte   W12
        .byte                   0
        .byte   W06
@ 003   ----------------------------------------
        .byte                   48
        .byte   W96
@ 004   ----------------------------------------
        .byte   W96
@ 005   ----------------------------------------
        .byte   W96
@ 006   ----------------------------------------
mus_pkmn_bw12_076_5_LOOP:
        .byte   W48
        .byte           VOICE , 0
        .byte           PAN   , c_v-1
        .byte           N44   , Cs5 , v052
        .byte   W48
@ 007   ----------------------------------------
        .byte   W96
@ 008   ----------------------------------------
        .byte   W48
        .byte           PAN   , c_v-10
        .byte           N44   , Cs5 , v068
        .byte   W48
@ 009   ----------------------------------------
        .byte   W48
        .byte           PAN   , c_v-22
        .byte           N02   , Cn4 , v052
        .byte           N02   , Cn5
        .byte   W09
        .byte           N14   , Cn4
        .byte           N14   , Cn5
        .byte   W15
        .byte           N23   , Cn4
        .byte           N23   , Cn5
        .byte   W24
@ 010   ----------------------------------------
        .byte   W96
@ 011   ----------------------------------------
        .byte   W96
@ 012   ----------------------------------------
        .byte   W96
@ 013   ----------------------------------------
        .byte   W96
@ 014   ----------------------------------------
        .byte   W96
@ 015   ----------------------------------------
        .byte   W96
@ 016   ----------------------------------------
        .byte   W96
@ 017   ----------------------------------------
        .byte   W96
@ 018   ----------------------------------------
        .byte   W96
@ 019   ----------------------------------------
        .byte   W96
@ 020   ----------------------------------------
        .byte   W96
@ 021   ----------------------------------------
        .byte   W96
@ 022   ----------------------------------------
        .byte   W96
@ 023   ----------------------------------------
        .byte   W96
@ 024   ----------------------------------------
        .byte   W96
@ 025   ----------------------------------------
        .byte   W96
@ 026   ----------------------------------------
        .byte   W96
@ 027   ----------------------------------------
        .byte   W96
@ 028   ----------------------------------------
        .byte   W96
@ 029   ----------------------------------------
        .byte   W96
@ 030   ----------------------------------------
        .byte   W96
@ 031   ----------------------------------------
        .byte   W96
@ 032   ----------------------------------------
        .byte   W96
@ 033   ----------------------------------------
        .byte   W96
@ 034   ----------------------------------------
        .byte   W96
@ 035   ----------------------------------------
        .byte   W96
@ 036   ----------------------------------------
        .byte   W96
@ 037   ----------------------------------------
        .byte   W96
@ 038   ----------------------------------------
        .byte   W96
@ 039   ----------------------------------------
        .byte   W96
@ 040   ----------------------------------------
        .byte   W96
@ 041   ----------------------------------------
        .byte   W96
@ 042   ----------------------------------------
        .byte   W96
@ 043   ----------------------------------------
        .byte   W96
@ 044   ----------------------------------------
        .byte   W96
@ 045   ----------------------------------------
        .byte           PAN   , c_v+0
        .byte           N02   , Gn4 , v100
        .byte           N02   , Cn5
        .byte   W12
        .byte                   En4
        .byte           N02   , Gn4
        .byte   W12
        .byte                   Cn4
        .byte           N02   , Fn4
        .byte   W12
        .byte                   En4
        .byte           N02   , Gn4
        .byte   W12
        .byte                   Gn4
        .byte           N02   , Cn5
        .byte   W12
        .byte           N14   , Gn4
        .byte           N14   , Ds5
        .byte   W24
        .byte           N02   , Gn4
        .byte           N02   , Cs5
        .byte   W12
@ 046   ----------------------------------------
mus_pkmn_bw12_076_5_46:
        .byte           N02   , En4 , v100
        .byte           N02   , Cn5
        .byte   W12
        .byte                   Cn4
        .byte           N02   , Gn4
        .byte   W12
        .byte                   Gn4
        .byte           N02   , Cn5
        .byte   W12
        .byte                   Cn5
        .byte           N02   , Gn5
        .byte   W12
        .byte           N14   , Cn5
        .byte           N14   , Fn5
        .byte   W24
        .byte                   Gn4
        .byte           N14   , En5
        .byte   W24
        .byte   PEND
@ 047   ----------------------------------------
        .byte           N02   , Gn4
        .byte           N02   , Cn5
        .byte   W12
        .byte                   Cn5
        .byte           N02   , Fn5
        .byte   W12
        .byte                   Gn5
        .byte           N02   , Cn6
        .byte   W12
        .byte                   En5
        .byte           N02   , Gn5
        .byte   W12
        .byte                   Gn5
        .byte           N02   , Cn6
        .byte   W12
        .byte                   Cn5
        .byte           N02   , Gn5
        .byte   W12
        .byte                   Cn5
        .byte           N02   , Fn5
        .byte   W12
        .byte                   Gn4
        .byte           N02   , En5
        .byte   W12
@ 048   ----------------------------------------
        .byte   PATT
         .word  mus_pkmn_bw12_076_5_46
@ 049   ----------------------------------------
        .byte           N02   , Gn4 , v100
        .byte           N02   , Cn5
        .byte   W12
        .byte                   Cn5
        .byte           N02   , Fn5
        .byte   W12
        .byte                   Gn5
        .byte           N02   , Cn6
        .byte   W12
        .byte                   En5
        .byte           N02   , Gn5
        .byte   W12
        .byte                   Gn5
        .byte           N02   , Cn6
        .byte   W12
        .byte                   Cn5
        .byte           N02   , Gn5
        .byte   W12
        .byte                   As4
        .byte           N02   , Fn5
        .byte   W12
        .byte                   Gn4
        .byte           N02   , En5
        .byte   W12
@ 050   ----------------------------------------
        .byte           VOL   , 57
        .byte           N02   , Cn4
        .byte   W12
        .byte                   Gn3
        .byte   W12
        .byte                   Cn4
        .byte   W12
        .byte                   Gn4
        .byte   W12
        .byte           N14   , Fn4
        .byte   W24
        .byte                   En4
        .byte   W24
@ 051   ----------------------------------------
mus_pkmn_bw12_076_5_51:
        .byte           N02   , Cn4 , v100
        .byte   W12
        .byte                   Fn4
        .byte   W12
        .byte                   Cn5
        .byte   W12
        .byte                   Gn4
        .byte   W12
        .byte                   Cn5
        .byte   W12
        .byte                   Gn4
        .byte   W12
        .byte                   Fn4
        .byte   W12
        .byte                   En4
        .byte   W12
        .byte   PEND
@ 052   ----------------------------------------
        .byte                   Cn4
        .byte   W12
        .byte                   Gn3
        .byte   W12
        .byte                   Cn4
        .byte   W12
        .byte                   Gn4
        .byte   W12
        .byte           N14   , Fn4
        .byte   W24
        .byte                   En4
        .byte   W24
@ 053   ----------------------------------------
        .byte   PATT
         .word  mus_pkmn_bw12_076_5_51
@ 054   ----------------------------------------
        .byte           PAN   , c_v-14
        .byte           VOL   , 39
        .byte           N02   , Cn4 , v100
        .byte   W06
        .byte                   Cn5
        .byte   W06
        .byte                   Gn4
        .byte   W12
        .byte           PAN   , c_v+12
        .byte           N02   , Cn4
        .byte   W06
        .byte                   Cn5
        .byte   W06
        .byte                   Gn4
        .byte   W12
        .byte           PAN   , c_v-14
        .byte           N02   , Cn4
        .byte   W12
        .byte                   Gn4
        .byte   W12
        .byte                   Cn4
        .byte   W12
        .byte                   Gn4
        .byte   W12
@ 055   ----------------------------------------
        .byte           PAN   , c_v+15
        .byte           N02   , Cn4
        .byte   W06
        .byte                   Cn5
        .byte   W06
        .byte                   Gn4
        .byte   W12
        .byte           PAN   , c_v-17
        .byte           N02   , Cn4
        .byte   W06
        .byte                   Cn5
        .byte   W06
        .byte                   Gn4
        .byte   W12
        .byte           PAN   , c_v+12
        .byte           N02   , Cn4
        .byte   W12
        .byte                   Gn4
        .byte   W12
        .byte                   Cn4
        .byte   W12
        .byte                   Gn4
        .byte   W12
@ 056   ----------------------------------------
        .byte           PAN   , c_v-40
        .byte           N02   , Cn4
        .byte   W06
        .byte                   Cn5
        .byte   W06
        .byte                   Gn4
        .byte   W12
        .byte           PAN   , c_v+40
        .byte           N02   , Cn4
        .byte   W06
        .byte                   Cn5
        .byte   W06
        .byte                   Gn4
        .byte   W12
        .byte           PAN   , c_v-40
        .byte           N02   , Cn4
        .byte   W12
        .byte                   Gn4
        .byte   W12
        .byte                   Cn4
        .byte   W12
        .byte                   Gn4
        .byte   W12
@ 057   ----------------------------------------
        .byte           PAN   , c_v+40
        .byte           N02   , Cn4
        .byte   W06
        .byte                   Cn5
        .byte   W06
        .byte                   Gn4
        .byte   W12
        .byte           PAN   , c_v-41
        .byte           N02   , Cn4
        .byte   W06
        .byte                   Cn5
        .byte   W06
        .byte                   Gn4
        .byte   W12
        .byte           PAN   , c_v+40
        .byte           N02   , Cn4
        .byte   W12
        .byte                   Gn4
        .byte   W12
        .byte                   Cn4
        .byte   W12
        .byte                   Gn4
        .byte   W12
@ 058   ----------------------------------------
        .byte           PAN   , c_v-45
        .byte           N05   , Ds4
        .byte   W06
        .byte                   Ds5
        .byte   W06
        .byte           PAN   , c_v+41
        .byte           N05   , As4
        .byte   W12
        .byte           PAN   , c_v-45
        .byte           N05   , Ds4
        .byte   W06
        .byte                   Ds5
        .byte   W06
        .byte           PAN   , c_v+40
        .byte           N05   , As4
        .byte   W12
        .byte           PAN   , c_v-45
        .byte           N05   , Ds4
        .byte   W12
        .byte           PAN   , c_v+41
        .byte           N05   , As4
        .byte   W12
        .byte           PAN   , c_v-45
        .byte           N05   , Ds4
        .byte   W12
        .byte           PAN   , c_v+40
        .byte           N05   , As4
        .byte   W12
@ 059   ----------------------------------------
        .byte                   Ds4
        .byte   W06
        .byte                   Ds5
        .byte   W06
        .byte           PAN   , c_v-45
        .byte           N05   , As4
        .byte   W12
        .byte           PAN   , c_v+41
        .byte           N05   , Ds4
        .byte   W06
        .byte                   Ds5
        .byte   W06
        .byte           PAN   , c_v-45
        .byte           N05   , As4
        .byte   W12
        .byte           PAN   , c_v+40
        .byte           N05   , Ds4
        .byte   W12
        .byte           PAN   , c_v-45
        .byte           N05   , As4
        .byte   W12
        .byte           PAN   , c_v+41
        .byte           N05   , Ds4
        .byte   W12
        .byte           PAN   , c_v-45
        .byte           N05   , As4
        .byte   W12
@ 060   ----------------------------------------
        .byte                   Ds4
        .byte   W06
        .byte                   Ds5
        .byte   W06
        .byte           PAN   , c_v+41
        .byte           N05   , As4
        .byte   W12
        .byte           PAN   , c_v-45
        .byte           N05   , Ds4
        .byte   W06
        .byte                   Ds5
        .byte   W06
        .byte           PAN   , c_v+40
        .byte           N05   , As4
        .byte   W12
        .byte           PAN   , c_v-45
        .byte           N05   , Ds4
        .byte   W12
        .byte           PAN   , c_v+41
        .byte           N05   , As4
        .byte   W12
        .byte           PAN   , c_v-45
        .byte           N05   , Ds4
        .byte   W12
        .byte           PAN   , c_v+40
        .byte           N05   , As4
        .byte   W12
@ 061   ----------------------------------------
        .byte                   Ds4
        .byte   W06
        .byte                   Ds5
        .byte   W06
        .byte           PAN   , c_v-45
        .byte           N05   , As4
        .byte   W12
        .byte           PAN   , c_v+41
        .byte           N05   , Ds4
        .byte   W06
        .byte                   Ds5
        .byte   W06
        .byte           PAN   , c_v-45
        .byte           N05   , As4 , v112
        .byte           N05   , Bn4
        .byte   W12
        .byte           PAN   , c_v+40
        .byte           N05   , Ds3 , v127
        .byte           N05   , Cs4
        .byte   W12
        .byte           PAN   , c_v-45
        .byte           N05   , As4
        .byte   W12
        .byte           PAN   , c_v+41
        .byte           N05   , Ds4
        .byte   W12
        .byte           PAN   , c_v-45
        .byte           N05   , As4 , v100
        .byte   W12
@ 062   ----------------------------------------
        .byte                   An6
        .byte           N05   , As6
        .byte   W06
        .byte                   Cn5
        .byte           N05   , Cs5
        .byte   W03
        .byte           PAN   , c_v+20
        .byte   W06
        .byte           N05   , Bn5
        .byte           N05   , Cn6
        .byte   W12
        .byte           PAN   , c_v-58
        .byte   W24
        .byte           N05   , Gn6
        .byte           N05   , Gs6
        .byte   W03
        .byte           PAN   , c_v+56
        .byte   W24
        .byte   W01
        .byte           N05   , Bn4
        .byte           N05   , Cn5
        .byte   W17
@ 063   ----------------------------------------
        .byte   W16
        .byte                   Bn3
        .byte           N05   , Cn4
        .byte   W32
        .byte           N02   , Ds4 , v068
        .byte           N02   , En4
        .byte   W10
        .byte                   Dn6 , v052
        .byte           N02   , Ds6
        .byte   W36
        .byte   W02
@ 064   ----------------------------------------
        .byte   W36
        .byte   W01
        .byte           N01   , As5
        .byte           N01   , Bn5
        .byte   W02
        .byte           N05   , Bn6 , v048
        .byte           N05   , Cn7
        .byte   W04
        .byte           N02   , Ds4 , v036
        .byte           N02   , En4
        .byte   W32
        .byte   W01
        .byte           N01   , As4 , v016
        .byte           N01   , Bn4
        .byte   W20
@ 065   ----------------------------------------
        .byte   W01
        .byte                   En5 , v052
        .byte   W24
        .byte   W02
        .byte                   Ds6 , v036
        .byte   W52
        .byte                   Dn3 , v020
        .byte   W02
        .byte                   Fs6 , v024
        .byte   W15
@ 066   ----------------------------------------
        .byte           PAN   , c_v-27
        .byte           N32   , Cn5 , v068
        .byte   W36
        .byte           PAN   , c_v+7
        .byte           N32   , Gn4 , v084
        .byte   W36
        .byte           PAN   , c_v+26
        .byte           N32   , As4 , v052
        .byte   W24
@ 067   ----------------------------------------
        .byte   W12
        .byte           PAN   , c_v-29
        .byte           N32   , As4 , v048
        .byte   W32
        .byte   W01
        .byte           PAN   , c_v+32
        .byte   W03
        .byte           N23   , Fs5 , v068
        .byte   W24
        .byte           PAN   , c_v+5
        .byte           N23   , As4 , v048
        .byte   W24
@ 068   ----------------------------------------
        .byte           PAN   , c_v-21
        .byte           N32   , Cn5 , v060
        .byte   W36
        .byte           PAN   , c_v+12
        .byte           N32   , Gn4 , v076
        .byte   W36
        .byte           PAN   , c_v+24
        .byte           N32   , As4 , v088
        .byte   W24
@ 069   ----------------------------------------
        .byte           PAN   , c_v-20
        .byte   W12
        .byte           N32   , Fn4 , v076
        .byte   W36
        .byte           N23   , Cs5 , v048
        .byte   W12
        .byte           PAN   , c_v+17
        .byte   W12
        .byte                   c_v-17
        .byte           N23   , As4 , v056
        .byte   W24
@ 070   ----------------------------------------
        .byte           VOICE , 29
        .byte           VOL   , 48
        .byte           PAN   , c_v+40
        .byte   GOTO
         .word  mus_pkmn_bw12_076_5_LOOP
        .byte   FINE

@****************** Track 6 (Midi-Chn.6) ******************@

mus_pkmn_bw12_076_6:
        .byte   KEYSH , mus_pkmn_bw12_076_key+0
@ 000   ----------------------------------------
        .byte           VOICE , 78
        .byte           LFOS  , 44
        .byte           BENDR , 12
        .byte           PAN   , c_v-4
        .byte           VOL   , 39
        .byte           N11   , Ds3 , v008
        .byte   W24
        .byte           PAN   , c_v+14
        .byte           N11   , Ds3 , v028
        .byte   W24
        .byte                   Ds3 , v036
        .byte   W03
        .byte           PAN   , c_v-7
        .byte   W18
        .byte                   c_v+23
        .byte   W03
        .byte           N11   , Ds3 , v044
        .byte   W21
        .byte           PAN   , c_v-25
        .byte   W03
@ 001   ----------------------------------------
        .byte           N17   , Ds3 , v052
        .byte   W24
        .byte                   Ds3 , v060
        .byte   W24
        .byte           N11   , Cn3 , v100
        .byte   W12
        .byte                   Ds3
        .byte   W12
        .byte                   Cn3
        .byte   W12
        .byte                   Cs3
        .byte   W12
@ 002   ----------------------------------------
        .byte           PAN   , c_v-7
        .byte           VOL   , 3
        .byte           N11   , Cn2
        .byte   W12
        .byte                   Cn3
        .byte   W12
        .byte           PAN   , c_v+5
        .byte           N11   , Cn2
        .byte   W12
        .byte                   Cn3
        .byte   W12
        .byte           PAN   , c_v-15
        .byte           N11   , Cn2
        .byte   W12
        .byte                   Gn2
        .byte   W12
        .byte           PAN   , c_v+11
        .byte           N11   , Cn2
        .byte   W12
        .byte                   Cs3
        .byte   W09
        .byte           VOL   , 5
        .byte   W03
@ 003   ----------------------------------------
        .byte           PAN   , c_v-9
        .byte           N11   , Cn2
        .byte   W12
        .byte                   Cn3
        .byte   W09
        .byte           PAN   , c_v+10
        .byte   W03
        .byte           N11   , Cn2
        .byte   W12
        .byte                   Cn3
        .byte   W09
        .byte           VOL   , 17
        .byte           PAN   , c_v-12
        .byte   W03
        .byte           N11   , Cn2
        .byte   W12
        .byte                   Ds3
        .byte   W12
        .byte           PAN   , c_v+13
        .byte           N11   , Cn2
        .byte   W12
        .byte                   Cs3
        .byte   W12
@ 004   ----------------------------------------
        .byte           PAN   , c_v+0
        .byte           VOL   , 32
        .byte           N11   , Cn2
        .byte   W12
        .byte                   Cn3
        .byte   W12
        .byte           PAN   , c_v+18
        .byte           N11   , Cn2
        .byte   W12
        .byte                   Cn3
        .byte   W12
        .byte           PAN   , c_v-23
        .byte           VOL   , 44
        .byte           N11   , Cn2
        .byte   W12
        .byte                   Gn2
        .byte   W12
        .byte           PAN   , c_v+27
        .byte           N11   , Cn2
        .byte   W12
        .byte                   Cs3
        .byte   W12
@ 005   ----------------------------------------
        .byte           PAN   , c_v-31
        .byte           N11   , Cn2
        .byte   W12
        .byte                   Cn3
        .byte   W12
        .byte           PAN   , c_v+21
        .byte           N11   , Cn2
        .byte   W12
        .byte                   Cn3
        .byte   W12
        .byte           PAN   , c_v-34
        .byte           N11   , Cn2
        .byte   W12
        .byte                   Ds3
        .byte   W12
        .byte           PAN   , c_v+27
        .byte           N11   , Cn2
        .byte   W12
        .byte                   Cs3
        .byte   W12
@ 006   ----------------------------------------
mus_pkmn_bw12_076_6_LOOP:
        .byte           PAN   , c_v-23
        .byte           N11   , Cn2 , v100
        .byte   W12
        .byte                   Cn3
        .byte   W12
        .byte           PAN   , c_v+19
        .byte           N11   , Cn2
        .byte   W12
        .byte                   Cn3
        .byte   W12
        .byte           PAN   , c_v-27
        .byte           N11   , Cn2
        .byte   W12
        .byte                   Gn2
        .byte   W12
        .byte           PAN   , c_v+29
        .byte           N11   , Cn2
        .byte   W12
        .byte                   Cs3
        .byte   W12
@ 007   ----------------------------------------
        .byte           PAN   , c_v-40
        .byte           N11   , Cn2
        .byte   W12
        .byte                   Cn3
        .byte   W12
        .byte           PAN   , c_v+40
        .byte           N11   , Cn2
        .byte   W12
        .byte                   Cn3
        .byte   W12
        .byte           PAN   , c_v-40
        .byte           N11   , Cn2
        .byte   W12
        .byte                   Ds3
        .byte   W12
        .byte           PAN   , c_v+40
        .byte           N11   , Cn2
        .byte   W12
        .byte                   Cs3
        .byte   W12
@ 008   ----------------------------------------
        .byte           PAN   , c_v-40
        .byte           N11   , Cn2
        .byte   W12
        .byte                   Cn3
        .byte   W12
        .byte           PAN   , c_v+40
        .byte           N11   , Cn2
        .byte   W12
        .byte                   Cn3
        .byte   W12
        .byte           PAN   , c_v-40
        .byte           N11   , Cn2
        .byte   W12
        .byte                   Gn2
        .byte   W12
        .byte           PAN   , c_v+40
        .byte           N11   , Cn2
        .byte   W12
        .byte                   Cs3
        .byte   W12
@ 009   ----------------------------------------
mus_pkmn_bw12_076_6_9:
        .byte           PAN   , c_v-32
        .byte           N11   , Cn2 , v100
        .byte   W12
        .byte                   Cn3
        .byte   W12
        .byte           PAN   , c_v+32
        .byte           N11   , Cn2
        .byte   W12
        .byte                   Cn3
        .byte   W12
        .byte           PAN   , c_v-32
        .byte           N11   , Cn2
        .byte   W12
        .byte                   Ds3
        .byte   W12
        .byte           PAN   , c_v+32
        .byte           N11   , Cn2
        .byte   W12
        .byte                   Cs3
        .byte   W12
        .byte   PEND
@ 010   ----------------------------------------
mus_pkmn_bw12_076_6_10:
        .byte           PAN   , c_v-32
        .byte           N11   , Cn2 , v100
        .byte   W12
        .byte                   Cn3
        .byte   W12
        .byte           PAN   , c_v+32
        .byte           N11   , Cn2
        .byte   W12
        .byte                   Cn3
        .byte   W12
        .byte           PAN   , c_v-32
        .byte           N11   , Cn2
        .byte   W12
        .byte                   Cn3
        .byte   W12
        .byte           PAN   , c_v+32
        .byte           N11   , Cn2
        .byte   W12
        .byte                   Cs3
        .byte   W12
        .byte   PEND
@ 011   ----------------------------------------
mus_pkmn_bw12_076_6_11:
        .byte           PAN   , c_v-32
        .byte           N11   , Cn2 , v100
        .byte   W12
        .byte                   Cn3
        .byte   W12
        .byte           PAN   , c_v+32
        .byte           N11   , Cn2
        .byte   W12
        .byte                   Cn3
        .byte   W12
        .byte           PAN   , c_v-32
        .byte           N11   , Cn2
        .byte   W12
        .byte                   Cs3
        .byte   W12
        .byte           PAN   , c_v+32
        .byte           N11   , Cn2
        .byte   W12
        .byte                   Cs3
        .byte   W12
        .byte   PEND
@ 012   ----------------------------------------
        .byte   PATT
         .word  mus_pkmn_bw12_076_6_10
@ 013   ----------------------------------------
        .byte           PAN   , c_v-32
        .byte           N11   , Cn2 , v100
        .byte   W12
        .byte                   Cn3
        .byte   W12
        .byte           PAN   , c_v+32
        .byte           N11   , Cn2
        .byte   W12
        .byte                   Cn3
        .byte   W12
        .byte           PAN   , c_v-32
        .byte           N11   , Cn2
        .byte   W12
        .byte                   Cs3
        .byte   W12
        .byte           PAN   , c_v+32
        .byte           N11   , Cn2
        .byte   W12
        .byte                   As2
        .byte   W12
@ 014   ----------------------------------------
mus_pkmn_bw12_076_6_14:
        .byte           PAN   , c_v-32
        .byte           N11   , Cn2 , v100
        .byte   W12
        .byte                   Cn3
        .byte   W12
        .byte           PAN   , c_v+32
        .byte           N11   , Cn2
        .byte   W12
        .byte                   Cn3
        .byte   W12
        .byte           PAN   , c_v-32
        .byte           N11   , Cn2
        .byte   W12
        .byte                   Gn2
        .byte   W12
        .byte           PAN   , c_v+32
        .byte           N11   , Cn2
        .byte   W12
        .byte                   Cs3
        .byte   W12
        .byte   PEND
@ 015   ----------------------------------------
        .byte   PATT
         .word  mus_pkmn_bw12_076_6_11
@ 016   ----------------------------------------
        .byte   PATT
         .word  mus_pkmn_bw12_076_6_14
@ 017   ----------------------------------------
        .byte   PATT
         .word  mus_pkmn_bw12_076_6_11
@ 018   ----------------------------------------
        .byte   PATT
         .word  mus_pkmn_bw12_076_6_10
@ 019   ----------------------------------------
        .byte   PATT
         .word  mus_pkmn_bw12_076_6_11
@ 020   ----------------------------------------
        .byte   PATT
         .word  mus_pkmn_bw12_076_6_10
@ 021   ----------------------------------------
        .byte   PATT
         .word  mus_pkmn_bw12_076_6_11
@ 022   ----------------------------------------
        .byte   PATT
         .word  mus_pkmn_bw12_076_6_14
@ 023   ----------------------------------------
        .byte   PATT
         .word  mus_pkmn_bw12_076_6_11
@ 024   ----------------------------------------
        .byte   PATT
         .word  mus_pkmn_bw12_076_6_14
@ 025   ----------------------------------------
        .byte   PATT
         .word  mus_pkmn_bw12_076_6_11
@ 026   ----------------------------------------
mus_pkmn_bw12_076_6_26:
        .byte           PAN   , c_v-32
        .byte           N11   , Cn2 , v100
        .byte   W12
        .byte                   Cn3
        .byte   W12
        .byte           PAN   , c_v+32
        .byte           N11   , Cn2
        .byte   W12
        .byte                   Cn3
        .byte   W12
        .byte           PAN   , c_v-32
        .byte           N11   , Cn2
        .byte   W12
        .byte                   Cn3
        .byte   W12
        .byte           PAN   , c_v+32
        .byte           N11   , Cn2
        .byte   W12
        .byte                   Cn3
        .byte   W12
        .byte   PEND
@ 027   ----------------------------------------
        .byte   PATT
         .word  mus_pkmn_bw12_076_6_26
@ 028   ----------------------------------------
        .byte   PATT
         .word  mus_pkmn_bw12_076_6_26
@ 029   ----------------------------------------
        .byte   PATT
         .word  mus_pkmn_bw12_076_6_26
@ 030   ----------------------------------------
mus_pkmn_bw12_076_6_30:
        .byte           PAN   , c_v-20
        .byte           N11   , Ds2 , v100
        .byte   W12
        .byte                   Ds3
        .byte   W12
        .byte           PAN   , c_v+20
        .byte           N11   , Ds2
        .byte   W12
        .byte                   Ds3
        .byte   W12
        .byte           PAN   , c_v-20
        .byte           N11   , Ds2
        .byte   W12
        .byte                   Ds3
        .byte   W12
        .byte           PAN   , c_v+20
        .byte           N11   , Ds2
        .byte   W12
        .byte                   Ds3
        .byte   W12
        .byte   PEND
@ 031   ----------------------------------------
        .byte   PATT
         .word  mus_pkmn_bw12_076_6_30
@ 032   ----------------------------------------
        .byte   PATT
         .word  mus_pkmn_bw12_076_6_30
@ 033   ----------------------------------------
        .byte   PATT
         .word  mus_pkmn_bw12_076_6_30
@ 034   ----------------------------------------
        .byte   PATT
         .word  mus_pkmn_bw12_076_6_14
@ 035   ----------------------------------------
        .byte   PATT
         .word  mus_pkmn_bw12_076_6_9
@ 036   ----------------------------------------
        .byte   PATT
         .word  mus_pkmn_bw12_076_6_14
@ 037   ----------------------------------------
        .byte   PATT
         .word  mus_pkmn_bw12_076_6_9
@ 038   ----------------------------------------
        .byte   PATT
         .word  mus_pkmn_bw12_076_6_14
@ 039   ----------------------------------------
        .byte   PATT
         .word  mus_pkmn_bw12_076_6_9
@ 040   ----------------------------------------
        .byte   PATT
         .word  mus_pkmn_bw12_076_6_14
@ 041   ----------------------------------------
        .byte   PATT
         .word  mus_pkmn_bw12_076_6_9
@ 042   ----------------------------------------
        .byte   PATT
         .word  mus_pkmn_bw12_076_6_14
@ 043   ----------------------------------------
        .byte   PATT
         .word  mus_pkmn_bw12_076_6_9
@ 044   ----------------------------------------
        .byte   PATT
         .word  mus_pkmn_bw12_076_6_14
@ 045   ----------------------------------------
        .byte   PATT
         .word  mus_pkmn_bw12_076_6_9
@ 046   ----------------------------------------
        .byte   PATT
         .word  mus_pkmn_bw12_076_6_26
@ 047   ----------------------------------------
mus_pkmn_bw12_076_6_47:
        .byte           PAN   , c_v-32
        .byte           N11   , Cn2 , v100
        .byte   W12
        .byte                   Cn3
        .byte   W12
        .byte           PAN   , c_v+32
        .byte           N11   , Cn2
        .byte   W12
        .byte                   Cn3
        .byte   W12
        .byte           PAN   , c_v-32
        .byte           N11   , Cn2
        .byte   W12
        .byte                   Cn3
        .byte   W12
        .byte           PAN   , c_v+32
        .byte           N11   , Cn2
        .byte   W12
        .byte                   Bn2
        .byte   W12
        .byte   PEND
@ 048   ----------------------------------------
        .byte   PATT
         .word  mus_pkmn_bw12_076_6_26
@ 049   ----------------------------------------
        .byte   PATT
         .word  mus_pkmn_bw12_076_6_47
@ 050   ----------------------------------------
        .byte   PATT
         .word  mus_pkmn_bw12_076_6_14
@ 051   ----------------------------------------
        .byte   PATT
         .word  mus_pkmn_bw12_076_6_11
@ 052   ----------------------------------------
        .byte   PATT
         .word  mus_pkmn_bw12_076_6_14
@ 053   ----------------------------------------
        .byte   PATT
         .word  mus_pkmn_bw12_076_6_11
@ 054   ----------------------------------------
        .byte           PAN   , c_v-32
        .byte           N11   , Cn2 , v100
        .byte   W12
        .byte           N02   , Cn3
        .byte   W06
        .byte           N05   , Cn4
        .byte   W06
        .byte           PAN   , c_v+32
        .byte           N11   , Cn2
        .byte   W12
        .byte           N02   , Cn3
        .byte   W06
        .byte           N05
        .byte   W06
        .byte           PAN   , c_v-32
        .byte           N11   , Cn2
        .byte   W12
        .byte           N02   , Cn3
        .byte   W06
        .byte           N05   , Cn4
        .byte   W06
        .byte           PAN   , c_v+32
        .byte           N11   , Cn2
        .byte   W12
        .byte           N02   , Cn3
        .byte   W06
        .byte           N05
        .byte   W06
@ 055   ----------------------------------------
        .byte           PAN   , c_v-32
        .byte           N11   , Cn2
        .byte   W12
        .byte           N02   , Cn3
        .byte   W06
        .byte           N05
        .byte   W06
        .byte           PAN   , c_v+32
        .byte           N11   , Cn2
        .byte   W12
        .byte           N02   , Cn3
        .byte   W06
        .byte           N05
        .byte   W06
        .byte           PAN   , c_v-32
        .byte           N11   , Cn2
        .byte   W12
        .byte           N02   , Cn3
        .byte   W06
        .byte           N05
        .byte   W06
        .byte           PAN   , c_v+32
        .byte           N11   , Cn2
        .byte   W12
        .byte           N02   , Cn3
        .byte   W06
        .byte           N05
        .byte   W06
@ 056   ----------------------------------------
mus_pkmn_bw12_076_6_56:
        .byte           PAN   , c_v-32
        .byte           N11   , Cn2 , v100
        .byte   W24
        .byte           PAN   , c_v+32
        .byte           N11
        .byte   W24
        .byte           PAN   , c_v-32
        .byte           N11
        .byte   W24
        .byte           PAN   , c_v+32
        .byte           N11
        .byte   W24
        .byte   PEND
@ 057   ----------------------------------------
        .byte   PATT
         .word  mus_pkmn_bw12_076_6_56
@ 058   ----------------------------------------
mus_pkmn_bw12_076_6_58:
        .byte           PAN   , c_v-32
        .byte           N11   , Ds2 , v100
        .byte   W12
        .byte                   Ds3
        .byte   W12
        .byte           PAN   , c_v+32
        .byte           N11   , Ds2
        .byte   W12
        .byte                   Ds3
        .byte   W12
        .byte           PAN   , c_v-32
        .byte           N11   , Ds2
        .byte   W12
        .byte                   Ds3
        .byte   W12
        .byte           PAN   , c_v+32
        .byte           N11   , Ds2
        .byte   W12
        .byte                   Ds3
        .byte   W12
        .byte   PEND
@ 059   ----------------------------------------
        .byte   PATT
         .word  mus_pkmn_bw12_076_6_58
@ 060   ----------------------------------------
        .byte   PATT
         .word  mus_pkmn_bw12_076_6_58
@ 061   ----------------------------------------
        .byte   PATT
         .word  mus_pkmn_bw12_076_6_58
@ 062   ----------------------------------------
        .byte   PATT
         .word  mus_pkmn_bw12_076_6_14
@ 063   ----------------------------------------
        .byte   PATT
         .word  mus_pkmn_bw12_076_6_9
@ 064   ----------------------------------------
        .byte   PATT
         .word  mus_pkmn_bw12_076_6_14
@ 065   ----------------------------------------
        .byte   PATT
         .word  mus_pkmn_bw12_076_6_9
@ 066   ----------------------------------------
        .byte   PATT
         .word  mus_pkmn_bw12_076_6_14
@ 067   ----------------------------------------
        .byte   PATT
         .word  mus_pkmn_bw12_076_6_9
@ 068   ----------------------------------------
        .byte   PATT
         .word  mus_pkmn_bw12_076_6_14
@ 069   ----------------------------------------
        .byte   PATT
         .word  mus_pkmn_bw12_076_6_9
@ 070   ----------------------------------------
        .byte           PAN   , c_v-23
        .byte   GOTO
         .word  mus_pkmn_bw12_076_6_LOOP
        .byte   FINE

@****************** Track 7 (Midi-Chn.7) ******************@

mus_pkmn_bw12_076_7:
        .byte   KEYSH , mus_pkmn_bw12_076_key+0
@ 000   ----------------------------------------
        .byte           VOICE , 61
        .byte           LFOS  , 44
        .byte           BENDR , 12
        .byte           PAN   , c_v-40
        .byte           VOL   , 48
        .byte           N08   , Ds3 , v016
        .byte   W24
        .byte                   Ds3 , v028
        .byte   W24
        .byte                   Ds3 , v036
        .byte   W24
        .byte                   Ds3 , v044
        .byte   W24
@ 001   ----------------------------------------
        .byte           N14   , Ds3 , v052
        .byte   W24
        .byte           N17   , Ds3 , v068
        .byte   W24
        .byte           N23   , Ds3 , v084
        .byte   W24
        .byte                   Ds3 , v108
        .byte   W20
        .byte           VOICE , 91
        .byte   W04
@ 002   ----------------------------------------
        .byte           N56   , En2 , v127
        .byte   W09
        .byte           PAN   , c_v-46
        .byte   W03
        .byte                   c_v-43
        .byte   W03
        .byte                   c_v-34
        .byte   W03
        .byte                   c_v-31
        .byte   W03
        .byte                   c_v-25
        .byte   W03
        .byte                   c_v-22
        .byte   W03
        .byte                   c_v-13
        .byte   W03
        .byte                   c_v-10
        .byte   W03
        .byte                   c_v-4
        .byte   W03
        .byte                   c_v+5
        .byte   W03
        .byte                   c_v+14
        .byte   W03
        .byte                   c_v+17
        .byte   W03
        .byte                   c_v+20
        .byte   W03
        .byte                   c_v+29
        .byte           N17   , Fn3
        .byte   W03
        .byte           PAN   , c_v+35
        .byte   W03
        .byte                   c_v+44
        .byte   W03
        .byte                   c_v+47
        .byte   W03
        .byte                   c_v+56
        .byte   W03
        .byte                   c_v+59
        .byte           N56   , Fn2
        .byte   W03
        .byte           PAN   , c_v+63
        .byte   W06
        .byte                   c_v+56
        .byte   W03
        .byte                   c_v+50
        .byte   W03
        .byte                   c_v+41
        .byte   W03
        .byte                   c_v+32
        .byte   W03
        .byte                   c_v+26
        .byte   W03
        .byte                   c_v+14
        .byte   W03
        .byte                   c_v+11
        .byte   W03
        .byte                   c_v+0
        .byte   W03
@ 003   ----------------------------------------
        .byte                   c_v-1
        .byte   W03
        .byte                   c_v-7
        .byte   W03
        .byte                   c_v-13
        .byte   W03
        .byte                   c_v-31
        .byte   W03
        .byte                   c_v-37
        .byte   W03
        .byte                   c_v-43
        .byte   W03
        .byte                   c_v-49
        .byte   W02
        .byte           VOICE , 92
        .byte   W01
        .byte           PAN   , c_v-64
        .byte   W03
        .byte           TIE   , Cs2 , v072
        .byte   W24
        .byte   W03
        .byte           PAN   , c_v-62
        .byte   W03
        .byte                   c_v-60
        .byte   W03
        .byte                   c_v-58
        .byte   W03
        .byte                   c_v-56
        .byte   W03
        .byte                   c_v-54
        .byte   W03
        .byte                   c_v-52
        .byte   W03
        .byte                   c_v-50
        .byte   W03
        .byte                   c_v-48
        .byte   W03
        .byte                   c_v-46
        .byte   W03
        .byte                   c_v-44
        .byte   W03
        .byte                   c_v-42
        .byte   W03
        .byte                   c_v-40
        .byte   W03
        .byte                   c_v-38
        .byte   W03
        .byte                   c_v-36
        .byte   W03
        .byte                   c_v-34
        .byte   W03
@ 004   ----------------------------------------
        .byte                   c_v-32
        .byte   W03
        .byte                   c_v-30
        .byte   W03
        .byte                   c_v-28
        .byte   W03
        .byte                   c_v-27
        .byte   W03
        .byte                   c_v-24
        .byte   W03
        .byte                   c_v-22
        .byte   W03
        .byte                   c_v-20
        .byte   W03
        .byte                   c_v-19
        .byte   W03
        .byte                   c_v-16
        .byte   W03
        .byte                   c_v-14
        .byte   W03
        .byte                   c_v-12
        .byte   W03
        .byte                   c_v-10
        .byte   W03
        .byte                   c_v-8
        .byte   W03
        .byte                   c_v-6
        .byte   W03
        .byte                   c_v-4
        .byte   W03
        .byte                   c_v-2
        .byte   W03
        .byte                   c_v+0
        .byte   W03
        .byte                   c_v+2
        .byte   W03
        .byte                   c_v+3
        .byte   W03
        .byte                   c_v+6
        .byte   W03
        .byte                   c_v+8
        .byte   W03
        .byte                   c_v+10
        .byte   W03
        .byte                   c_v+11
        .byte   W03
        .byte                   c_v+14
        .byte   W03
        .byte                   c_v+16
        .byte   W03
        .byte                   c_v+18
        .byte   W03
        .byte                   c_v+19
        .byte   W03
        .byte                   c_v+22
        .byte   W03
        .byte                   c_v+24
        .byte   W03
        .byte                   c_v+26
        .byte   W03
        .byte                   c_v+27
        .byte   W03
        .byte                   c_v+30
        .byte   W03
@ 005   ----------------------------------------
        .byte                   c_v+32
        .byte   W03
        .byte                   c_v+33
        .byte   W03
        .byte                   c_v+35
        .byte   W03
        .byte                   c_v+38
        .byte   W03
        .byte                   c_v+40
        .byte   W03
        .byte                   c_v+41
        .byte   W03
        .byte                   c_v+44
        .byte   W03
        .byte                   c_v+46
        .byte   W03
        .byte                   c_v+48
        .byte   W03
        .byte                   c_v+49
        .byte   W03
        .byte                   c_v+52
        .byte   W03
        .byte                   c_v+54
        .byte   W03
        .byte                   c_v+56
        .byte   W03
        .byte                   c_v+57
        .byte   W03
        .byte                   c_v+60
        .byte   W03
        .byte                   c_v+63
        .byte   W02
        .byte           EOT
        .byte   W01
        .byte           N01   , Cs5 , v088
        .byte   W04
        .byte                   Fs4 , v080
        .byte   W06
        .byte                   Ds4 , v076
        .byte   W03
        .byte           N32   , Cs4
        .byte   W20
        .byte           PAN   , c_v+59
        .byte   W03
        .byte                   c_v+35
        .byte   W03
        .byte                   c_v-25
        .byte   W03
        .byte                   c_v-46
        .byte   W03
        .byte                   c_v-64
        .byte   W03
@ 006   ----------------------------------------
mus_pkmn_bw12_076_7_LOOP:
        .byte   W96
@ 007   ----------------------------------------
        .byte   W92
        .byte           VOICE , 61
        .byte   W04
@ 008   ----------------------------------------
        .byte           PAN   , c_v-61
        .byte           N44   , Cn1 , v096
        .byte   W03
        .byte           PAN   , c_v-59
        .byte   W03
        .byte                   c_v-56
        .byte   W03
        .byte                   c_v-53
        .byte   W03
        .byte                   c_v-51
        .byte   W03
        .byte                   c_v-48
        .byte   W03
        .byte                   c_v-46
        .byte   W03
        .byte                   c_v-43
        .byte   W03
        .byte                   c_v-40
        .byte   W03
        .byte                   c_v-38
        .byte   W03
        .byte                   c_v-35
        .byte   W03
        .byte                   c_v-32
        .byte   W03
        .byte                   c_v-29
        .byte   W03
        .byte                   c_v-27
        .byte   W03
        .byte                   c_v-24
        .byte   W03
        .byte                   c_v-22
        .byte   W03
        .byte                   c_v-19
        .byte           N44   , Cn1 , v084
        .byte   W03
        .byte           PAN   , c_v-16
        .byte   W03
        .byte                   c_v-14
        .byte   W03
        .byte                   c_v-11
        .byte   W03
        .byte                   c_v-8
        .byte   W03
        .byte                   c_v-6
        .byte   W03
        .byte                   c_v-3
        .byte   W03
        .byte                   c_v+0
        .byte   W03
        .byte                   c_v+2
        .byte   W03
        .byte                   c_v+5
        .byte   W03
        .byte                   c_v+8
        .byte   W03
        .byte                   c_v+10
        .byte   W03
        .byte                   c_v+13
        .byte   W03
        .byte                   c_v+15
        .byte   W03
        .byte                   c_v+18
        .byte   W03
        .byte                   c_v+21
        .byte   W03
@ 009   ----------------------------------------
        .byte                   c_v+24
        .byte           N44   , Cn2 , v072
        .byte   W03
        .byte           PAN   , c_v+26
        .byte   W03
        .byte                   c_v+29
        .byte   W03
        .byte                   c_v+32
        .byte   W03
        .byte                   c_v+34
        .byte   W03
        .byte                   c_v+37
        .byte   W03
        .byte                   c_v+39
        .byte   W03
        .byte                   c_v+42
        .byte   W03
        .byte                   c_v+45
        .byte   W03
        .byte                   c_v+47
        .byte   W03
        .byte                   c_v+50
        .byte   W03
        .byte                   c_v+53
        .byte   W03
        .byte                   c_v+55
        .byte   W03
        .byte                   c_v+58
        .byte   W03
        .byte                   c_v+61
        .byte   W54
@ 010   ----------------------------------------
        .byte   W96
@ 011   ----------------------------------------
        .byte   W96
@ 012   ----------------------------------------
        .byte   W96
@ 013   ----------------------------------------
        .byte   W96
@ 014   ----------------------------------------
        .byte           N92   , Cn2 , v076
        .byte   W03
        .byte           PAN   , c_v-51
        .byte   W92
        .byte   W01
@ 015   ----------------------------------------
        .byte           N68   , Cn2 , v052
        .byte   W48
        .byte           PAN   , c_v+29
        .byte   W06
        .byte                   c_v+36
        .byte   W06
        .byte                   c_v+42
        .byte   W06
        .byte                   c_v+47
        .byte   W06
        .byte                   c_v+51
        .byte           N11   , Cn3 , v072
        .byte   W12
        .byte           PAN   , c_v-50
        .byte           N11   , Cn2 , v092
        .byte   W12
@ 016   ----------------------------------------
        .byte           PAN   , c_v+52
        .byte           N92   , Cn3 , v048
        .byte   W96
@ 017   ----------------------------------------
        .byte           N44   , Cn3 , v072
        .byte   W48
        .byte           PAN   , c_v-21
        .byte           N02   , Fn3 , v116
        .byte   W06
        .byte           PAN   , c_v-44
        .byte           N02   , Ds3
        .byte   W06
        .byte           PAN   , c_v-53
        .byte           N02   , Cs3
        .byte   W06
        .byte           PAN   , c_v-57
        .byte           N02   , Cn3
        .byte   W06
        .byte           PAN   , c_v+51
        .byte           N11   , Cn3 , v076
        .byte   W12
        .byte           PAN   , c_v-58
        .byte           N11   , Cn2 , v092
        .byte   W12
@ 018   ----------------------------------------
        .byte   W96
@ 019   ----------------------------------------
        .byte   W96
@ 020   ----------------------------------------
        .byte   W96
@ 021   ----------------------------------------
        .byte   W96
@ 022   ----------------------------------------
        .byte   W96
@ 023   ----------------------------------------
        .byte   W96
@ 024   ----------------------------------------
        .byte   W96
@ 025   ----------------------------------------
        .byte   W92
        .byte   W02
        .byte           VOICE , 104
        .byte   W02
@ 026   ----------------------------------------
        .byte           PAN   , c_v+50
        .byte           VOL   , 39
        .byte           N44   , Cn3 , v116
        .byte   W48
        .byte           PAN   , c_v-49
        .byte           N44
        .byte   W48
@ 027   ----------------------------------------
        .byte           PAN   , c_v+33
        .byte           N44   , Cn3 , v084
        .byte   W48
        .byte           PAN   , c_v-24
        .byte           N44   , Cn3 , v076
        .byte   W48
@ 028   ----------------------------------------
        .byte           PAN   , c_v+17
        .byte           N44   , Cn3 , v060
        .byte   W48
        .byte           PAN   , c_v-10
        .byte           N44   , Cn3 , v048
        .byte   W48
@ 029   ----------------------------------------
        .byte   W96
@ 030   ----------------------------------------
        .byte           PAN   , c_v+50
        .byte           N44   , Ds3 , v116
        .byte   W48
        .byte           PAN   , c_v-49
        .byte           N44
        .byte   W48
@ 031   ----------------------------------------
        .byte           PAN   , c_v+33
        .byte           N44   , Ds3 , v084
        .byte   W48
        .byte           PAN   , c_v-24
        .byte           N44   , Ds3 , v076
        .byte   W48
@ 032   ----------------------------------------
        .byte           PAN   , c_v+17
        .byte           N44   , Ds3 , v060
        .byte   W48
        .byte           PAN   , c_v-10
        .byte           N44   , Ds3 , v048
        .byte   W48
@ 033   ----------------------------------------
        .byte   W96
@ 034   ----------------------------------------
        .byte           TIE   , Cn3 , v092
        .byte   W96
@ 035   ----------------------------------------
        .byte   W44
        .byte   W03
        .byte           EOT
        .byte   W48
        .byte   W01
@ 036   ----------------------------------------
        .byte           TIE
        .byte   W96
@ 037   ----------------------------------------
        .byte   W44
        .byte   W03
        .byte           EOT
        .byte   W48
        .byte   W01
@ 038   ----------------------------------------
        .byte   W96
@ 039   ----------------------------------------
        .byte   W96
@ 040   ----------------------------------------
        .byte   W96
@ 041   ----------------------------------------
        .byte   W96
@ 042   ----------------------------------------
        .byte   W96
@ 043   ----------------------------------------
        .byte   W96
@ 044   ----------------------------------------
        .byte   W96
@ 045   ----------------------------------------
        .byte   W96
@ 046   ----------------------------------------
        .byte   W96
@ 047   ----------------------------------------
        .byte   W96
@ 048   ----------------------------------------
        .byte   W96
@ 049   ----------------------------------------
        .byte   W96
@ 050   ----------------------------------------
        .byte   W96
@ 051   ----------------------------------------
        .byte   W96
@ 052   ----------------------------------------
        .byte   W96
@ 053   ----------------------------------------
        .byte   W96
@ 054   ----------------------------------------
        .byte           PAN   , c_v+50
        .byte           N23   , Cn3 , v116
        .byte   W48
        .byte           PAN   , c_v-49
        .byte           N23
        .byte   W48
@ 055   ----------------------------------------
        .byte           PAN   , c_v+48
        .byte           N23   , Cn3 , v120
        .byte   W72
        .byte                   Cn3
        .byte   W24
@ 056   ----------------------------------------
        .byte   W96
@ 057   ----------------------------------------
        .byte   W96
@ 058   ----------------------------------------
        .byte           PAN   , c_v+50
        .byte           N23   , Ds3 , v116
        .byte   W48
        .byte           PAN   , c_v-49
        .byte           N23
        .byte   W48
@ 059   ----------------------------------------
        .byte           PAN   , c_v+54
        .byte           N23   , Ds3 , v108
        .byte   W72
        .byte           PAN   , c_v-35
        .byte           N23   , Ds3 , v120
        .byte   W24
@ 060   ----------------------------------------
        .byte   W96
@ 061   ----------------------------------------
        .byte   W92
        .byte           VOICE , 91
        .byte   W04
@ 062   ----------------------------------------
        .byte           PAN   , c_v-53
        .byte           N56   , En2 , v127
        .byte   W09
        .byte           PAN   , c_v-46
        .byte   W03
        .byte                   c_v-43
        .byte   W03
        .byte                   c_v-34
        .byte   W03
        .byte                   c_v-31
        .byte   W03
        .byte                   c_v-25
        .byte   W03
        .byte                   c_v-22
        .byte   W03
        .byte                   c_v-13
        .byte   W03
        .byte                   c_v-10
        .byte   W03
        .byte                   c_v-4
        .byte   W03
        .byte                   c_v+5
        .byte   W03
        .byte                   c_v+14
        .byte   W03
        .byte                   c_v+17
        .byte   W03
        .byte                   c_v+20
        .byte   W03
        .byte                   c_v+29
        .byte           N17   , Fn3
        .byte   W03
        .byte           PAN   , c_v+35
        .byte   W03
        .byte                   c_v+44
        .byte   W03
        .byte                   c_v+47
        .byte   W03
        .byte                   c_v+56
        .byte   W03
        .byte                   c_v+59
        .byte           N56   , Fn2
        .byte   W03
        .byte           PAN   , c_v+63
        .byte   W06
        .byte                   c_v+56
        .byte   W03
        .byte                   c_v+50
        .byte   W03
        .byte                   c_v+41
        .byte   W03
        .byte                   c_v+32
        .byte   W03
        .byte                   c_v+26
        .byte   W03
        .byte                   c_v+14
        .byte   W03
        .byte                   c_v+11
        .byte   W03
        .byte                   c_v+0
        .byte   W03
@ 063   ----------------------------------------
        .byte                   c_v-1
        .byte   W03
        .byte                   c_v-7
        .byte   W03
        .byte                   c_v-13
        .byte   W03
        .byte                   c_v-31
        .byte   W03
        .byte                   c_v-37
        .byte   W03
        .byte                   c_v-43
        .byte   W03
        .byte                   c_v-49
        .byte   W03
        .byte                   c_v-64
        .byte   W03
        .byte                   c_v-58
        .byte           N92   , As1
        .byte   W06
        .byte           PAN   , c_v-52
        .byte   W06
        .byte                   c_v-46
        .byte   W06
        .byte                   c_v-40
        .byte   W06
        .byte                   c_v-34
        .byte   W06
        .byte                   c_v-28
        .byte   W06
        .byte                   c_v-19
        .byte   W06
        .byte                   c_v-10
        .byte   W06
        .byte                   c_v+0
        .byte   W06
        .byte                   c_v+14
        .byte   W06
        .byte                   c_v+23
        .byte   W06
        .byte                   c_v+35
        .byte   W06
@ 064   ----------------------------------------
        .byte                   c_v+29
        .byte   W06
        .byte                   c_v+20
        .byte   W06
        .byte                   c_v+14
        .byte   W06
        .byte                   c_v+11
        .byte   W06
        .byte                   c_v-10
        .byte           TIE   , Gs1
        .byte   W06
        .byte           PAN   , c_v-13
        .byte   W12
        .byte                   c_v-22
        .byte   W06
        .byte                   c_v-31
        .byte           VOL   , 35
        .byte   W06
        .byte           PAN   , c_v-28
        .byte           VOL   , 33
        .byte   W06
        .byte           PAN   , c_v-31
        .byte           VOL   , 31
        .byte   W06
        .byte           PAN   , c_v-25
        .byte           VOL   , 29
        .byte   W06
        .byte                   26
        .byte   W06
        .byte           PAN   , c_v-19
        .byte           VOL   , 24
        .byte   W06
        .byte           PAN   , c_v-16
        .byte           VOL   , 22
        .byte   W06
        .byte           PAN   , c_v-7
        .byte           VOL   , 21
        .byte   W06
@ 065   ----------------------------------------
        .byte           PAN   , c_v-1
        .byte           VOL   , 19
        .byte   W06
        .byte           PAN   , c_v+0
        .byte           VOL   , 17
        .byte   W06
        .byte           PAN   , c_v+5
        .byte           VOL   , 15
        .byte   W06
        .byte           PAN   , c_v+14
        .byte           VOL   , 13
        .byte   W06
        .byte                   12
        .byte   W06
        .byte           PAN   , c_v+20
        .byte           VOL   , 11
        .byte   W06
        .byte           PAN   , c_v+26
        .byte           VOL   , 9
        .byte   W06
        .byte           PAN   , c_v+32
        .byte           VOL   , 7
        .byte   W06
        .byte           PAN   , c_v+38
        .byte   W01
        .byte           EOT
        .byte   W05
        .byte           PAN   , c_v+47
        .byte           VOL   , 5
        .byte   W06
        .byte                   4
        .byte   W06
        .byte                   3
        .byte   W12
        .byte                   1
        .byte   W18
@ 066   ----------------------------------------
        .byte                   51
        .byte   W96
@ 067   ----------------------------------------
        .byte   W96
@ 068   ----------------------------------------
        .byte   W96
@ 069   ----------------------------------------
        .byte   W96
@ 070   ----------------------------------------
        .byte           VOICE , 92
        .byte           VOL   , 48
        .byte           PAN   , c_v-64
        .byte   GOTO
         .word  mus_pkmn_bw12_076_7_LOOP
        .byte   FINE

@****************** Track 8 (Midi-Chn.8) ******************@

mus_pkmn_bw12_076_8:
        .byte   KEYSH , mus_pkmn_bw12_076_key+0
@ 000   ----------------------------------------
        .byte           VOICE , 22
        .byte           LFOS  , 44
        .byte           BENDR , 12
        .byte           VOL   , 67
        .byte           N11   , Ds2 , v016
        .byte   W24
        .byte                   Ds2 , v028
        .byte   W24
        .byte                   Ds2 , v036
        .byte   W24
        .byte                   Ds2 , v044
        .byte   W24
@ 001   ----------------------------------------
        .byte           N17   , Ds2 , v052
        .byte   W24
        .byte                   Ds2 , v060
        .byte   W24
        .byte           N11   , Cn2 , v100
        .byte   W12
        .byte                   Ds2
        .byte   W12
        .byte                   Cn2
        .byte   W12
        .byte                   Cs2
        .byte   W12
@ 002   ----------------------------------------
mus_pkmn_bw12_076_8_2:
        .byte           N11   , Cn1 , v100
        .byte   W12
        .byte                   Cn2
        .byte   W12
        .byte                   Cn1
        .byte   W12
        .byte                   Cn2
        .byte   W12
        .byte                   Cn1
        .byte   W12
        .byte                   Gn1
        .byte   W12
        .byte                   Cn1
        .byte   W12
        .byte                   Cs2
        .byte   W12
        .byte   PEND
@ 003   ----------------------------------------
mus_pkmn_bw12_076_8_3:
        .byte           N11   , Cn1 , v100
        .byte   W12
        .byte                   Cn2
        .byte   W12
        .byte                   Cn1
        .byte   W12
        .byte                   Cn2
        .byte   W12
        .byte                   Cn1
        .byte   W12
        .byte                   Ds2
        .byte   W12
        .byte                   Cn1
        .byte   W12
        .byte                   Cs2
        .byte   W12
        .byte   PEND
@ 004   ----------------------------------------
        .byte   PATT
         .word  mus_pkmn_bw12_076_8_2
@ 005   ----------------------------------------
        .byte   PATT
         .word  mus_pkmn_bw12_076_8_3
@ 006   ----------------------------------------
mus_pkmn_bw12_076_8_LOOP:
        .byte           N11   , Cn1 , v100
        .byte   W12
        .byte                   Cn2
        .byte   W12
        .byte                   Cn1
        .byte   W12
        .byte                   Cn2
        .byte   W12
        .byte                   Cn1
        .byte   W12
        .byte                   Gn1
        .byte   W12
        .byte                   Cn1
        .byte   W12
        .byte                   Cs2
        .byte   W12
@ 007   ----------------------------------------
        .byte   PATT
         .word  mus_pkmn_bw12_076_8_3
@ 008   ----------------------------------------
        .byte   PATT
         .word  mus_pkmn_bw12_076_8_2
@ 009   ----------------------------------------
        .byte   PATT
         .word  mus_pkmn_bw12_076_8_3
@ 010   ----------------------------------------
mus_pkmn_bw12_076_8_10:
        .byte           N11   , Cn1 , v100
        .byte   W12
        .byte                   Cn2
        .byte   W12
        .byte                   Cn1
        .byte   W12
        .byte                   Cn2
        .byte   W12
        .byte                   Cn1
        .byte   W12
        .byte                   Cn2
        .byte   W12
        .byte                   Cn1
        .byte   W12
        .byte                   Cs2
        .byte   W12
        .byte   PEND
@ 011   ----------------------------------------
mus_pkmn_bw12_076_8_11:
        .byte           N11   , Cn1 , v100
        .byte   W12
        .byte                   Cn2
        .byte   W12
        .byte                   Cn1
        .byte   W12
        .byte                   Cn2
        .byte   W12
        .byte                   Cn1
        .byte   W12
        .byte                   Cs2
        .byte   W12
        .byte                   Cn1
        .byte   W12
        .byte                   Cs2
        .byte   W12
        .byte   PEND
@ 012   ----------------------------------------
        .byte   PATT
         .word  mus_pkmn_bw12_076_8_10
@ 013   ----------------------------------------
        .byte           N11   , Cn1 , v100
        .byte   W12
        .byte                   Cn2
        .byte   W12
        .byte                   Cn1
        .byte   W12
        .byte                   Cn2
        .byte   W12
        .byte                   Cn1
        .byte   W12
        .byte                   Cs2
        .byte   W12
        .byte                   Cn1
        .byte   W12
        .byte                   As1
        .byte   W12
@ 014   ----------------------------------------
        .byte   PATT
         .word  mus_pkmn_bw12_076_8_2
@ 015   ----------------------------------------
        .byte   PATT
         .word  mus_pkmn_bw12_076_8_11
@ 016   ----------------------------------------
        .byte   PATT
         .word  mus_pkmn_bw12_076_8_2
@ 017   ----------------------------------------
        .byte   PATT
         .word  mus_pkmn_bw12_076_8_11
@ 018   ----------------------------------------
        .byte   PATT
         .word  mus_pkmn_bw12_076_8_10
@ 019   ----------------------------------------
        .byte   PATT
         .word  mus_pkmn_bw12_076_8_11
@ 020   ----------------------------------------
        .byte   PATT
         .word  mus_pkmn_bw12_076_8_10
@ 021   ----------------------------------------
        .byte   PATT
         .word  mus_pkmn_bw12_076_8_11
@ 022   ----------------------------------------
        .byte   PATT
         .word  mus_pkmn_bw12_076_8_2
@ 023   ----------------------------------------
        .byte   PATT
         .word  mus_pkmn_bw12_076_8_11
@ 024   ----------------------------------------
        .byte   PATT
         .word  mus_pkmn_bw12_076_8_2
@ 025   ----------------------------------------
        .byte   PATT
         .word  mus_pkmn_bw12_076_8_11
@ 026   ----------------------------------------
mus_pkmn_bw12_076_8_26:
        .byte           N11   , Cn1 , v100
        .byte   W12
        .byte                   Cn2
        .byte   W12
        .byte                   Cn1
        .byte   W12
        .byte                   Cn2
        .byte   W12
        .byte                   Cn1
        .byte   W12
        .byte                   Cn2
        .byte   W12
        .byte                   Cn1
        .byte   W12
        .byte                   Cn2
        .byte   W12
        .byte   PEND
@ 027   ----------------------------------------
        .byte   PATT
         .word  mus_pkmn_bw12_076_8_26
@ 028   ----------------------------------------
        .byte   PATT
         .word  mus_pkmn_bw12_076_8_26
@ 029   ----------------------------------------
        .byte   PATT
         .word  mus_pkmn_bw12_076_8_26
@ 030   ----------------------------------------
        .byte           VOL   , 74
        .byte           N11   , Ds1 , v100
        .byte   W12
        .byte                   Ds2
        .byte   W12
        .byte                   Ds1
        .byte   W12
        .byte                   Ds2
        .byte   W12
        .byte                   Ds1
        .byte   W12
        .byte                   Ds2
        .byte   W12
        .byte                   Ds1
        .byte   W12
        .byte                   Ds2
        .byte   W12
@ 031   ----------------------------------------
mus_pkmn_bw12_076_8_31:
        .byte           N11   , Ds1 , v100
        .byte   W12
        .byte                   Ds2
        .byte   W12
        .byte                   Ds1
        .byte   W12
        .byte                   Ds2
        .byte   W12
        .byte                   Ds1
        .byte   W12
        .byte                   Ds2
        .byte   W12
        .byte                   Ds1
        .byte   W12
        .byte                   Ds2
        .byte   W12
        .byte   PEND
@ 032   ----------------------------------------
        .byte           VOL   , 76
        .byte           N11   , Ds1
        .byte   W12
        .byte           N02   , Ds2
        .byte   W06
        .byte           N05
        .byte   W06
        .byte           N11   , Ds1
        .byte   W12
        .byte           N02   , Ds2
        .byte   W06
        .byte           N05
        .byte   W06
        .byte           N11   , Ds1
        .byte   W12
        .byte           N02   , Ds2
        .byte   W06
        .byte           N05
        .byte   W06
        .byte           N11   , Ds1
        .byte   W12
        .byte           N02   , Ds2
        .byte   W06
        .byte           N05
        .byte   W06
@ 033   ----------------------------------------
        .byte           VOL   , 80
        .byte           N11   , Ds1
        .byte   W12
        .byte           N02   , Ds2
        .byte   W06
        .byte           N05
        .byte   W06
        .byte           N11   , Ds1
        .byte   W12
        .byte           N02   , Ds2
        .byte   W06
        .byte           N05
        .byte   W06
        .byte           N11   , Ds1
        .byte   W12
        .byte           N02   , Ds2
        .byte   W06
        .byte           N05
        .byte   W06
        .byte           N11   , Ds1
        .byte   W12
        .byte           N02   , Ds2
        .byte   W06
        .byte           N05
        .byte   W06
@ 034   ----------------------------------------
        .byte           VOL   , 67
        .byte           N11   , Cn1
        .byte   W12
        .byte                   Cn2
        .byte   W12
        .byte                   Cn1
        .byte   W12
        .byte                   Cn2
        .byte   W12
        .byte                   Cn1
        .byte   W12
        .byte                   Gn1
        .byte   W12
        .byte                   Cn1
        .byte   W12
        .byte                   Cs2
        .byte   W12
@ 035   ----------------------------------------
        .byte   PATT
         .word  mus_pkmn_bw12_076_8_3
@ 036   ----------------------------------------
        .byte   PATT
         .word  mus_pkmn_bw12_076_8_2
@ 037   ----------------------------------------
        .byte   PATT
         .word  mus_pkmn_bw12_076_8_3
@ 038   ----------------------------------------
        .byte   PATT
         .word  mus_pkmn_bw12_076_8_2
@ 039   ----------------------------------------
        .byte   PATT
         .word  mus_pkmn_bw12_076_8_3
@ 040   ----------------------------------------
        .byte   PATT
         .word  mus_pkmn_bw12_076_8_2
@ 041   ----------------------------------------
        .byte   PATT
         .word  mus_pkmn_bw12_076_8_3
@ 042   ----------------------------------------
        .byte   PATT
         .word  mus_pkmn_bw12_076_8_2
@ 043   ----------------------------------------
        .byte   PATT
         .word  mus_pkmn_bw12_076_8_3
@ 044   ----------------------------------------
        .byte   PATT
         .word  mus_pkmn_bw12_076_8_2
@ 045   ----------------------------------------
        .byte   PATT
         .word  mus_pkmn_bw12_076_8_3
@ 046   ----------------------------------------
        .byte   PATT
         .word  mus_pkmn_bw12_076_8_26
@ 047   ----------------------------------------
mus_pkmn_bw12_076_8_47:
        .byte           N11   , Cn1 , v100
        .byte   W12
        .byte                   Cn2
        .byte   W12
        .byte                   Cn1
        .byte   W12
        .byte                   Cn2
        .byte   W12
        .byte                   Cn1
        .byte   W12
        .byte                   Cn2
        .byte   W12
        .byte                   Cn1
        .byte   W12
        .byte                   Bn1
        .byte   W12
        .byte   PEND
@ 048   ----------------------------------------
        .byte   PATT
         .word  mus_pkmn_bw12_076_8_26
@ 049   ----------------------------------------
        .byte   PATT
         .word  mus_pkmn_bw12_076_8_47
@ 050   ----------------------------------------
        .byte   PATT
         .word  mus_pkmn_bw12_076_8_2
@ 051   ----------------------------------------
        .byte   PATT
         .word  mus_pkmn_bw12_076_8_11
@ 052   ----------------------------------------
        .byte   PATT
         .word  mus_pkmn_bw12_076_8_2
@ 053   ----------------------------------------
        .byte   PATT
         .word  mus_pkmn_bw12_076_8_11
@ 054   ----------------------------------------
        .byte           N11   , Cn1 , v100
        .byte   W12
        .byte           N02   , Cn2
        .byte   W06
        .byte           N05
        .byte   W06
        .byte           N11   , Cn1
        .byte   W12
        .byte                   Cn2
        .byte   W12
        .byte                   Cn1
        .byte   W12
        .byte                   Cn2
        .byte   W12
        .byte                   Cn1
        .byte   W12
        .byte                   Cn2
        .byte   W12
@ 055   ----------------------------------------
        .byte   PATT
         .word  mus_pkmn_bw12_076_8_26
@ 056   ----------------------------------------
        .byte   PATT
         .word  mus_pkmn_bw12_076_8_26
@ 057   ----------------------------------------
        .byte   PATT
         .word  mus_pkmn_bw12_076_8_26
@ 058   ----------------------------------------
        .byte   PATT
         .word  mus_pkmn_bw12_076_8_31
@ 059   ----------------------------------------
        .byte   PATT
         .word  mus_pkmn_bw12_076_8_31
@ 060   ----------------------------------------
        .byte   PATT
         .word  mus_pkmn_bw12_076_8_31
@ 061   ----------------------------------------
        .byte   PATT
         .word  mus_pkmn_bw12_076_8_31
@ 062   ----------------------------------------
        .byte   PATT
         .word  mus_pkmn_bw12_076_8_2
@ 063   ----------------------------------------
        .byte   PATT
         .word  mus_pkmn_bw12_076_8_3
@ 064   ----------------------------------------
        .byte   PATT
         .word  mus_pkmn_bw12_076_8_2
@ 065   ----------------------------------------
        .byte   PATT
         .word  mus_pkmn_bw12_076_8_3
@ 066   ----------------------------------------
        .byte   PATT
         .word  mus_pkmn_bw12_076_8_2
@ 067   ----------------------------------------
        .byte   PATT
         .word  mus_pkmn_bw12_076_8_3
@ 068   ----------------------------------------
        .byte   PATT
         .word  mus_pkmn_bw12_076_8_2
@ 069   ----------------------------------------
        .byte   PATT
         .word  mus_pkmn_bw12_076_8_3
@ 070   ----------------------------------------
        .byte   GOTO
         .word  mus_pkmn_bw12_076_8_LOOP
        .byte   FINE

@****************** Track 9 (Midi-Chn.9) ******************@

mus_pkmn_bw12_076_9:
        .byte   KEYSH , mus_pkmn_bw12_076_key+0
@ 000   ----------------------------------------
mus_pkmn_bw12_076_9_0:
        .byte           VOICE , 108
        .byte           LFOS  , 44
        .byte           BENDR , 12
        .byte           VOL   , 55
        .byte   W96
        .byte   PEND
@ 001   ----------------------------------------
        .byte   W96
@ 002   ----------------------------------------
        .byte   W96
@ 003   ----------------------------------------
        .byte   W96
@ 004   ----------------------------------------
        .byte   W96
@ 005   ----------------------------------------
        .byte   W96
@ 006   ----------------------------------------
mus_pkmn_bw12_076_9_LOOP:
        .byte   W96
@ 007   ----------------------------------------
        .byte   W96
@ 008   ----------------------------------------
        .byte   W96
@ 009   ----------------------------------------
        .byte   W96
@ 010   ----------------------------------------
        .byte   W96
@ 011   ----------------------------------------
        .byte   W96
@ 012   ----------------------------------------
        .byte   W96
@ 013   ----------------------------------------
        .byte   W96
@ 014   ----------------------------------------
        .byte   W96
@ 015   ----------------------------------------
        .byte   W96
@ 016   ----------------------------------------
        .byte   W96
@ 017   ----------------------------------------
        .byte   W90
        .byte           PAN   , c_v-14
        .byte           N32   , Dn2 , v100
        .byte   W06
@ 018   ----------------------------------------
mus_pkmn_bw12_076_9_18:
        .byte   W30
        .byte           N32   , An1 , v100
        .byte   W36
        .byte                   Cn2
        .byte   W30
        .byte   PEND
@ 019   ----------------------------------------
        .byte   W06
        .byte                   Cn2
        .byte   W36
        .byte           N23   , Ds2
        .byte   W24
        .byte                   Cn2
        .byte   W24
        .byte           N32   , Dn2
        .byte   W06
@ 020   ----------------------------------------
        .byte   PATT
         .word  mus_pkmn_bw12_076_9_18
@ 021   ----------------------------------------
        .byte   W06
        .byte           N32   , Gn1 , v100
        .byte   W36
        .byte           N23   , Ds2
        .byte   W24
        .byte                   Cn2
        .byte   W30
@ 022   ----------------------------------------
mus_pkmn_bw12_076_9_22:
        .byte           N32   , An2 , v100
        .byte   W36
        .byte                   Dn3
        .byte   W36
        .byte                   Cn3
        .byte   W24
        .byte   PEND
@ 023   ----------------------------------------
mus_pkmn_bw12_076_9_23:
        .byte   W12
        .byte           N32   , Gn2 , v100
        .byte   W36
        .byte           N23   , Ds3
        .byte   W24
        .byte                   Cn3
        .byte   W24
        .byte   PEND
@ 024   ----------------------------------------
        .byte   PATT
         .word  mus_pkmn_bw12_076_9_22
@ 025   ----------------------------------------
        .byte   PATT
         .word  mus_pkmn_bw12_076_9_23
@ 026   ----------------------------------------
        .byte           N08   , Dn2 , v100
        .byte   W16
        .byte                   An2
        .byte   W16
        .byte                   Gn2
        .byte   W16
        .byte                   Dn2
        .byte   W16
        .byte                   As2
        .byte   W16
        .byte                   Gn2
        .byte   W16
@ 027   ----------------------------------------
mus_pkmn_bw12_076_9_27:
        .byte           N07   , Dn2 , v100
        .byte   W18
        .byte                   An2
        .byte   W18
        .byte                   Gn2
        .byte   W18
        .byte                   Dn2
        .byte   W18
        .byte           N02   , As2
        .byte   W12
        .byte                   Gn2
        .byte   W12
        .byte   PEND
@ 028   ----------------------------------------
        .byte           N05   , Dn2
        .byte   W16
        .byte                   An2
        .byte   W16
        .byte                   Gn2
        .byte   W16
        .byte                   Dn2
        .byte   W16
        .byte                   As2
        .byte   W16
        .byte                   Gn2
        .byte   W16
@ 029   ----------------------------------------
        .byte   PATT
         .word  mus_pkmn_bw12_076_9_27
@ 030   ----------------------------------------
mus_pkmn_bw12_076_9_30:
        .byte           N09   , Fn2 , v100
        .byte   W16
        .byte                   Cn3
        .byte   W16
        .byte                   As2
        .byte   W16
        .byte                   Fn2
        .byte   W16
        .byte                   Cs3
        .byte   W16
        .byte                   As2
        .byte   W16
        .byte   PEND
@ 031   ----------------------------------------
mus_pkmn_bw12_076_9_31:
        .byte           N11   , Fn2 , v100
        .byte   W18
        .byte                   Cn3
        .byte   W18
        .byte                   As2
        .byte   W18
        .byte                   Fn2
        .byte   W18
        .byte           N05   , Cs3
        .byte   W12
        .byte                   As2
        .byte   W12
        .byte   PEND
@ 032   ----------------------------------------
        .byte           N15   , Fn2
        .byte   W16
        .byte                   Cn3
        .byte   W16
        .byte                   As2
        .byte   W16
        .byte                   Fn2
        .byte   W16
        .byte                   Cs3
        .byte   W16
        .byte                   As2
        .byte   W16
@ 033   ----------------------------------------
        .byte           N17   , Fn2
        .byte   W18
        .byte                   Cn3
        .byte   W18
        .byte           N11   , As2
        .byte   W18
        .byte           N08   , Fn2
        .byte   W18
        .byte           N05   , Cs3
        .byte   W06
        .byte                   Cn3
        .byte   W06
        .byte                   Bn2
        .byte   W06
        .byte                   As2 , v044
        .byte   W06
@ 034   ----------------------------------------
        .byte           TIE   , Dn2
        .byte   W96
@ 035   ----------------------------------------
        .byte   W92
        .byte   W03
        .byte           EOT
        .byte   W01
@ 036   ----------------------------------------
        .byte           TIE
        .byte   W96
@ 037   ----------------------------------------
        .byte   W92
        .byte   W03
        .byte           EOT
        .byte   W01
@ 038   ----------------------------------------
        .byte           TIE
        .byte   W96
@ 039   ----------------------------------------
        .byte   W92
        .byte   W03
        .byte           EOT
        .byte   W01
@ 040   ----------------------------------------
        .byte           TIE
        .byte   W96
@ 041   ----------------------------------------
        .byte   W92
        .byte   W03
        .byte           EOT
        .byte   W01
@ 042   ----------------------------------------
        .byte           TIE
        .byte   W96
@ 043   ----------------------------------------
        .byte   W92
        .byte   W03
        .byte           EOT
        .byte   W01
@ 044   ----------------------------------------
        .byte           TIE
        .byte   W96
@ 045   ----------------------------------------
        .byte   W92
        .byte   W03
        .byte           EOT
        .byte   W01
@ 046   ----------------------------------------
        .byte   W96
@ 047   ----------------------------------------
        .byte   W96
@ 048   ----------------------------------------
        .byte   W96
@ 049   ----------------------------------------
        .byte   W96
@ 050   ----------------------------------------
        .byte   W96
@ 051   ----------------------------------------
        .byte   W96
@ 052   ----------------------------------------
        .byte   W96
@ 053   ----------------------------------------
        .byte   W96
@ 054   ----------------------------------------
        .byte           PAN   , c_v+14
        .byte           N11   , Dn2 , v100
        .byte   W16
        .byte                   An2
        .byte   W16
        .byte                   Gn2
        .byte   W16
        .byte                   Dn2
        .byte   W16
        .byte                   As2
        .byte   W16
        .byte                   Gn2
        .byte   W16
@ 055   ----------------------------------------
mus_pkmn_bw12_076_9_55:
        .byte           N13   , Dn2 , v100
        .byte   W18
        .byte                   An2
        .byte   W18
        .byte                   Gn2
        .byte   W18
        .byte                   Dn2
        .byte   W18
        .byte           N07   , As2
        .byte   W12
        .byte                   Gn2
        .byte   W12
        .byte   PEND
@ 056   ----------------------------------------
        .byte           N11   , Dn2
        .byte   W16
        .byte                   An2
        .byte   W16
        .byte                   Gn2
        .byte   W16
        .byte                   Dn2
        .byte   W16
        .byte                   As2
        .byte   W16
        .byte                   Gn2
        .byte   W16
@ 057   ----------------------------------------
        .byte   PATT
         .word  mus_pkmn_bw12_076_9_55
@ 058   ----------------------------------------
        .byte   PATT
         .word  mus_pkmn_bw12_076_9_30
@ 059   ----------------------------------------
        .byte   PATT
         .word  mus_pkmn_bw12_076_9_31
@ 060   ----------------------------------------
        .byte   PATT
         .word  mus_pkmn_bw12_076_9_30
@ 061   ----------------------------------------
        .byte           N11   , Fn2 , v100
        .byte   W18
        .byte                   Cn3
        .byte   W18
        .byte                   As2
        .byte   W18
        .byte                   Fn2
        .byte   W18
        .byte           N05   , Cs3
        .byte   W06
        .byte                   Cn3
        .byte   W06
        .byte                   Bn2
        .byte   W06
        .byte                   As2
        .byte   W06
@ 062   ----------------------------------------
        .byte           TIE   , Dn2
        .byte   W96
@ 063   ----------------------------------------
        .byte   W92
        .byte   W03
        .byte           EOT
        .byte   W01
@ 064   ----------------------------------------
        .byte           TIE
        .byte   W96
@ 065   ----------------------------------------
        .byte   W92
        .byte   W03
        .byte           EOT
        .byte   W01
@ 066   ----------------------------------------
        .byte   W96
@ 067   ----------------------------------------
        .byte   W96
@ 068   ----------------------------------------
        .byte   W96
@ 069   ----------------------------------------
        .byte   W96
@ 070   ----------------------------------------
        .byte           PAN   , c_v+0
        .byte   GOTO
         .word  mus_pkmn_bw12_076_9_LOOP
        .byte   FINE

@***************** Track 10 (Midi-Chn.10) *****************@

mus_pkmn_bw12_076_10:
        .byte   KEYSH , mus_pkmn_bw12_076_key+0
@ 000   ----------------------------------------
        .byte   PATT
         .word  mus_pkmn_bw12_076_9_0
@ 001   ----------------------------------------
        .byte   W96
@ 002   ----------------------------------------
        .byte   W96
@ 003   ----------------------------------------
        .byte   W96
@ 004   ----------------------------------------
        .byte   W96
@ 005   ----------------------------------------
        .byte   W96
@ 006   ----------------------------------------
mus_pkmn_bw12_076_10_LOOP:
        .byte   W96
@ 007   ----------------------------------------
        .byte   W96
@ 008   ----------------------------------------
        .byte   W96
@ 009   ----------------------------------------
        .byte   W96
@ 010   ----------------------------------------
        .byte           PAN   , c_v+17
        .byte           N32   , Dn3 , v127
        .byte   W36
        .byte                   An2
        .byte   W36
        .byte                   Cn3
        .byte   W24
@ 011   ----------------------------------------
        .byte   W12
        .byte                   Cn3
        .byte   W36
        .byte           N23   , Ds3
        .byte   W24
        .byte                   Cn3
        .byte   W24
@ 012   ----------------------------------------
        .byte           N32   , Dn3
        .byte   W36
        .byte                   An2
        .byte   W36
        .byte                   Cn3
        .byte   W24
@ 013   ----------------------------------------
        .byte   W12
        .byte                   Gn2
        .byte   W36
        .byte           N23   , Ds3
        .byte   W24
        .byte                   Cn3
        .byte   W24
@ 014   ----------------------------------------
        .byte           N32   , An3 , v104
        .byte   W36
        .byte                   Dn4 , v100
        .byte   W36
        .byte                   Cn4
        .byte   W24
@ 015   ----------------------------------------
mus_pkmn_bw12_076_10_15:
        .byte   W12
        .byte           N32   , Gn3 , v100
        .byte   W36
        .byte           N23   , Ds4
        .byte   W24
        .byte                   Cn4
        .byte   W24
        .byte   PEND
@ 016   ----------------------------------------
mus_pkmn_bw12_076_10_16:
        .byte           N32   , An3 , v100
        .byte   W36
        .byte                   Dn4
        .byte   W36
        .byte                   Cn4
        .byte   W24
        .byte   PEND
@ 017   ----------------------------------------
        .byte   PATT
         .word  mus_pkmn_bw12_076_10_15
@ 018   ----------------------------------------
        .byte           PAN   , c_v+20
        .byte           N32   , Dn3 , v100
        .byte   W36
        .byte                   An2
        .byte   W36
        .byte                   Cn3
        .byte   W24
@ 019   ----------------------------------------
mus_pkmn_bw12_076_10_19:
        .byte   W12
        .byte           N32   , Cn3 , v100
        .byte   W36
        .byte           N23   , Ds3
        .byte   W24
        .byte                   Cn3
        .byte   W24
        .byte   PEND
@ 020   ----------------------------------------
mus_pkmn_bw12_076_10_20:
        .byte           N32   , Dn3 , v100
        .byte   W36
        .byte                   An2
        .byte   W36
        .byte                   Cn3
        .byte   W24
        .byte   PEND
@ 021   ----------------------------------------
        .byte   PATT
         .word  mus_pkmn_bw12_076_9_23
@ 022   ----------------------------------------
        .byte   PATT
         .word  mus_pkmn_bw12_076_10_16
@ 023   ----------------------------------------
        .byte   PATT
         .word  mus_pkmn_bw12_076_10_15
@ 024   ----------------------------------------
        .byte   PATT
         .word  mus_pkmn_bw12_076_10_16
@ 025   ----------------------------------------
        .byte   PATT
         .word  mus_pkmn_bw12_076_10_15
@ 026   ----------------------------------------
        .byte           N15   , Dn3 , v100
        .byte   W16
        .byte                   An3
        .byte   W16
        .byte           N07   , Gn3
        .byte   W16
        .byte           N15   , Dn3
        .byte   W16
        .byte                   As3
        .byte   W16
        .byte                   Gn3
        .byte   W16
@ 027   ----------------------------------------
mus_pkmn_bw12_076_10_27:
        .byte           N17   , Dn3 , v100
        .byte   W18
        .byte                   An3
        .byte   W18
        .byte                   Gn3
        .byte   W18
        .byte           N05   , Dn3
        .byte   W18
        .byte           N11   , As3
        .byte   W12
        .byte                   Gn3
        .byte   W12
        .byte   PEND
@ 028   ----------------------------------------
        .byte           N15   , Dn3
        .byte   W16
        .byte                   An3
        .byte   W16
        .byte                   Gn3
        .byte   W16
        .byte                   Dn3
        .byte   W16
        .byte                   As3
        .byte   W16
        .byte                   Gn3
        .byte   W16
@ 029   ----------------------------------------
        .byte   PATT
         .word  mus_pkmn_bw12_076_10_27
@ 030   ----------------------------------------
mus_pkmn_bw12_076_10_30:
        .byte           N15   , Fn3 , v100
        .byte   W16
        .byte                   Cn4
        .byte   W16
        .byte                   As3
        .byte   W16
        .byte                   Fn3
        .byte   W16
        .byte                   Cs4
        .byte   W16
        .byte                   As3
        .byte   W16
        .byte   PEND
@ 031   ----------------------------------------
        .byte           N17   , Fn3
        .byte   W18
        .byte                   Cn4
        .byte   W18
        .byte                   As3
        .byte   W18
        .byte           N11   , Fn3
        .byte   W18
        .byte                   Cs4
        .byte   W12
        .byte                   As3
        .byte   W12
@ 032   ----------------------------------------
        .byte   PATT
         .word  mus_pkmn_bw12_076_10_30
@ 033   ----------------------------------------
        .byte           N17   , Fn3 , v100
        .byte   W18
        .byte                   Cn4
        .byte   W18
        .byte           N10   , As3
        .byte   W18
        .byte           N08   , Fn3
        .byte   W18
        .byte           N05   , Cs4
        .byte   W06
        .byte                   Cn4
        .byte   W06
        .byte                   Bn3
        .byte   W06
        .byte                   As3
        .byte   W05
        .byte           TIE   , Dn2 , v064
        .byte   W01
@ 034   ----------------------------------------
        .byte                   Dn3
        .byte   W96
@ 035   ----------------------------------------
        .byte   W92
        .byte   W02
        .byte           EOT   , Dn2
        .byte   W01
        .byte                   Dn3
        .byte           TIE   , Dn2 , v056
        .byte   W01
@ 036   ----------------------------------------
        .byte                   Dn3
        .byte   W96
@ 037   ----------------------------------------
mus_pkmn_bw12_076_10_37:
        .byte   W92
        .byte   W02
        .byte           EOT   , Dn2
        .byte   W01
        .byte                   Dn3
        .byte           TIE   , Dn2 , v048
        .byte   W01
        .byte   PEND
@ 038   ----------------------------------------
        .byte                   Dn3
        .byte   W96
@ 039   ----------------------------------------
        .byte   PATT
         .word  mus_pkmn_bw12_076_10_37
@ 040   ----------------------------------------
        .byte           TIE   , Dn3 , v048
        .byte   W96
@ 041   ----------------------------------------
mus_pkmn_bw12_076_10_41:
        .byte   W92
        .byte   W02
        .byte           EOT   , Dn2
        .byte   W01
        .byte                   Dn3
        .byte           TIE   , Dn2 , v044
        .byte   W01
        .byte   PEND
@ 042   ----------------------------------------
        .byte                   Dn3
        .byte   W96
@ 043   ----------------------------------------
        .byte   PATT
         .word  mus_pkmn_bw12_076_10_41
@ 044   ----------------------------------------
        .byte           TIE   , Dn3 , v044
        .byte   W96
@ 045   ----------------------------------------
        .byte   W92
        .byte   W02
        .byte           EOT   , Dn2
        .byte   W01
        .byte                   Dn3
        .byte   W01
@ 046   ----------------------------------------
        .byte           PAN   , c_v+9
        .byte           N32   , Dn3 , v100
        .byte   W36
        .byte                   An2
        .byte   W36
        .byte                   Cn3
        .byte   W24
@ 047   ----------------------------------------
        .byte   PATT
         .word  mus_pkmn_bw12_076_10_19
@ 048   ----------------------------------------
        .byte   PATT
         .word  mus_pkmn_bw12_076_10_20
@ 049   ----------------------------------------
        .byte   PATT
         .word  mus_pkmn_bw12_076_9_23
@ 050   ----------------------------------------
        .byte   PATT
         .word  mus_pkmn_bw12_076_10_16
@ 051   ----------------------------------------
        .byte   PATT
         .word  mus_pkmn_bw12_076_10_15
@ 052   ----------------------------------------
        .byte   PATT
         .word  mus_pkmn_bw12_076_10_16
@ 053   ----------------------------------------
        .byte   PATT
         .word  mus_pkmn_bw12_076_10_15
@ 054   ----------------------------------------
        .byte           N11   , Dn3 , v100
        .byte   W16
        .byte                   An3
        .byte   W16
        .byte                   Gn3
        .byte   W16
        .byte                   Dn3
        .byte   W16
        .byte                   As3
        .byte   W16
        .byte                   Gn3
        .byte   W16
@ 055   ----------------------------------------
        .byte           N13   , Dn3
        .byte   W18
        .byte                   An3
        .byte   W18
        .byte                   Gn3
        .byte   W18
        .byte                   Dn3
        .byte   W18
        .byte           N07   , As3
        .byte   W12
        .byte                   Gn3
        .byte   W12
@ 056   ----------------------------------------
        .byte           PAN   , c_v+30
        .byte           N11   , Dn3
        .byte   W16
        .byte                   An3
        .byte   W16
        .byte                   Gn3
        .byte   W15
        .byte           PAN   , c_v-30
        .byte   W01
        .byte           N11   , Dn3
        .byte   W16
        .byte                   As3
        .byte   W16
        .byte                   Gn3
        .byte   W15
        .byte           PAN   , c_v+30
        .byte   W01
@ 057   ----------------------------------------
        .byte           N13   , Dn3
        .byte   W18
        .byte                   An3
        .byte   W18
        .byte                   Gn3
        .byte   W10
        .byte           PAN   , c_v-30
        .byte   W08
        .byte           N13   , Dn3
        .byte   W18
        .byte           N07   , As3
        .byte   W12
        .byte                   Gn3
        .byte   W12
@ 058   ----------------------------------------
        .byte           PAN   , c_v+30
        .byte           N09   , Fn3
        .byte   W16
        .byte                   Cn4
        .byte   W16
        .byte                   As3
        .byte   W15
        .byte           PAN   , c_v-30
        .byte   W01
        .byte           N09   , Fn3
        .byte   W16
        .byte                   Cs4
        .byte   W16
        .byte                   As3
        .byte   W15
        .byte           PAN   , c_v+30
        .byte   W01
@ 059   ----------------------------------------
        .byte           N11   , Fn3
        .byte   W18
        .byte                   Cn4
        .byte   W18
        .byte                   As3
        .byte   W10
        .byte           PAN   , c_v-30
        .byte   W08
        .byte           N11   , Fn3
        .byte   W18
        .byte           N05   , Cs4
        .byte   W12
        .byte                   As3
        .byte   W11
        .byte           PAN   , c_v+30
        .byte   W01
@ 060   ----------------------------------------
        .byte           N09   , Fn3
        .byte   W16
        .byte                   Cn4
        .byte   W16
        .byte                   As3
        .byte   W14
        .byte           PAN   , c_v-30
        .byte   W02
        .byte           N09   , Fn3
        .byte   W16
        .byte                   Cs4
        .byte   W16
        .byte                   As3
        .byte   W14
        .byte           PAN   , c_v+30
        .byte   W02
@ 061   ----------------------------------------
        .byte           N11   , Fn3
        .byte   W18
        .byte                   Cn4
        .byte   W18
        .byte                   As3
        .byte   W09
        .byte           PAN   , c_v-30
        .byte   W09
        .byte           N11   , Fn3
        .byte   W18
        .byte           N05   , Cs4
        .byte   W06
        .byte                   Cn4
        .byte   W06
        .byte                   Bn3
        .byte   W06
        .byte                   As3
        .byte   W06
@ 062   ----------------------------------------
        .byte           PAN   , c_v+0
        .byte           TIE   , Dn3
        .byte   W96
@ 063   ----------------------------------------
        .byte   W92
        .byte   W03
        .byte           EOT
        .byte   W01
@ 064   ----------------------------------------
        .byte           TIE
        .byte   W96
@ 065   ----------------------------------------
        .byte   W92
        .byte   W03
        .byte           EOT
        .byte   W01
@ 066   ----------------------------------------
        .byte   W96
@ 067   ----------------------------------------
        .byte   W96
@ 068   ----------------------------------------
        .byte   W96
@ 069   ----------------------------------------
        .byte   W96
@ 070   ----------------------------------------
        .byte   GOTO
         .word  mus_pkmn_bw12_076_10_LOOP
        .byte   FINE

@***************** Track 11 (Midi-Chn.11) *****************@

mus_pkmn_bw12_076_11:
        .byte   KEYSH , mus_pkmn_bw12_076_key+0
@ 000   ----------------------------------------
        .byte           VOICE , 23
        .byte           LFOS  , 44
        .byte           BENDR , 12
        .byte           VOL   , 41
        .byte   W12
        .byte           PAN   , c_v-64
        .byte           N08   , Ds4 , v012
        .byte           N08   , Ds5
        .byte   W24
        .byte           PAN   , c_v+60
        .byte           N08   , Ds4 , v016
        .byte           N08   , Ds5
        .byte   W24
        .byte           PAN   , c_v-62
        .byte           N08   , Ds4 , v020
        .byte           N08   , Ds5
        .byte   W24
        .byte           PAN   , c_v+40
        .byte           N08   , Ds4 , v032
        .byte           N08   , Ds5
        .byte   W12
@ 001   ----------------------------------------
        .byte   W12
        .byte           N14   , Ds4 , v044
        .byte           N14   , Ds5
        .byte   W24
        .byte           N17   , Ds4 , v068
        .byte           N17   , Ds5
        .byte   W24
        .byte           N23   , Ds4 , v084
        .byte           N23   , Ds5
        .byte   W24
        .byte           N92   , Ds4 , v108
        .byte           N92   , Ds5
        .byte   W12
@ 002   ----------------------------------------
        .byte   W24
        .byte           VOL   , 37
        .byte   W06
        .byte                   32
        .byte   W06
        .byte                   29
        .byte   W06
        .byte                   22
        .byte   W06
        .byte                   19
        .byte   W06
        .byte                   15
        .byte   W06
        .byte                   11
        .byte   W06
        .byte                   9
        .byte   W06
        .byte                   7
        .byte   W06
        .byte                   5
        .byte   W06
        .byte                   2
        .byte   W06
        .byte                   1
        .byte   W06
@ 003   ----------------------------------------
        .byte                   0
        .byte   W24
        .byte                   41
        .byte   W72
@ 004   ----------------------------------------
        .byte   W96
@ 005   ----------------------------------------
        .byte   W96
@ 006   ----------------------------------------
mus_pkmn_bw12_076_11_LOOP:
        .byte   W96
@ 007   ----------------------------------------
        .byte   W96
@ 008   ----------------------------------------
        .byte   W96
@ 009   ----------------------------------------
        .byte   W96
@ 010   ----------------------------------------
        .byte           VOL   , 18
        .byte   W06
        .byte           PAN   , c_v-50
        .byte   W06
        .byte           VOICE , 37
        .byte           N32   , Cn2 , v100
        .byte   W36
        .byte                   Gn1
        .byte   W36
        .byte                   As1
        .byte   W12
@ 011   ----------------------------------------
mus_pkmn_bw12_076_11_11:
        .byte   W24
        .byte           N32   , As1 , v100
        .byte   W36
        .byte           N23   , Cs2
        .byte   W24
        .byte                   As1
        .byte   W12
        .byte   PEND
@ 012   ----------------------------------------
mus_pkmn_bw12_076_11_12:
        .byte   W12
        .byte           N32   , Cn2 , v100
        .byte   W36
        .byte                   Gn1
        .byte   W36
        .byte                   As1
        .byte   W12
        .byte   PEND
@ 013   ----------------------------------------
mus_pkmn_bw12_076_11_13:
        .byte   W24
        .byte           N32   , Fn1 , v100
        .byte   W36
        .byte           N23   , Cs2
        .byte   W24
        .byte                   As1
        .byte   W12
        .byte   PEND
@ 014   ----------------------------------------
mus_pkmn_bw12_076_11_14:
        .byte   W12
        .byte           N32   , Gn2 , v100
        .byte   W36
        .byte                   Cn3
        .byte   W36
        .byte                   As2
        .byte   W12
        .byte   PEND
@ 015   ----------------------------------------
mus_pkmn_bw12_076_11_15:
        .byte   W24
        .byte           N32   , Fn2 , v100
        .byte   W36
        .byte           N23   , Cs3
        .byte   W24
        .byte                   As2
        .byte   W12
        .byte   PEND
@ 016   ----------------------------------------
        .byte   PATT
         .word  mus_pkmn_bw12_076_11_14
@ 017   ----------------------------------------
        .byte   PATT
         .word  mus_pkmn_bw12_076_11_15
@ 018   ----------------------------------------
        .byte   PATT
         .word  mus_pkmn_bw12_076_11_12
@ 019   ----------------------------------------
        .byte   PATT
         .word  mus_pkmn_bw12_076_11_11
@ 020   ----------------------------------------
        .byte   PATT
         .word  mus_pkmn_bw12_076_11_12
@ 021   ----------------------------------------
        .byte   PATT
         .word  mus_pkmn_bw12_076_11_13
@ 022   ----------------------------------------
        .byte   PATT
         .word  mus_pkmn_bw12_076_11_14
@ 023   ----------------------------------------
        .byte   PATT
         .word  mus_pkmn_bw12_076_11_15
@ 024   ----------------------------------------
        .byte   PATT
         .word  mus_pkmn_bw12_076_11_14
@ 025   ----------------------------------------
        .byte   PATT
         .word  mus_pkmn_bw12_076_11_15
@ 026   ----------------------------------------
mus_pkmn_bw12_076_11_26:
        .byte   W12
        .byte           N15   , Cn2 , v100
        .byte   W16
        .byte                   Gn2
        .byte   W16
        .byte                   Fn2
        .byte   W16
        .byte                   Cn2
        .byte   W16
        .byte                   Gs2
        .byte   W16
        .byte                   Fn2
        .byte   W04
        .byte   PEND
@ 027   ----------------------------------------
mus_pkmn_bw12_076_11_27:
        .byte   W12
        .byte           N17   , Cn2 , v100
        .byte   W18
        .byte                   Gn2
        .byte   W18
        .byte                   Fn2
        .byte   W18
        .byte                   Cn2
        .byte   W18
        .byte           N11   , Gs2
        .byte   W12
        .byte   PEND
@ 028   ----------------------------------------
mus_pkmn_bw12_076_11_28:
        .byte           N11   , Fn2 , v100
        .byte   W12
        .byte           N15   , Cn2
        .byte   W16
        .byte                   Gn2
        .byte   W16
        .byte                   Fn2
        .byte   W16
        .byte                   Cn2
        .byte   W16
        .byte                   Gs2
        .byte   W16
        .byte                   Fn2
        .byte   W04
        .byte   PEND
@ 029   ----------------------------------------
        .byte   PATT
         .word  mus_pkmn_bw12_076_11_27
@ 030   ----------------------------------------
mus_pkmn_bw12_076_11_30:
        .byte           N11   , Fn2 , v100
        .byte   W12
        .byte           N15   , Ds2
        .byte   W16
        .byte                   As2
        .byte   W16
        .byte                   Gs2
        .byte   W16
        .byte                   Ds2
        .byte   W16
        .byte                   Bn2
        .byte   W16
        .byte                   Gs2
        .byte   W04
        .byte   PEND
@ 031   ----------------------------------------
mus_pkmn_bw12_076_11_31:
        .byte   W12
        .byte           N17   , Ds2 , v100
        .byte   W18
        .byte                   As2
        .byte   W18
        .byte                   Gs2
        .byte   W18
        .byte                   Ds2
        .byte   W18
        .byte           N11   , Bn2
        .byte   W12
        .byte   PEND
@ 032   ----------------------------------------
mus_pkmn_bw12_076_11_32:
        .byte           N11   , Gs2 , v100
        .byte   W12
        .byte           N15   , Ds2
        .byte   W16
        .byte                   As2
        .byte   W16
        .byte                   Gs2
        .byte   W16
        .byte                   Ds2
        .byte   W16
        .byte                   Bn2
        .byte   W16
        .byte                   Gs2
        .byte   W04
        .byte   PEND
@ 033   ----------------------------------------
mus_pkmn_bw12_076_11_33:
        .byte   W12
        .byte           N17   , Ds2 , v100
        .byte   W18
        .byte                   As2
        .byte   W18
        .byte                   Gs2
        .byte   W18
        .byte                   Ds2
        .byte   W18
        .byte           N05   , Bn2
        .byte   W06
        .byte                   As2
        .byte   W06
        .byte   PEND
@ 034   ----------------------------------------
mus_pkmn_bw12_076_11_34:
        .byte           N05   , An2 , v100
        .byte   W06
        .byte                   Gs2
        .byte   W06
        .byte           TIE   , Cn2
        .byte   W84
        .byte   PEND
@ 035   ----------------------------------------
        .byte   W96
@ 036   ----------------------------------------
mus_pkmn_bw12_076_11_36:
        .byte   W11
        .byte           EOT   , Cn2
        .byte   W01
        .byte           TIE   , Cn2 , v100
        .byte   W84
        .byte   PEND
@ 037   ----------------------------------------
        .byte   W96
@ 038   ----------------------------------------
        .byte   PATT
         .word  mus_pkmn_bw12_076_11_36
@ 039   ----------------------------------------
        .byte   W96
@ 040   ----------------------------------------
        .byte   PATT
         .word  mus_pkmn_bw12_076_11_36
@ 041   ----------------------------------------
        .byte   W96
@ 042   ----------------------------------------
        .byte   PATT
         .word  mus_pkmn_bw12_076_11_36
@ 043   ----------------------------------------
        .byte   W96
@ 044   ----------------------------------------
        .byte   PATT
         .word  mus_pkmn_bw12_076_11_36
@ 045   ----------------------------------------
        .byte   W96
@ 046   ----------------------------------------
        .byte   W11
        .byte           EOT   , Cn2
        .byte   W01
        .byte           N32   , Cn2 , v100
        .byte   W36
        .byte                   Gn1
        .byte   W36
        .byte                   As1
        .byte   W12
@ 047   ----------------------------------------
        .byte   PATT
         .word  mus_pkmn_bw12_076_11_11
@ 048   ----------------------------------------
        .byte   PATT
         .word  mus_pkmn_bw12_076_11_12
@ 049   ----------------------------------------
        .byte   PATT
         .word  mus_pkmn_bw12_076_11_13
@ 050   ----------------------------------------
        .byte   W12
        .byte           N32   , Gn2 , v100
        .byte   W36
        .byte                   Bn2
        .byte   W36
        .byte                   As2
        .byte   W12
@ 051   ----------------------------------------
        .byte   PATT
         .word  mus_pkmn_bw12_076_11_15
@ 052   ----------------------------------------
        .byte   PATT
         .word  mus_pkmn_bw12_076_11_14
@ 053   ----------------------------------------
        .byte   PATT
         .word  mus_pkmn_bw12_076_11_15
@ 054   ----------------------------------------
        .byte   PATT
         .word  mus_pkmn_bw12_076_11_26
@ 055   ----------------------------------------
        .byte   PATT
         .word  mus_pkmn_bw12_076_11_27
@ 056   ----------------------------------------
        .byte   PATT
         .word  mus_pkmn_bw12_076_11_28
@ 057   ----------------------------------------
        .byte   PATT
         .word  mus_pkmn_bw12_076_11_27
@ 058   ----------------------------------------
        .byte   PATT
         .word  mus_pkmn_bw12_076_11_30
@ 059   ----------------------------------------
        .byte   PATT
         .word  mus_pkmn_bw12_076_11_31
@ 060   ----------------------------------------
        .byte   PATT
         .word  mus_pkmn_bw12_076_11_32
@ 061   ----------------------------------------
        .byte   PATT
         .word  mus_pkmn_bw12_076_11_33
@ 062   ----------------------------------------
        .byte   PATT
         .word  mus_pkmn_bw12_076_11_34
@ 063   ----------------------------------------
        .byte   W96
@ 064   ----------------------------------------
        .byte   PATT
         .word  mus_pkmn_bw12_076_11_36
@ 065   ----------------------------------------
        .byte   W96
@ 066   ----------------------------------------
        .byte   W11
        .byte           EOT   , Cn2
        .byte   W84
        .byte   W01
@ 067   ----------------------------------------
        .byte   W96
@ 068   ----------------------------------------
        .byte   W96
@ 069   ----------------------------------------
        .byte   W96
@ 070   ----------------------------------------
        .byte           VOICE , 23
        .byte           VOL   , 41
        .byte           PAN   , c_v+40
        .byte   GOTO
         .word  mus_pkmn_bw12_076_11_LOOP
        .byte   FINE

@***************** Track 12 (Midi-Chn.12) *****************@

mus_pkmn_bw12_076_12:
        .byte   KEYSH , mus_pkmn_bw12_076_key+0
@ 000   ----------------------------------------
        .byte           VOICE , 39
        .byte           LFOS  , 44
        .byte           BENDR , 12
        .byte           PAN   , c_v+40
        .byte           VOL   , 43
        .byte   W96
@ 001   ----------------------------------------
        .byte   W96
@ 002   ----------------------------------------
        .byte   W96
@ 003   ----------------------------------------
        .byte   W96
@ 004   ----------------------------------------
        .byte   W96
@ 005   ----------------------------------------
        .byte   W96
@ 006   ----------------------------------------
mus_pkmn_bw12_076_12_LOOP:
        .byte           N11   , CnM1 , v100
        .byte   W12
        .byte           N02   , BnM2
        .byte   W06
        .byte                   BnM2
        .byte   W06
        .byte           N11   , CnM1
        .byte   W12
        .byte           N02   , BnM2
        .byte   W06
        .byte                   BnM2
        .byte   W06
        .byte           N11   , CnM1
        .byte   W12
        .byte           N02   , BnM2
        .byte   W06
        .byte                   BnM2
        .byte   W06
        .byte           N11   , CnM1
        .byte   W12
        .byte           N02   , BnM2
        .byte   W06
        .byte                   BnM2
        .byte   W06
@ 007   ----------------------------------------
mus_pkmn_bw12_076_12_7:
        .byte           N11   , CnM1 , v100
        .byte   W12
        .byte           N02   , BnM2
        .byte   W06
        .byte                   BnM2
        .byte   W06
        .byte           N11   , CnM1
        .byte   W12
        .byte           N02   , BnM2
        .byte   W06
        .byte                   BnM2
        .byte   W06
        .byte           N11   , CnM1
        .byte   W12
        .byte           N02   , BnM2
        .byte   W06
        .byte                   BnM2
        .byte   W06
        .byte           N11   , CnM1
        .byte   W12
        .byte           N02   , BnM2
        .byte   W06
        .byte                   BnM2
        .byte   W06
        .byte   PEND
@ 008   ----------------------------------------
        .byte   PATT
         .word  mus_pkmn_bw12_076_12_7
@ 009   ----------------------------------------
        .byte   PATT
         .word  mus_pkmn_bw12_076_12_7
@ 010   ----------------------------------------
        .byte   PATT
         .word  mus_pkmn_bw12_076_12_7
@ 011   ----------------------------------------
        .byte   PATT
         .word  mus_pkmn_bw12_076_12_7
@ 012   ----------------------------------------
        .byte   PATT
         .word  mus_pkmn_bw12_076_12_7
@ 013   ----------------------------------------
        .byte   PATT
         .word  mus_pkmn_bw12_076_12_7
@ 014   ----------------------------------------
        .byte   PATT
         .word  mus_pkmn_bw12_076_12_7
@ 015   ----------------------------------------
        .byte   PATT
         .word  mus_pkmn_bw12_076_12_7
@ 016   ----------------------------------------
        .byte   PATT
         .word  mus_pkmn_bw12_076_12_7
@ 017   ----------------------------------------
        .byte   PATT
         .word  mus_pkmn_bw12_076_12_7
@ 018   ----------------------------------------
        .byte   PATT
         .word  mus_pkmn_bw12_076_12_7
@ 019   ----------------------------------------
        .byte   PATT
         .word  mus_pkmn_bw12_076_12_7
@ 020   ----------------------------------------
        .byte   PATT
         .word  mus_pkmn_bw12_076_12_7
@ 021   ----------------------------------------
        .byte   PATT
         .word  mus_pkmn_bw12_076_12_7
@ 022   ----------------------------------------
        .byte   PATT
         .word  mus_pkmn_bw12_076_12_7
@ 023   ----------------------------------------
        .byte   PATT
         .word  mus_pkmn_bw12_076_12_7
@ 024   ----------------------------------------
        .byte   PATT
         .word  mus_pkmn_bw12_076_12_7
@ 025   ----------------------------------------
        .byte   PATT
         .word  mus_pkmn_bw12_076_12_7
@ 026   ----------------------------------------
        .byte   PATT
         .word  mus_pkmn_bw12_076_12_7
@ 027   ----------------------------------------
        .byte   PATT
         .word  mus_pkmn_bw12_076_12_7
@ 028   ----------------------------------------
        .byte   PATT
         .word  mus_pkmn_bw12_076_12_7
@ 029   ----------------------------------------
        .byte   PATT
         .word  mus_pkmn_bw12_076_12_7
@ 030   ----------------------------------------
        .byte   PATT
         .word  mus_pkmn_bw12_076_12_7
@ 031   ----------------------------------------
        .byte   PATT
         .word  mus_pkmn_bw12_076_12_7
@ 032   ----------------------------------------
        .byte   PATT
         .word  mus_pkmn_bw12_076_12_7
@ 033   ----------------------------------------
        .byte   PATT
         .word  mus_pkmn_bw12_076_12_7
@ 034   ----------------------------------------
        .byte   W96
@ 035   ----------------------------------------
        .byte   W96
@ 036   ----------------------------------------
        .byte   W96
@ 037   ----------------------------------------
        .byte   W96
@ 038   ----------------------------------------
        .byte   W96
@ 039   ----------------------------------------
        .byte   W96
@ 040   ----------------------------------------
        .byte   W96
@ 041   ----------------------------------------
        .byte   W84
        .byte           N02   , BnM2 , v100
        .byte   W06
        .byte                   BnM2
        .byte   W06
@ 042   ----------------------------------------
        .byte   PATT
         .word  mus_pkmn_bw12_076_12_7
@ 043   ----------------------------------------
        .byte   PATT
         .word  mus_pkmn_bw12_076_12_7
@ 044   ----------------------------------------
        .byte   PATT
         .word  mus_pkmn_bw12_076_12_7
@ 045   ----------------------------------------
        .byte   PATT
         .word  mus_pkmn_bw12_076_12_7
@ 046   ----------------------------------------
        .byte   PATT
         .word  mus_pkmn_bw12_076_12_7
@ 047   ----------------------------------------
        .byte   PATT
         .word  mus_pkmn_bw12_076_12_7
@ 048   ----------------------------------------
        .byte   PATT
         .word  mus_pkmn_bw12_076_12_7
@ 049   ----------------------------------------
        .byte           N11   , CnM1 , v100
        .byte   W12
        .byte           N02   , BnM2
        .byte   W06
        .byte                   BnM2
        .byte   W06
        .byte           N11   , CnM1
        .byte   W06
        .byte           PAN   , c_v+16
        .byte   W06
        .byte           N02   , BnM2
        .byte   W06
        .byte                   BnM2
        .byte   W06
        .byte           PAN   , c_v-22
        .byte           N11   , CnM1
        .byte   W12
        .byte           N02   , BnM2
        .byte   W06
        .byte                   BnM2
        .byte   W06
        .byte           N11   , CnM1
        .byte   W06
        .byte           PAN   , c_v-51
        .byte   W06
        .byte           N02   , BnM2
        .byte   W06
        .byte                   BnM2
        .byte   W06
@ 050   ----------------------------------------
        .byte           PAN   , c_v+40
        .byte           N11   , CnM1
        .byte   W12
        .byte           N02   , BnM2
        .byte   W06
        .byte                   BnM2
        .byte   W06
        .byte           N11   , CnM1
        .byte   W12
        .byte           N02   , BnM2
        .byte   W06
        .byte                   BnM2
        .byte   W06
        .byte           N11   , CnM1
        .byte   W12
        .byte           N02   , BnM2
        .byte   W06
        .byte                   BnM2
        .byte   W06
        .byte           N11   , CnM1
        .byte   W12
        .byte           N02   , BnM2
        .byte   W06
        .byte                   BnM2
        .byte   W06
@ 051   ----------------------------------------
        .byte   PATT
         .word  mus_pkmn_bw12_076_12_7
@ 052   ----------------------------------------
        .byte   PATT
         .word  mus_pkmn_bw12_076_12_7
@ 053   ----------------------------------------
        .byte   PATT
         .word  mus_pkmn_bw12_076_12_7
@ 054   ----------------------------------------
        .byte   PATT
         .word  mus_pkmn_bw12_076_12_7
@ 055   ----------------------------------------
        .byte   PATT
         .word  mus_pkmn_bw12_076_12_7
@ 056   ----------------------------------------
        .byte   PATT
         .word  mus_pkmn_bw12_076_12_7
@ 057   ----------------------------------------
        .byte   PATT
         .word  mus_pkmn_bw12_076_12_7
@ 058   ----------------------------------------
        .byte   PATT
         .word  mus_pkmn_bw12_076_12_7
@ 059   ----------------------------------------
        .byte   PATT
         .word  mus_pkmn_bw12_076_12_7
@ 060   ----------------------------------------
        .byte   PATT
         .word  mus_pkmn_bw12_076_12_7
@ 061   ----------------------------------------
        .byte   PATT
         .word  mus_pkmn_bw12_076_12_7
@ 062   ----------------------------------------
        .byte   W96
@ 063   ----------------------------------------
        .byte   W96
@ 064   ----------------------------------------
        .byte   W96
@ 065   ----------------------------------------
        .byte   W96
@ 066   ----------------------------------------
        .byte   PATT
         .word  mus_pkmn_bw12_076_12_7
@ 067   ----------------------------------------
        .byte           N11   , CnM1 , v100
        .byte   W12
        .byte           N02   , BnM2
        .byte   W06
        .byte                   BnM2
        .byte   W06
        .byte           N11   , CnM1
        .byte   W12
        .byte           N02   , BnM2
        .byte   W06
        .byte                   BnM2
        .byte   W06
        .byte           N11   , CnM1
        .byte   W12
        .byte           N02   , BnM2
        .byte   W06
        .byte                   BnM2
        .byte   W06
        .byte           N08   , CnM1
        .byte   W12
        .byte                   CnM1 , v127
        .byte   W12
@ 068   ----------------------------------------
        .byte   PATT
         .word  mus_pkmn_bw12_076_12_7
@ 069   ----------------------------------------
        .byte   PATT
         .word  mus_pkmn_bw12_076_12_7
@ 070   ----------------------------------------
        .byte   GOTO
         .word  mus_pkmn_bw12_076_12_LOOP
        .byte   FINE

@***************** Track 13 (Midi-Chn.13) *****************@

mus_pkmn_bw12_076_13:
        .byte   KEYSH , mus_pkmn_bw12_076_key+0
@ 000   ----------------------------------------
        .byte           VOICE , 100
        .byte           LFOS  , 44
        .byte           BENDR , 12
        .byte           VOL   , 39
        .byte   W96
@ 001   ----------------------------------------
        .byte   W96
@ 002   ----------------------------------------
        .byte   W96
@ 003   ----------------------------------------
        .byte   W96
@ 004   ----------------------------------------
        .byte   W96
@ 005   ----------------------------------------
        .byte   W96
@ 006   ----------------------------------------
mus_pkmn_bw12_076_13_LOOP:
        .byte   W96
@ 007   ----------------------------------------
        .byte   W96
@ 008   ----------------------------------------
        .byte   W96
@ 009   ----------------------------------------
        .byte   W96
@ 010   ----------------------------------------
        .byte   W96
@ 011   ----------------------------------------
        .byte   W96
@ 012   ----------------------------------------
        .byte   W96
@ 013   ----------------------------------------
        .byte   W96
@ 014   ----------------------------------------
mus_pkmn_bw12_076_13_14:
        .byte           PAN   , c_v+40
        .byte           N32   , Cn3 , v100
        .byte   W36
        .byte                   Cn3
        .byte   W36
        .byte                   Cn3
        .byte   W24
        .byte   PEND
@ 015   ----------------------------------------
mus_pkmn_bw12_076_13_15:
        .byte   W12
        .byte           N32   , Cn3 , v100
        .byte   W36
        .byte           PAN   , c_v-24
        .byte           N23   , Gn2
        .byte   W24
        .byte                   Gn2
        .byte   W24
        .byte   PEND
@ 016   ----------------------------------------
        .byte   PATT
         .word  mus_pkmn_bw12_076_13_14
@ 017   ----------------------------------------
        .byte   PATT
         .word  mus_pkmn_bw12_076_13_15
@ 018   ----------------------------------------
        .byte   PATT
         .word  mus_pkmn_bw12_076_13_14
@ 019   ----------------------------------------
        .byte   PATT
         .word  mus_pkmn_bw12_076_13_15
@ 020   ----------------------------------------
        .byte   PATT
         .word  mus_pkmn_bw12_076_13_14
@ 021   ----------------------------------------
        .byte   PATT
         .word  mus_pkmn_bw12_076_13_15
@ 022   ----------------------------------------
        .byte   PATT
         .word  mus_pkmn_bw12_076_13_14
@ 023   ----------------------------------------
        .byte   PATT
         .word  mus_pkmn_bw12_076_13_15
@ 024   ----------------------------------------
        .byte   PATT
         .word  mus_pkmn_bw12_076_13_14
@ 025   ----------------------------------------
        .byte   PATT
         .word  mus_pkmn_bw12_076_13_15
@ 026   ----------------------------------------
mus_pkmn_bw12_076_13_26:
        .byte           N23   , Gn2 , v100
        .byte   W24
        .byte                   Gn2
        .byte   W24
        .byte                   Gn2
        .byte   W24
        .byte                   Gn2
        .byte   W24
        .byte   PEND
@ 027   ----------------------------------------
mus_pkmn_bw12_076_13_27:
        .byte           N23   , Gn2 , v100
        .byte   W24
        .byte                   Gn2
        .byte   W24
        .byte                   Gn2
        .byte   W24
        .byte           N11
        .byte   W12
        .byte           N05   , Fn2
        .byte   W06
        .byte                   Fs2
        .byte   W06
        .byte   PEND
@ 028   ----------------------------------------
        .byte   PATT
         .word  mus_pkmn_bw12_076_13_26
@ 029   ----------------------------------------
        .byte   PATT
         .word  mus_pkmn_bw12_076_13_26
@ 030   ----------------------------------------
        .byte           N23   , Ds2 , v100
        .byte   W24
        .byte                   Ds2
        .byte   W24
        .byte                   Ds2
        .byte   W24
        .byte                   Ds2
        .byte   W24
@ 031   ----------------------------------------
        .byte                   Ds2
        .byte   W24
        .byte                   Ds2
        .byte   W24
        .byte                   Ds2
        .byte   W24
        .byte           N11   , Ds2 , v127
        .byte   W12
        .byte           N05   , Cs2
        .byte   W06
        .byte                   Dn2 , v100
        .byte   W06
@ 032   ----------------------------------------
        .byte           PAN   , c_v+46
        .byte           N11   , Fs2
        .byte   W12
        .byte           PAN   , c_v-42
        .byte           N02   , As1
        .byte   W06
        .byte           N05
        .byte   W06
        .byte           PAN   , c_v+46
        .byte           N11   , Fs2
        .byte   W12
        .byte           PAN   , c_v-42
        .byte           N02   , As1
        .byte   W06
        .byte           N05
        .byte   W12
        .byte           PAN   , c_v+46
        .byte           N08   , Fs2
        .byte   W12
        .byte           N05   , As1
        .byte   W06
        .byte           N11   , Fs2
        .byte   W12
        .byte                   Fs2 , v127
        .byte   W12
@ 033   ----------------------------------------
        .byte           N17   , Fs2 , v100
        .byte   W18
        .byte                   Fs2
        .byte   W18
        .byte           N11
        .byte   W12
        .byte           N17
        .byte   W18
        .byte                   Fs2
        .byte   W18
        .byte           N11
        .byte   W12
@ 034   ----------------------------------------
        .byte           PAN   , c_v+32
        .byte           N44   , Cn2
        .byte   W96
@ 035   ----------------------------------------
        .byte   W96
@ 036   ----------------------------------------
        .byte   W96
@ 037   ----------------------------------------
        .byte   W96
@ 038   ----------------------------------------
        .byte   W96
@ 039   ----------------------------------------
        .byte   W96
@ 040   ----------------------------------------
        .byte   W96
@ 041   ----------------------------------------
        .byte   W96
@ 042   ----------------------------------------
        .byte   W96
@ 043   ----------------------------------------
        .byte   W96
@ 044   ----------------------------------------
        .byte   W96
@ 045   ----------------------------------------
        .byte   W96
@ 046   ----------------------------------------
        .byte   W96
@ 047   ----------------------------------------
        .byte   W96
@ 048   ----------------------------------------
        .byte   W96
@ 049   ----------------------------------------
        .byte   W96
@ 050   ----------------------------------------
mus_pkmn_bw12_076_13_50:
        .byte           N32   , Cn3 , v100
        .byte   W36
        .byte                   Cn3
        .byte   W36
        .byte                   Cn3
        .byte   W24
        .byte   PEND
@ 051   ----------------------------------------
mus_pkmn_bw12_076_13_51:
        .byte   W12
        .byte           N32   , Cn3 , v100
        .byte   W36
        .byte           N23   , Gn2
        .byte   W24
        .byte                   Gn2
        .byte   W24
        .byte   PEND
@ 052   ----------------------------------------
        .byte   PATT
         .word  mus_pkmn_bw12_076_13_50
@ 053   ----------------------------------------
        .byte   PATT
         .word  mus_pkmn_bw12_076_13_51
@ 054   ----------------------------------------
        .byte           N23   , Cn3 , v100
        .byte   W24
        .byte                   Gn2
        .byte   W24
        .byte                   Gn2
        .byte   W24
        .byte                   Gn2
        .byte   W24
@ 055   ----------------------------------------
        .byte   PATT
         .word  mus_pkmn_bw12_076_13_27
@ 056   ----------------------------------------
        .byte   PATT
         .word  mus_pkmn_bw12_076_13_26
@ 057   ----------------------------------------
        .byte   PATT
         .word  mus_pkmn_bw12_076_13_26
@ 058   ----------------------------------------
        .byte           PAN   , c_v+46
        .byte           N11   , Fs2 , v100
        .byte   W12
        .byte           PAN   , c_v-42
        .byte           N02   , As1
        .byte   W06
        .byte           N05
        .byte   W06
        .byte           PAN   , c_v+46
        .byte           N11   , Fs2
        .byte   W12
        .byte           PAN   , c_v-42
        .byte           N02   , As1
        .byte   W06
        .byte           N05
        .byte   W06
        .byte           PAN   , c_v+46
        .byte           N11   , Fs2
        .byte   W12
        .byte           PAN   , c_v-42
        .byte           N02   , As1
        .byte   W06
        .byte           N05
        .byte   W06
        .byte           PAN   , c_v+46
        .byte           N11   , Fs2
        .byte   W12
        .byte           PAN   , c_v-42
        .byte           N02   , As1
        .byte   W06
        .byte           N05
        .byte   W06
@ 059   ----------------------------------------
mus_pkmn_bw12_076_13_59:
        .byte           PAN   , c_v+46
        .byte           N17   , Fs2 , v100
        .byte   W18
        .byte                   Fs2
        .byte   W18
        .byte           N11
        .byte   W12
        .byte           N17
        .byte   W18
        .byte                   Fs2
        .byte   W18
        .byte           N11
        .byte   W12
        .byte   PEND
@ 060   ----------------------------------------
        .byte                   Fs2
        .byte   W12
        .byte           PAN   , c_v-42
        .byte           N02   , As1
        .byte   W06
        .byte           N05
        .byte   W06
        .byte           PAN   , c_v+46
        .byte           N11   , Fs2
        .byte   W12
        .byte           PAN   , c_v-42
        .byte           N02   , As1
        .byte   W06
        .byte           N05
        .byte   W06
        .byte           PAN   , c_v+46
        .byte           N11   , Fs2
        .byte   W12
        .byte           PAN   , c_v-42
        .byte           N02   , As1
        .byte   W06
        .byte           N05
        .byte   W06
        .byte           PAN   , c_v+46
        .byte           N11   , Fs2
        .byte   W12
        .byte           PAN   , c_v-42
        .byte           N02   , As1
        .byte   W06
        .byte           N05
        .byte   W06
@ 061   ----------------------------------------
        .byte   PATT
         .word  mus_pkmn_bw12_076_13_59
@ 062   ----------------------------------------
        .byte   W96
@ 063   ----------------------------------------
        .byte   W96
@ 064   ----------------------------------------
        .byte   W96
@ 065   ----------------------------------------
        .byte   W96
@ 066   ----------------------------------------
        .byte   W96
@ 067   ----------------------------------------
        .byte   W96
@ 068   ----------------------------------------
        .byte   W96
@ 069   ----------------------------------------
        .byte   W96
@ 070   ----------------------------------------
        .byte           PAN   , c_v+0
        .byte   GOTO
         .word  mus_pkmn_bw12_076_13_LOOP
        .byte   FINE


@********************** End of Song ***********************@

        .align  2
mus_pkmn_bw12_076:
        .byte   14                      @ Num Tracks
        .byte   0                       @ Unknown
        .byte   mus_pkmn_bw12_076_pri   @ Priority
        .byte   mus_pkmn_bw12_076_rev   @ Reverb

        .word   mus_pkmn_bw12_076_grp  

        .word   mus_pkmn_bw12_076_0
        .word   mus_pkmn_bw12_076_1
        .word   mus_pkmn_bw12_076_2
        .word   mus_pkmn_bw12_076_3
        .word   mus_pkmn_bw12_076_4
        .word   mus_pkmn_bw12_076_5
        .word   mus_pkmn_bw12_076_6
        .word   mus_pkmn_bw12_076_7
        .word   mus_pkmn_bw12_076_8
        .word   mus_pkmn_bw12_076_9
        .word   mus_pkmn_bw12_076_10
        .word   mus_pkmn_bw12_076_11
        .word   mus_pkmn_bw12_076_12
        .word   mus_pkmn_bw12_076_13

        .end
